<?xml version="1.0" standalone="no"?>
<!DOCTYPE svg PUBLIC "-//W3C//DTD SVG 1.1//EN" "http://www.w3.org/Graphics/SVG/1.1/DTD/svg11.dtd" >
<svg>
<metadata>
Created by FontForge 20110222 at Tue Aug  5 15:31:36 2014
 By Orthosie Webhosting
(c) 1992, 1994, 1997, 2000, 2004 Adobe Systems Incorporated. All rights reserved. Protected by U.S. Patents D454,582.
</metadata>
<defs>
<font id="MyriadProItalic" horiz-adv-x="383" >
  <font-face 
    font-family="MyriadProItalic"
    font-weight="400"
    font-style="italic"
    font-stretch="normal"
    units-per-em="1000"
    panose-1="2 11 5 3 3 4 3 9 2 4"
    ascent="750"
    descent="-250"
    x-height="484"
    cap-height="674"
    bbox="-184 -250 1090 953"
    underline-thickness="50"
    underline-position="-50"
    slope="-11"
    unicode-range="U+0020-FB04"
  />
<missing-glyph horiz-adv-x="500" 
d="M0 0v700h500v-700h-500zM250 395l170 255h-340zM280 350l170 -255v510zM80 50h340l-170 255zM50 605v-510l170 255z" />
    <glyph glyph-name="f_f_j" unicode="ffj" horiz-adv-x="756" 
d="M757 694l-26 -65q-42 22 -96 22q-114 0 -138 -145l-4 -22h260l-92 -482q-22 -120 -62 -164q-41 -47 -111 -47q-35 0 -54 6l10 65q11 -4 38 -4q34 0 57 27.5t36 98.5l83 435h-177l-80 -419h-82l79 419h-196l-79 -419h-83l79 419h-64l12 65h65l4 23q20 100 72 152
q50 50 125 50q45 0 75 -22l-29 -62q-23 15 -51 15q-38 0 -63 -25q-32 -32 -47 -111l-4 -20h197l5 24q18 100 78 156t153 56q33 0 65 -8t45 -18z" />
    <glyph glyph-name="f_j" unicode="fj" horiz-adv-x="478" 
d="M479 694l-26 -65q-42 22 -96 22q-114 0 -138 -145l-4 -22h260l-92 -482q-22 -120 -62 -164q-41 -47 -111 -47q-35 0 -54 6l10 65q12 -4 38 -4q34 0 57 27.5t36 98.5l83 435h-178l-78 -419h-83l79 419h-64l12 65h65l5 24q18 100 78 156t153 56q74 0 110 -26z" />
    <glyph glyph-name="f_f" unicode="ff" horiz-adv-x="561" 
d="M676 708l-18 -66q-22 10 -49 10q-87 0 -112 -145l-4 -23h107l-12 -65h-108l-79 -419h-83l80 419h-196l-79 -419h-83l79 419h-64l13 65h64l4 20q20 108 73 159q46 46 117 46q35 0 62 -15l-25 -63q-18 9 -40 9q-80 0 -105 -138l-4 -18h196l5 26q21 115 79 168q49 43 115 43
q41 0 67 -13z" />
    <glyph glyph-name="f_f_i" unicode="ffi" horiz-adv-x="777" 
d="M757 694l-26 -65q-42 22 -96 22q-114 0 -138 -145l-4 -22h260l-93 -484h-82l79 419h-176l-79 -419h-83l79 419h-196l-79 -419h-83l79 419h-64l12 65h65l4 23q20 100 72 152q50 50 125 50q44 0 76 -22l-30 -62q-23 15 -51 15q-38 0 -63 -25q-32 -32 -47 -111l-4 -20h197
l5 24q18 100 78 156t153 56q33 0 65 -8t45 -18z" />
    <glyph glyph-name="f_f_l" unicode="ffl" horiz-adv-x="777" 
d="M411 688l-30 -62q-23 14 -51 14q-38 0 -64 -26q-35 -35 -48 -110l-4 -20h197l4 21q18 112 94 170q58 46 149 46q86 0 133 -31l-131 -690h-83l122 640q-19 13 -64 13q-57 0 -91 -39t-46 -104l-5 -26h102l-13 -65h-102l-79 -419h-83l80 419h-196l-79 -419h-83l79 419h-64
l12 65h65l4 22q17 98 72 153q50 50 125 50q44 0 78 -21z" />
    <glyph glyph-name="f_i" unicode="fi" horiz-adv-x="499" 
d="M123 0h-82l79 419h-64l12 65h65l5 24q18 100 78 156t153 56q33 0 65 -8t45 -18l-26 -65q-42 22 -96 22q-114 0 -138 -145l-4 -22h260l-93 -484h-82l79 419h-177z" />
    <glyph glyph-name="f_l" unicode="fl" horiz-adv-x="499" 
d="M123 0h-82l79 419h-64l12 65h65l4 21q20 114 94 170q58 46 149 46q87 0 133 -32l-131 -689h-82l121 640q-19 13 -64 13q-57 0 -91 -39t-46 -104l-5 -26h102l-13 -65h-102z" />
    <glyph glyph-name=".notdef" horiz-adv-x="500" 
d="M0 0v700h500v-700h-500zM250 395l170 255h-340zM280 350l170 -255v510zM80 50h340l-170 255zM50 605v-510l170 255z" />
    <glyph glyph-name=".null" horiz-adv-x="0" 
 />
    <glyph glyph-name="nonmarkingreturn" horiz-adv-x="333" 
 />
    <glyph glyph-name="space" unicode=" " horiz-adv-x="182" 
 />
    <glyph glyph-name="exclam" unicode="!" horiz-adv-x="236" 
d="M142 194h-66l79 480h94zM77 -11q-24 0 -39 17t-15 41q0 28 17.5 47.5t44.5 19.5q25 0 40.5 -17t15.5 -42q0 -28 -18 -47t-46 -19z" />
    <glyph glyph-name="quotedbl" unicode="&#x22;" horiz-adv-x="304" 
d="M121 692h87l-62 -242h-55zM271 692h86l-62 -242h-55z" />
    <glyph glyph-name="numbersign" unicode="#" horiz-adv-x="492" 
d="M193 254h91l45 147h-90zM114 0h-58l60 197h-82l10 57h91l46 147h-87l10 57h94l60 192h58l-60 -192h91l60 192h58l-60 -192h82l-10 -57h-90l-45 -147h86l-10 -57h-95l-60 -197h-59l61 197h-90z" />
    <glyph glyph-name="dollar" unicode="$" horiz-adv-x="492" 
d="M210 -85h-60l19 100q-35 1 -73 14.5t-59 29.5l28 65q60 -43 133 -43q56 0 93.5 31t37.5 80q0 68 -84 111q-129 68 -129 160q0 67 50 117t127 57l19 97h61l-19 -97q70 -3 109 -34l-29 -62q-53 32 -114 32q-53 0 -84.5 -28t-31.5 -70q0 -33 21 -56.5t76 -52.5
q116 -64 116 -158q0 -81 -52.5 -132t-135.5 -61z" />
    <glyph glyph-name="percent" unicode="%" horiz-adv-x="773" 
d="M257 661q58 0 88.5 -39.5t30.5 -95.5q0 -109 -52 -186t-132 -77q-57 0 -90 39.5t-33 104.5q0 98 52.5 176t135.5 78zM246 608q-47 0 -78 -65t-31 -138q0 -89 63 -89q47 0 77.5 66.5t30.5 138.5q0 87 -62 87zM186 -13h-60l491 675h59zM618 392q58 0 88.5 -39.5t30.5 -96.5
q0 -109 -52 -186t-132 -77q-57 0 -89.5 39.5t-32.5 105.5q0 98 52.5 176t134.5 78zM607 339q-46 0 -77 -65.5t-31 -137.5q0 -90 63 -90q47 0 77 66.5t30 139.5q0 87 -62 87z" />
    <glyph glyph-name="ampersand" unicode="&#x26;" horiz-adv-x="589" 
d="M533 0h-98q-22 25 -46 62q-80 -73 -190 -73q-84 0 -133 48t-49 121t48 128t119 89v3q-37 66 -37 123q0 76 51 130t128 54q65 0 100.5 -38t35.5 -95q0 -115 -173 -196v-3q52 -88 121 -187q57 71 102 202h78q-59 -170 -142 -256q48 -67 85 -112zM222 54q75 0 132 60
q-105 154 -140 213q-113 -69 -113 -157q0 -51 32 -83.5t89 -32.5zM317 626q-39 0 -66 -33t-27 -83q0 -56 32 -107q129 62 129 147q0 33 -16.5 54.5t-51.5 21.5z" />
    <glyph glyph-name="quotesingle" unicode="'" horiz-adv-x="166" 
d="M128 692h86l-62 -242h-54z" />
    <glyph glyph-name="parenleft" unicode="(" horiz-adv-x="284" 
d="M279 692h71q-91 -103 -150.5 -239t-59.5 -295q0 -145 55 -276h-63q-64 128 -64 278q0 163 61.5 299.5t149.5 232.5z" />
    <glyph glyph-name="parenright" unicode=")" horiz-adv-x="284" 
d="M25 -118h-71q91 104 150.5 240.5t59.5 295.5q0 145 -55 274h64q63 -124 63 -276q0 -163 -61.5 -300t-149.5 -234z" />
    <glyph glyph-name="asterisk" unicode="*" horiz-adv-x="414" 
d="M338 685l57 -35l-110 -124l1 -2l152 20l-14 -68l-143 18l-1 -3l82 -120l-64 -36l-48 140h-2l-79 -140l-53 36l109 121v3l-150 -19l13 68l140 -19v2l-79 123l64 34l48 -139h2z" />
    <glyph glyph-name="plus" unicode="+" horiz-adv-x="596" 
d="M274 532h62v-235h219v-59h-219v-238h-62v238h-219v59h219v235z" />
    <glyph glyph-name="comma" unicode="," horiz-adv-x="211" 
d="M21 -117l-64 -7q65 126 98 240l99 10q-26 -62 -66 -134.5t-67 -108.5z" />
    <glyph glyph-name="hyphen" unicode="-" horiz-adv-x="307" 
d="M48 302h239l-12 -64h-239z" />
    <glyph glyph-name="period" unicode="." horiz-adv-x="211" 
d="M76 -11q-24 0 -39.5 17t-15.5 42q0 28 18 47.5t45 19.5q25 0 40.5 -17t15.5 -43q0 -28 -18 -47t-46 -19z" />
    <glyph glyph-name="slash" unicode="/" horiz-adv-x="326" 
d="M13 -40h-67l402 725h68z" />
    <glyph glyph-name="zero" unicode="0" horiz-adv-x="492" 
d="M327 661q59 0 96.5 -31t51 -74.5t13.5 -98.5q0 -111 -31.5 -216t-98 -178.5t-152.5 -73.5q-85 0 -124 61t-39 162q0 110 34.5 212t101 169.5t148.5 67.5zM318 594q-53 0 -99 -64t-69.5 -152t-23.5 -170q0 -152 91 -152q57 0 102 73.5t65.5 162t20.5 160.5q0 142 -87 142z
" />
    <glyph glyph-name="one" unicode="1" horiz-adv-x="492" 
d="M182 0l107 566h-2l-111 -56l-9 66l148 74h70l-123 -650h-80z" />
    <glyph glyph-name="two" unicode="2" horiz-adv-x="492" 
d="M393 0h-393l10 55l97 81q146 123 211 201.5t65 153.5q0 41 -24.5 70t-76.5 29q-67 0 -134 -47l-21 60q77 58 173 58q85 0 127 -46.5t42 -112.5q0 -50 -20.5 -99t-63 -99t-86.5 -91.5t-111 -96.5l-55 -43v-2h273z" />
    <glyph glyph-name="three" unicode="3" horiz-adv-x="492" 
d="M16 30l28 66q60 -36 125 -36q78 0 120 43.5t42 99.5q0 58 -39 86.5t-100 28.5h-33l13 65h33q33 0 68.5 13t64 43t28.5 70q0 38 -23 59.5t-69 21.5q-71 0 -123 -36l-18 63q72 44 155 44q78 0 122 -40.5t44 -99.5q0 -61 -42 -106t-102 -62v-2q52 -12 80 -52.5t28 -94.5
q0 -92 -73 -153.5t-179 -61.5q-49 0 -90.5 12.5t-59.5 28.5z" />
    <glyph glyph-name="four" unicode="4" horiz-adv-x="492" 
d="M335 0h-78l34 179h-280l11 56l346 415h91l-77 -405h88l-12 -66h-89zM113 245h191l42 216q4 20 24 105h-3q-68 -101 -73 -107l-181 -212v-2z" />
    <glyph glyph-name="five" unicode="5" horiz-adv-x="492" 
d="M487 650l-14 -72h-223l-51 -165q11 2 32 2q64 0 114 -31q38 -21 57.5 -59.5t19.5 -83.5q0 -114 -78 -183t-189 -69q-44 0 -83 11t-57 25l26 66q48 -31 122 -31q70 0 121.5 48t51.5 116q0 125 -157 125q-21 0 -73 -4l90 305h291z" />
    <glyph glyph-name="six" unicode="6" horiz-adv-x="492" 
d="M470 660l-12 -71q-30 0 -60 -5q-88 -16 -156.5 -78.5t-101.5 -157.5l2 -1q29 37 72.5 59.5t87.5 22.5q74 0 115.5 -50t41.5 -127q0 -100 -69 -181.5t-170 -81.5q-90 0 -137.5 59t-47.5 155q0 107 48 204.5t116 153.5q95 80 215 95q23 4 56 4zM226 56q62 0 104.5 59.5
t42.5 131.5q0 56 -27 86t-76 30q-38 0 -75 -24t-62 -65q-10 -16 -12 -31q-4 -30 -4 -52q0 -61 28.5 -98t80.5 -37z" />
    <glyph glyph-name="seven" unicode="7" horiz-adv-x="492" 
d="M134 650h389l-11 -58q-250 -394 -377 -592h-92q189 290 375 576l-1 3h-297z" />
    <glyph glyph-name="eight" unicode="8" horiz-adv-x="492" 
d="M315 661q72 0 118 -40t46 -107q0 -110 -127 -169l-1 -3q96 -52 96 -154q0 -91 -68.5 -145t-159.5 -54q-90 0 -142.5 45t-52.5 116q0 70 43 120t109 76l1 3q-71 51 -71 128q0 78 61 131t148 53zM225 52q58 0 97 36t39 93q0 92 -115 132q-57 -15 -96.5 -54.5t-39.5 -98.5
q0 -45 30 -76.5t85 -31.5zM302 598q-49 0 -82.5 -34t-33.5 -81q0 -76 95 -110q51 17 83.5 51.5t32.5 79.5q0 39 -22.5 66.5t-72.5 27.5z" />
    <glyph glyph-name="nine" unicode="9" horiz-adv-x="492" 
d="M56 -10l10 71q20 -1 62 4q74 11 138 64q79 63 119 172h-3q-61 -70 -148 -70q-76 0 -117 49.5t-41 118.5q0 102 71 182t170 80q87 0 131 -57.5t44 -147.5q0 -112 -51.5 -215t-116.5 -159q-86 -72 -195 -87q-45 -6 -73 -5zM307 594q-59 0 -102.5 -56.5t-43.5 -128.5
q0 -51 25.5 -82t72.5 -31q81 0 129 75q10 14 13 28q7 30 7 67q0 128 -101 128z" />
    <glyph glyph-name="colon" unicode=":" horiz-adv-x="211" 
d="M142 342q-24 0 -39 17t-15 41q0 28 17.5 47.5t44.5 19.5q25 0 40.5 -16.5t15.5 -42.5q0 -28 -18 -47t-46 -19zM75 -11q-24 0 -39 17t-15 41q0 28 17.5 47.5t44.5 19.5q25 0 40.5 -16.5t15.5 -42.5q0 -28 -18 -47t-46 -19z" />
    <glyph glyph-name="semicolon" unicode=";" horiz-adv-x="211" 
d="M20 -116l-63 -7q63 121 98 240l98 10q-27 -63 -66.5 -135t-66.5 -108zM147 342q-24 0 -39 17t-15 41q0 28 17.5 47.5t44.5 19.5q25 0 40.5 -16.5t15.5 -42.5q0 -28 -18 -47t-46 -19z" />
    <glyph glyph-name="less" unicode="&#x3c;" horiz-adv-x="596" 
d="M78 239v54l448 239v-68l-375 -197v-2l375 -197v-68z" />
    <glyph glyph-name="equal" unicode="=" horiz-adv-x="596" 
d="M556 338h-500v59h500v-59zM556 141h-500v59h500v-59z" />
    <glyph glyph-name="greater" unicode="&#x3e;" horiz-adv-x="596" 
d="M541 294v-56l-448 -238v68l378 197v2l-378 197v68z" />
    <glyph glyph-name="question" unicode="?" horiz-adv-x="384" 
d="M207 192h-80q2 18 2 26q8 88 98 182q29 30 44 48t29 45.5t14 52.5q0 30 -18 50t-58 20q-56 0 -100 -28l-15 61q60 37 136 37q68 0 104.5 -37t36.5 -88q0 -53 -27.5 -97t-81.5 -100q-71 -74 -79 -144q-1 -11 -5 -28zM136 -11q-24 0 -39 17t-15 41q0 28 17.5 47.5
t44.5 19.5q25 0 40.5 -17t15.5 -42q0 -28 -18 -47t-46 -19z" />
    <glyph glyph-name="at" unicode="@" horiz-adv-x="720" 
d="M439 255l21 112q-20 8 -50 8q-66 0 -113 -53.5t-47 -126.5q0 -34 17.5 -55t49.5 -21q41 0 77 43t45 93zM498 -21l16 -44q-72 -40 -174 -40q-132 0 -218.5 85.5t-86.5 227.5q0 160 101 272t263 112q129 0 210 -81.5t81 -207.5q0 -108 -52 -173t-126 -65q-33 0 -54.5 22
t-20.5 66h-3q-52 -88 -142 -88q-45 0 -76 34.5t-31 91.5q0 96 67.5 166.5t169.5 70.5q62 0 107 -21l-34 -181q-22 -110 30 -112q42 -2 75.5 49t33.5 133q0 112 -64.5 181t-179.5 69q-126 0 -212.5 -92t-86.5 -240q0 -124 71.5 -197.5t188.5 -73.5q84 0 147 36z" />
    <glyph glyph-name="A" unicode="A" horiz-adv-x="568" 
d="M400 213h-232l-107 -213h-88l349 674h97l94 -674h-85zM198 279h196l-26 195q-8 66 -12 124h-2q-3 -6 -23 -52.5t-32 -70.5z" />
    <glyph glyph-name="B" unicode="B" horiz-adv-x="519" 
d="M33 5l124 660q74 14 145 14q105 0 155 -46q49 -40 49 -105q0 -62 -42 -107.5t-103 -61.5v-2q48 -14 79 -53t31 -97q0 -97 -80 -157q-74 -55 -219 -55q-87 0 -139 10zM229 607l-42 -219h62q74 0 122.5 36t48.5 96q0 93 -122 93q-50 0 -69 -6zM174 325l-48 -259
q28 -4 68 -4q81 0 135.5 36.5t54.5 112.5q0 56 -40.5 85t-101.5 29h-68z" />
    <glyph glyph-name="C" unicode="C" horiz-adv-x="555" 
d="M486 90l11 -68q-72 -32 -175 -32q-127 0 -200 75t-73 204q0 96 37.5 182t105.5 143q107 90 255 90q50 0 90 -10t56 -22l-27 -67q-45 27 -133 27q-112 0 -193 -75q-48 -45 -75.5 -112.5t-27.5 -143.5q0 -99 49.5 -159.5t155.5 -60.5q88 0 144 29z" />
    <glyph glyph-name="D" unicode="D" horiz-adv-x="647" 
d="M33 3l125 663q75 13 168 13q170 0 248 -90q63 -65 63 -183q0 -93 -35.5 -177.5t-99.5 -139.5q-111 -94 -306 -94q-94 0 -163 8zM230 604l-102 -536q30 -4 87 -4q155 0 241 89q92 94 92 249q0 209 -226 209q-58 0 -92 -7z" />
    <glyph glyph-name="E" unicode="E" horiz-adv-x="470" 
d="M433 387l-14 -70h-245l-46 -246h276l-14 -71h-359l128 674h344l-14 -71h-260l-41 -216h245z" />
    <glyph glyph-name="F" unicode="F" horiz-adv-x="465" 
d="M31 0l128 674h342l-14 -71h-258l-44 -227h238l-14 -70h-238l-57 -306h-83z" />
    <glyph glyph-name="G" unicode="G" horiz-adv-x="623" 
d="M588 352l-61 -323q-88 -36 -190 -36q-145 0 -220 84q-68 75 -68 196q0 86 34 168.5t97 139.5q116 100 278 100q105 0 159 -31l-28 -70q-55 29 -141 29q-122 0 -209 -82q-47 -44 -74 -111t-27 -136q0 -101 53 -158.5t162 -57.5q61 0 102 19l39 201h-137l13 68h218z" />
    <glyph glyph-name="H" unicode="H" horiz-adv-x="627" 
d="M159 674h83l-54 -284h310l54 284h83l-128 -674h-83l59 317h-309l-60 -317h-83z" />
    <glyph glyph-name="I" unicode="I" horiz-adv-x="233" 
d="M158 674h83l-128 -674h-83z" />
    <glyph glyph-name="J" unicode="J" horiz-adv-x="364" 
d="M210 220l86 454h83l-88 -464q-22 -117 -74.5 -169t-147.5 -52q-66 0 -100 18l18 71q33 -15 85 -15q56 0 88.5 35t49.5 122z" />
    <glyph glyph-name="K" unicode="K" horiz-adv-x="515" 
d="M31 0l128 674h82l-62 -328l4 1q23 26 67 75l237 252h104l-284 -290l173 -384h-90l-147 331l-81 -75l-49 -256h-82z" />
    <glyph glyph-name="L" unicode="L" horiz-adv-x="442" 
d="M31 0l128 674h83l-115 -602h272l-14 -72h-354z" />
    <glyph glyph-name="M" unicode="M" horiz-adv-x="780" 
d="M676 0h-80l48 364q19 138 36 228h-3q-57 -125 -105 -217l-201 -371h-63l-50 363q-15 113 -21 225h-3q-1 -5 -21 -97.5t-30 -130.5l-92 -364h-78l175 674h106l53 -386q14 -115 16 -169h3q30 71 79 166l208 389h109z" />
    <glyph glyph-name="N" unicode="N" horiz-adv-x="632" 
d="M109 0h-78l128 674h91l154 -382q35 -89 59 -188l2 1q6 91 29 211l68 358h78l-128 -674h-82l-154 381q-42 109 -62 194l-3 -1q-9 -82 -35 -222z" />
    <glyph glyph-name="O" unicode="O" horiz-adv-x="668" 
d="M402 685q128 0 191.5 -79t63.5 -197q0 -91 -32.5 -179.5t-90.5 -146.5q-94 -94 -231 -94q-83 0 -142.5 39.5t-86 100t-26.5 134.5q0 91 34 181.5t94 149.5q44 42 103.5 66.5t122.5 24.5zM391 615q-85 0 -154 -67q-47 -47 -74.5 -125.5t-27.5 -152.5q0 -91 44 -151
t137 -60q87 0 154 67q46 46 73 125.5t27 153.5q0 40 -7.5 74t-26 66.5t-55.5 51t-90 18.5z" />
    <glyph glyph-name="P" unicode="P" horiz-adv-x="507" 
d="M31 0l127 664q62 15 146 15q110 0 165 -52q49 -44 49 -122q0 -53 -23 -99.5t-58 -76.5q-76 -64 -204 -64q-34 0 -69 5l-51 -270h-82zM227 605l-50 -265q32 -7 67 -7q85 0 137.5 47t52.5 119q0 58 -36.5 85.5t-97.5 27.5q-47 0 -73 -7z" />
    <glyph glyph-name="Q" unicode="Q" horiz-adv-x="668" 
d="M589 -25l-32 -69q-160 38 -234 71q-37 13 -46 13q-99 6 -164 79t-65 195q0 88 33 177t91 148q45 45 106 70.5t125 25.5q128 0 191 -80t63 -196q0 -86 -31 -174.5t-87 -144.5q-60 -60 -129 -77v-4q126 -26 179 -34zM392 615q-87 0 -153 -66q-48 -48 -76 -128t-28 -153
q0 -90 43 -149.5t134 -59.5q89 0 156 65q47 47 74.5 128t27.5 155q0 37 -7.5 70t-25.5 66t-55 52.5t-90 19.5z" />
    <glyph glyph-name="R" unicode="R" horiz-adv-x="523" 
d="M31 0l127 664q61 15 147 15q108 0 161 -49q50 -44 50 -111q0 -71 -46.5 -124t-113.5 -72l-1 -2q67 -22 75 -135q12 -158 21 -186h-86q-7 25 -16 163q-4 69 -29.5 100t-76.5 31h-74l-55 -294h-83zM229 606l-47 -248h74q77 0 125 43.5t48 106.5q0 52 -35.5 78.5t-94.5 26.5
q-42 0 -70 -7z" />
    <glyph glyph-name="S" unicode="S" horiz-adv-x="466" 
d="M12 36l30 68q64 -43 143 -43q60 0 103 34t43 92q0 73 -99 126q-134 73 -134 173q0 88 66 143t162 55q88 0 138 -35l-30 -68q-52 32 -117 32q-59 0 -96 -33t-37 -77q0 -39 24.5 -66.5t80.5 -58.5q65 -35 96.5 -78t31.5 -103q0 -90 -66 -149t-177 -59q-49 1 -95 14.5
t-67 32.5z" />
    <glyph glyph-name="T" unicode="T" horiz-adv-x="474" 
d="M148 0l114 602h-197l14 72h478l-14 -72h-198l-114 -602h-83z" />
    <glyph glyph-name="U" unicode="U" horiz-adv-x="621" 
d="M158 674h83l-76 -399q-8 -45 -8 -85q0 -63 33.5 -96.5t91.5 -33.5q147 0 188 214l77 400h83l-77 -403q-55 -282 -282 -282q-88 0 -142.5 49.5t-54.5 149.5q0 46 9 93z" />
    <glyph glyph-name="V" unicode="V" horiz-adv-x="539" 
d="M258 0h-91l-83 674h84l49 -432q12 -102 13 -152h3q38 94 74 163l214 421h92z" />
    <glyph glyph-name="W" unicode="W" horiz-adv-x="829" 
d="M219 0h-89l-33 674h84l14 -404q2 -71 0 -176h2q28 76 70 171l187 409h88l14 -388q4 -111 2 -190h2q33 95 66 173l181 405h87l-312 -674h-88l-17 383q-5 92 2 194h-3q-40 -115 -68 -177z" />
    <glyph glyph-name="X" unicode="X" horiz-adv-x="521" 
d="M466 0h-88l-64 167q-28 69 -43 118h-2q-48 -73 -79 -116l-121 -169h-99l263 343l-126 331h87l64 -173q26 -74 34 -102h2q51 77 69 102l129 173h99l-260 -330z" />
    <glyph glyph-name="Y" unicode="Y" horiz-adv-x="517" 
d="M243 0h-82l53 280l-130 394h89l65 -218q20 -69 28 -113h2q41 68 72 116l146 215h97l-287 -393z" />
    <glyph glyph-name="Z" unicode="Z" horiz-adv-x="523" 
d="M-20 0l9 51l458 549l-1 3h-320l14 71h432l-11 -54l-454 -546l1 -3h354l-13 -71h-469z" />
    <glyph glyph-name="bracketleft" unicode="[" horiz-adv-x="284" 
d="M194 -111h-175l152 797h175l-10 -54h-108l-131 -689h107z" />
    <glyph glyph-name="backslash" unicode="\" horiz-adv-x="329" 
d="M310 -40h-65l-184 725h65z" />
    <glyph glyph-name="bracketright" unicode="]" horiz-adv-x="284" 
d="M109 686h175l-152 -797h-175l10 54h108l131 689h-107z" />
    <glyph glyph-name="asciicircum" unicode="^" horiz-adv-x="596" 
d="M534 189h-68l-164 388h-2l-164 -388h-67l202 461l61 -1z" />
    <glyph glyph-name="underscore" unicode="_" horiz-adv-x="500" 
d="M-49 -75h500l-10 -50h-500z" />
    <glyph glyph-name="grave" unicode="`" 
d="M144 686h94l66 -143h-60z" />
    <glyph glyph-name="a" unicode="a" horiz-adv-x="522" 
d="M427 0h-78q0 33 11 125h-2q-70 -136 -188 -136q-63 0 -101 45t-38 115q0 87 38.5 164.5t117 129.5t179.5 52q70 0 131 -18l-50 -253q-24 -124 -20 -224zM375 276l28 146q-19 7 -57 7q-93 0 -161 -81t-68 -184q0 -107 83 -107q54 0 106 62.5t69 156.5z" />
    <glyph glyph-name="b" unicode="b" horiz-adv-x="525" 
d="M159 710h83l-64 -314h2q65 99 170 99q74 0 110 -51t36 -123q0 -78 -33.5 -152t-104.5 -127t-163 -53q-68 0 -108.5 30t-40.5 94q0 35 9 76zM148 238l-11 -51q-7 -31 -6 -62q0 -71 78 -71q87 0 144 83.5t57 173.5q0 49 -23 82t-69 33q-55 0 -103.5 -52t-66.5 -136z" />
    <glyph glyph-name="c" unicode="c" horiz-adv-x="423" 
d="M353 85l8 -65q-58 -30 -140 -30q-90 0 -138 52.5t-48 134.5q0 128 84.5 222.5t211.5 94.5q62 0 101 -21l-24 -66q-38 18 -82 18q-90 0 -147.5 -73.5t-57.5 -164.5q0 -60 31 -94.5t89 -34.5q56 0 112 27z" />
    <glyph glyph-name="d" unicode="d" horiz-adv-x="525" 
d="M460 710h82l-106 -556q-16 -90 -20 -154h-76l13 96h-2q-68 -107 -174 -107q-68 0 -106.5 49.5t-38.5 126.5q0 132 86.5 231t212.5 99q50 0 86 -17zM371 239l32 169q-28 21 -79 21q-85 0 -145.5 -77t-60.5 -176q0 -51 21 -85t70 -34q50 0 98.5 51.5t63.5 130.5z" />
    <glyph glyph-name="e" unicode="e" horiz-adv-x="453" 
d="M365 89l12 -62q-68 -38 -160 -38q-91 0 -137.5 54.5t-46.5 140.5q0 74 32.5 145t94.5 118.5t137 47.5q67 0 104.5 -35t37.5 -90q0 -162 -322 -157q-3 -15 -0.5 -44t10.5 -48q28 -65 108 -65q68 0 130 33zM359 369q0 29 -20 45t-54 16q-56 0 -99 -45.5t-60 -107.5
q233 -4 233 92z" />
    <glyph glyph-name="f" unicode="f" horiz-adv-x="283" 
d="M122 0h-83l80 419h-65l13 65h64l5 26q21 115 79 168q48 43 115 43q45 0 67 -13l-18 -66q-19 9 -49 9q-87 0 -112 -144l-4 -23h107l-12 -65h-108z" />
    <glyph glyph-name="g" unicode="g" horiz-adv-x="524" 
d="M10 -175l23 65q49 -32 128 -32q66 0 110 39.5t64 132.5l16 73h-2q-64 -103 -168 -103q-70 0 -109 49.5t-39 118.5q0 129 86 228t221 99q84 0 156 -34l-75 -400q-29 -157 -97 -217q-63 -53 -169 -53q-94 0 -145 34zM374 250l31 162q-37 16 -80 16q-87 0 -146 -76t-59 -170
q-1 -48 20.5 -82t72.5 -34q52 0 99.5 56t61.5 128z" />
    <glyph glyph-name="h" unicode="h" horiz-adv-x="534" 
d="M111 0h-83l135 710h83l-60 -311h2q67 96 173 96q48 0 84 -31.5t36 -98.5q0 -43 -8 -81l-54 -284h-83l54 280q6 34 6 67q0 36 -18.5 57.5t-56.5 21.5q-50 0 -100.5 -52.5t-64.5 -130.5z" />
    <glyph glyph-name="i" unicode="i" horiz-adv-x="229" 
d="M111 0h-83l93 484h82zM183 566q-21 0 -34 14.5t-13 37.5q1 24 16.5 40t37.5 16t36 -14.5t14 -37.5q-1 -25 -16.5 -40.5t-40.5 -15.5z" />
    <glyph glyph-name="j" unicode="j" horiz-adv-x="227" 
d="M126 484h82l-92 -483q-22 -119 -62 -163q-41 -47 -111 -47q-36 0 -54 6l10 65q12 -4 38 -4q34 0 57.5 27.5t36.5 98.5zM183 566q-21 0 -34 14.5t-13 37.5q1 24 16.5 40t38.5 16q22 0 35.5 -14.5t13.5 -37.5q-1 -25 -16.5 -40.5t-40.5 -15.5z" />
    <glyph glyph-name="k" unicode="k" horiz-adv-x="456" 
d="M110 0h-82l135 710h83l-85 -445h2q19 23 45 49l170 170h103l-211 -199l144 -285h-91l-117 239l-61 -55z" />
    <glyph glyph-name="l" unicode="l" horiz-adv-x="229" 
d="M112 0h-83l135 710h83z" />
    <glyph glyph-name="m" unicode="m" horiz-adv-x="808" 
d="M110 0h-81l64 343q13 73 22 141h73l-12 -91h2q68 102 170 102q53 0 81.5 -29.5t31.5 -78.5q65 106 177 108q48 0 83 -32t35 -95q0 -39 -8 -82l-54 -286h-81l52 279q7 33 7 63q0 84 -73 84q-47 0 -92.5 -50t-59.5 -128l-46 -248h-80l54 284q6 33 6 59q0 83 -72 83
q-46 0 -93.5 -54t-61.5 -129z" />
    <glyph glyph-name="n" unicode="n" horiz-adv-x="534" 
d="M111 0h-82l64 343q14 68 23 141h74l-12 -95h2q32 51 79 78.5t100 27.5q50 0 86.5 -32t36.5 -102q0 -31 -9 -78l-54 -283h-82l53 280q6 38 6 62q0 84 -76 84q-48 0 -98.5 -53t-66.5 -138z" />
    <glyph glyph-name="o" unicode="o" horiz-adv-x="522" 
d="M303 495q92 0 141 -59t49 -142q0 -119 -76 -212t-193 -93q-88 0 -138.5 57t-50.5 142q0 124 76.5 215.5t191.5 91.5zM294 429q-74 0 -123.5 -74.5t-49.5 -163.5q0 -60 31 -98t83 -38q71 0 121.5 75t50.5 164q0 52 -27 93.5t-86 41.5z" />
    <glyph glyph-name="p" unicode="p" horiz-adv-x="525" 
d="M68 -198h-83l97 510q17 91 27 173h76l-13 -92h2q32 48 78 75t96 27q73 0 110.5 -51t37.5 -124q0 -131 -82.5 -231t-200.5 -100q-66 0 -104 22h-2zM146 216l-25 -135q35 -27 93 -27q78 0 137 81t59 179q0 45 -22 78.5t-71 33.5q-53 0 -103 -56.5t-68 -153.5z" />
    <glyph glyph-name="q" unicode="q" horiz-adv-x="525" 
d="M370 -198h-83l59 286h-2q-30 -47 -75.5 -73t-92.5 -26q-69 0 -106.5 50.5t-37.5 125.5q0 82 37 157t109 124t162 49q85 0 155 -32zM372 244l31 167q-28 17 -80 17q-83 0 -144 -75.5t-61 -177.5q0 -56 22.5 -87t61.5 -31q57 0 106 55.5t64 131.5z" />
    <glyph glyph-name="r" unicode="r" horiz-adv-x="318" 
d="M111 0h-82l59 312q13 77 24 172h73q-8 -68 -13 -105h3q25 52 63 84t85 32q10 0 24 -2l-16 -82q-12 2 -23 2q-53 0 -97 -57t-60 -143z" />
    <glyph glyph-name="s" unicode="s" horiz-adv-x="373" 
d="M9 23l24 61q49 -30 104 -30q41 0 66.5 23t25.5 56q0 29 -15 48.5t-53 40.5q-87 48 -87 124q0 64 49.5 106.5t125.5 42.5q65 0 101 -24l-23 -63q-37 22 -84 22q-37 0 -61.5 -20.5t-24.5 -52.5q0 -25 16 -43.5t51 -37.5q90 -50 90 -127q0 -74 -52.5 -116.5t-131.5 -42.5
q-80 2 -121 33z" />
    <glyph glyph-name="t" unicode="t" horiz-adv-x="313" 
d="M155 574l87 26l-22 -116h116l-13 -65h-116l-44 -235q-10 -45 -10 -77q0 -47 46 -47q24 0 39 4l-4 -65q-22 -9 -64 -9q-52 0 -77 26.5t-25 67.5q0 35 11 90l47 245h-69l12 65h69z" />
    <glyph glyph-name="u" unicode="u" horiz-adv-x="526" 
d="M417 484h83l-65 -343q-11 -56 -22 -141h-74l12 91h-2q-33 -48 -77.5 -75t-92.5 -27q-54 0 -91 32t-37 108q0 34 9 82l53 273h82l-51 -270q-8 -43 -8 -71q0 -84 77 -84q48 0 95.5 50.5t61.5 126.5z" />
    <glyph glyph-name="v" unicode="v" horiz-adv-x="455" 
d="M52 484h84l42 -276q15 -117 15 -119h3q27 64 52 113l147 282h91l-269 -484h-81z" />
    <glyph glyph-name="w" unicode="w" horiz-adv-x="707" 
d="M61 484h82l17 -272q4 -58 2 -130h3q18 52 53 121l143 281h73l30 -276q8 -85 8 -126h2q23 69 46 123l131 279h84l-239 -484h-77l-32 263q-7 63 -7 129h-2q-43 -102 -56 -126l-139 -266h-77z" />
    <glyph glyph-name="x" unicode="x" horiz-adv-x="441" 
d="M63 484h90l47 -106q7 -16 17.5 -41.5t15.5 -35.5h2q39 55 53 73l90 110h95l-204 -236l115 -248h-91l-48 109q-18 38 -35 86h-3q-19 -31 -50 -74l-98 -121h-96l212 249z" />
    <glyph glyph-name="y" unicode="y" horiz-adv-x="441" 
d="M48 484h86l48 -260q14 -73 22 -128h2q30 71 52 119l124 269h88l-182 -368q-88 -176 -167 -254q-36 -37 -74.5 -57.5t-65.5 -26.5l-21 72q53 18 89 46q57 43 94 112q5 10 2 22z" />
    <glyph glyph-name="z" unicode="z" horiz-adv-x="415" 
d="M-21 0l9 51l235 262q43 48 101 100v3h-248l14 68h347l-11 -55l-231 -258q-49 -53 -100 -100l-1 -3h269l-14 -68h-370z" />
    <glyph glyph-name="braceleft" unicode="{" horiz-adv-x="284" 
d="M33 263l9 51q46 0 65.5 20.5t26.5 53.5q5 27 8 82.5t9 84.5q24 131 159 131h23l-10 -54h-18q-72 0 -90 -86q-5 -25 -7 -73.5t-6 -74.5q-15 -91 -91 -109v-2q54 -16 54 -71q0 -40 -25 -111q-26 -69 -26 -100q0 -61 60 -62h18l-11 -54h-18q-54 0 -85.5 26t-31.5 76
q0 39 27 116q26 76 26 102q0 55 -66 54z" />
    <glyph glyph-name="bar" unicode="|" horiz-adv-x="217" 
d="M95 750h62v-1000h-62v1000z" />
    <glyph glyph-name="braceright" unicode="}" horiz-adv-x="284" 
d="M264 311l-9 -51q-46 0 -65.5 -20.5t-26.5 -53.5q-5 -26 -8 -82t-9 -85q-24 -130 -159 -130h-23l10 54h18q72 0 90 86q5 24 7 72.5t6 74.5q15 90 91 109v2q-54 16 -54 72q0 27 26 109q25 73 25 101q0 62 -60 63h-18l11 54h18q54 0 85.5 -26t31.5 -76q0 -43 -26 -119
q-27 -71 -27 -101q0 -54 66 -53z" />
    <glyph glyph-name="asciitilde" unicode="~" horiz-adv-x="596" 
d="M123 212h-60q-2 71 31.5 109.5t86.5 38.5q54 0 134 -43q82 -42 123 -42q52 0 54 82h59q3 -77 -29.5 -112.5t-85.5 -35.5q-55 0 -139 44q-78 41 -117 41q-26 0 -41 -21.5t-16 -60.5z" />
    <glyph glyph-name="uni00A0" unicode="&#xa0;" horiz-adv-x="182" 
 />
    <glyph glyph-name="exclamdown" unicode="&#xa1;" horiz-adv-x="236" 
d="M83 -195h-94l106 477h66zM160 488q24 0 39 -17t15 -41q0 -28 -17.5 -47.5t-44.5 -19.5q-25 0 -40.5 17t-15.5 42q0 28 18 47t46 19z" />
    <glyph glyph-name="cent" unicode="&#xa2;" horiz-adv-x="492" 
d="M272 -14h-61l20 101q-75 13 -115 67q-35 50 -35 122q0 113 71.5 198t174.5 99l18 100h61l-19 -98q55 0 91 -24l-29 -64q-39 23 -95 23q-72 0 -128.5 -66t-56.5 -161q0 -58 32.5 -94.5t91.5 -36.5q51 0 103 23l8 -63q-43 -24 -113 -26z" />
    <glyph glyph-name="sterling" unicode="&#xa3;" horiz-adv-x="492" 
d="M426 0h-402l9 51q48 23 83.5 67t47.5 95q7 29 9 82h-90l12 63h79q2 74 12 123q18 85 71.5 132.5t135.5 47.5q59 0 92 -23l-25 -64q-32 17 -75 17q-51 0 -82 -32.5t-41 -88.5q-8 -47 -8 -112h148l-12 -63h-139q-4 -50 -11 -79q-20 -87 -92 -143v-2h291z" />
    <glyph glyph-name="currency" unicode="&#xa4;" horiz-adv-x="492" 
d="M264 534q71 0 114 -40l71 74l44 -46l-77 -70q35 -50 35 -119q0 -72 -35 -121l75 -72l-44 -46l-69 76q-45 -42 -116 -42t-112 39l-67 -73l-45 46l73 69q-37 48 -37 120q0 71 39 123l-76 70l45 46l69 -74q43 40 113 40zM261 474q-53 0 -86 -41.5t-33 -101.5
q0 -70 37 -106.5t83 -36.5q50 0 85.5 36t35.5 108q0 58 -32.5 100t-89.5 42z" />
    <glyph glyph-name="yen" unicode="&#xa5;" horiz-adv-x="492" 
d="M234 0h-78l33 176h-146l9 49h146l14 73h-146l10 49h122l-103 303h85l59 -206q19 -73 23 -92h4q23 45 56 94l141 204h91l-228 -303h121l-9 -49h-148l-14 -73h148l-10 -49h-147z" />
    <glyph glyph-name="brokenbar" unicode="&#xa6;" horiz-adv-x="217" 
d="M95 174h62v-350h-62v350zM95 674h62v-350h-62v350z" />
    <glyph glyph-name="section" unicode="&#xa7;" horiz-adv-x="501" 
d="M152 349q0 -28 17 -49.5t65 -44.5q65 -31 92 -51q57 36 57 89q0 55 -75 94q-62 29 -93 50q-63 -33 -63 -88zM473 652l-24 -55q-50 30 -112 30q-44 0 -75 -23t-31 -58q0 -30 22 -48.5t78 -43.5q62 -28 93.5 -60.5t31.5 -81.5q0 -85 -88 -142q23 -27 23 -71q0 -77 -58 -118
t-138 -41q-95 0 -148 40l25 57q61 -39 126 -39q50 0 82.5 24.5t32.5 64.5q0 28 -21 50.5t-77 49.5q-66 30 -101.5 63t-35.5 79q0 85 100 141q-23 29 -23 64q0 68 56 109.5t135 41.5q78 0 127 -33z" />
    <glyph glyph-name="dieresis" unicode="&#xa8;" 
d="M172 570q-20 0 -33.5 14t-13.5 35q0 22 15 37.5t37 15.5q21 0 34 -14t13 -35q0 -22 -14.5 -37.5t-37.5 -15.5zM354 570q-20 0 -33 14t-13 35q0 22 15 37.5t37 15.5q21 0 34 -14t13 -35q0 -22 -15 -37.5t-38 -15.5z" />
    <glyph glyph-name="copyright" unicode="&#xa9;" horiz-adv-x="675" 
d="M368 648q125 0 211.5 -90t86.5 -218q0 -129 -86.5 -219.5t-212.5 -90.5q-127 0 -215 90.5t-88 219.5q0 128 88 218t216 90zM365 607q-106 0 -179 -78t-73 -192q0 -112 73 -189t180 -77q106 -1 178.5 76.5t72.5 192.5q0 113 -73 190t-179 77zM501 493l-12 -40
q-42 24 -98 24q-67 0 -103 -38.5t-36 -101.5q0 -61 37 -101t103 -40q62 0 103 27l11 -38q-47 -32 -123 -32q-85 0 -134 51t-49 130q0 83 56 134.5t134 51.5q37 0 68 -8.5t43 -18.5z" />
    <glyph glyph-name="ordfeminine" unicode="&#xaa;" horiz-adv-x="350" 
d="M325 267h-59q0 34 4 63h-2q-43 -69 -116 -69q-43 0 -68.5 31.5t-25.5 83.5q0 87 57 151t157 64q52 0 97 -17l-36 -206q-8 -42 -8 -101zM280 422l20 112q-17 7 -45 7q-54 0 -92.5 -45t-38.5 -110q0 -31 13 -52t42 -21q33 0 63 32.5t38 76.5z" />
    <glyph glyph-name="guillemotleft" unicode="&#xab;" horiz-adv-x="409" 
d="M253 436l-151 -186l101 -182h-66l-104 184l148 184h72zM417 436l-152 -186l102 -182h-67l-103 184l147 184h73z" />
    <glyph glyph-name="logicalnot" unicode="&#xac;" horiz-adv-x="596" 
d="M49 399h501v-279h-63v220h-438v59z" />
    <glyph glyph-name="uni00AD" unicode="&#xad;" horiz-adv-x="307" 
d="M48 302h239l-12 -64h-239z" />
    <glyph glyph-name="registered" unicode="&#xae;" horiz-adv-x="395" 
d="M226 499v-65h-38v164q37 5 63 5q39 0 57 -13q17 -12 17 -35q0 -28 -34 -39v-2q21 -7 29 -40q5 -27 12 -40h-40q-4 5 -13 40q-4 25 -34 25h-19zM227 573v-47h18q39 0 39 24q0 25 -36 25q-11 0 -21 -2zM254 683q70 0 118 -47.5t48 -116.5t-48.5 -117t-118.5 -48
q-71 0 -120 48t-49 117t49.5 116.5t120.5 47.5zM251 650q-53 0 -89 -38.5t-36 -92.5q0 -55 36.5 -93t90.5 -38q53 -1 89 37t36 93t-36 93.5t-91 38.5z" />
    <glyph glyph-name="macron" unicode="&#xaf;" 
d="M162 646h219l-10 -53h-219z" />
    <glyph glyph-name="degree" unicode="&#xb0;" horiz-adv-x="318" 
d="M226 685q57 0 92 -37t35 -88q0 -58 -40.5 -96.5t-92.5 -38.5q-56 0 -91.5 37t-35.5 90q0 55 39 94t94 39zM223 638q-34 0 -55 -27t-21 -59q0 -34 21.5 -57t53.5 -23t54.5 25t22.5 61q0 31 -19 55.5t-57 24.5z" />
    <glyph glyph-name="plusminus" unicode="&#xb1;" horiz-adv-x="596" 
d="M275 572h62v-195h219v-59h-219v-201h-62v201h-219v59h219v195zM56 59h500v-59h-500v59z" />
    <glyph glyph-name="twosuperior" unicode="&#xb2;" horiz-adv-x="298" 
d="M310 406h-263l7 40l73 58q82 66 119 106.5t37 80.5q0 54 -60 54q-41 0 -85 -30l-16 44q56 42 122 42q52 0 82 -28.5t30 -72.5q0 -37 -26.5 -76.5t-55 -65t-83.5 -67.5l-36 -28v-2h166z" />
    <glyph glyph-name="threesuperior" unicode="&#xb3;" horiz-adv-x="291" 
d="M137 722l-11 45q47 34 111 34q52 0 81 -25t29 -61q0 -34 -25 -59t-65 -38v-2q31 -8 51 -32t20 -57q-1 -57 -46.5 -91.5t-117.5 -34.5q-73 0 -109 29l22 48q37 -26 87 -26q43 0 68 22t25 53q0 32 -26 48.5t-65 16.5h-20l8 45h21q37 0 68.5 19t31.5 49q0 45 -57 45
q-43 0 -81 -28z" />
    <glyph glyph-name="acute" unicode="&#xb4;" 
d="M300 686h100l-133 -143h-65z" />
    <glyph glyph-name="mu" unicode="&#xb5;" horiz-adv-x="525" 
d="M196 484l-54 -287q-26 -138 81 -138q35 0 68.5 30t55.5 72q14 26 21 59l50 264h83l-65 -344q-8 -47 -2 -64.5t30 -19.5l-18 -64q-14 -3 -27 -3q-68 0 -63 100h-3q-24 -42 -62 -70t-84 -28q-73 0 -98 58l-11 -65q-25 -131 -21 -182h-74q-10 45 16 179l95 503h82z" />
    <glyph glyph-name="paragraph" unicode="&#xb6;" horiz-adv-x="494" 
d="M222 -51h-61l61 313q-2 0 -5 1t-5 1q-52 7 -94.5 51t-42.5 119q0 106 82 173t225 67q75 0 110 -8l-138 -717h-60l127 667h-72z" />
    <glyph glyph-name="periodcentered" unicode="&#xb7;" horiz-adv-x="211" 
d="M105 198q-24 0 -39.5 17t-15.5 42q0 28 18 47.5t45 19.5q25 0 40.5 -17t15.5 -43q0 -28 -18 -47t-46 -19z" />
    <glyph glyph-name="cedilla" unicode="&#xb8;" 
d="M132 2h53l-39 -52q24 -6 39 -23t15 -41q0 -40 -32 -63.5t-77 -23.5q-40 0 -65 17l18 43q23 -14 52 -14q18 0 31 9.5t13 26.5q0 31 -66 39z" />
    <glyph glyph-name="onesuperior" unicode="&#xb9;" horiz-adv-x="228" 
d="M203 406h-69l63 329h-2l-72 -32l-6 49l100 44h60z" />
    <glyph glyph-name="ordmasculine" unicode="&#xba;" horiz-adv-x="345" 
d="M231 591q65 0 100.5 -39t35.5 -97q0 -83 -52 -138.5t-129 -55.5q-62 0 -98 39.5t-36 93.5q0 84 52.5 140.5t126.5 56.5zM223 541q-43 0 -73.5 -44t-30.5 -102q0 -40 20.5 -62.5t52.5 -22.5q43 0 75 42.5t32 106.5q0 34 -17.5 58t-58.5 24z" />
    <glyph glyph-name="guillemotright" unicode="&#xbb;" horiz-adv-x="408" 
d="M159 255l-102 181h67l103 -184l-147 -184h-73zM322 255l-101 181h66l104 -184l-148 -184h-72z" />
    <glyph glyph-name="onequarter" unicode="&#xbc;" horiz-adv-x="751" 
d="M616 0h-66l19 103h-192l8 40l232 252h73l-46 -243h58l-9 -49h-58zM578 152l23 118q4 23 15 63h-2q-30 -41 -43 -57l-113 -123l1 -1h119zM198 266h-69l63 329h-2l-71 -33l-7 50l100 44h60zM159 -11h-62l486 672h62z" />
    <glyph glyph-name="onehalf" unicode="&#xbd;" horiz-adv-x="751" 
d="M195 266h-69l62 329h-1l-72 -33l-7 50l100 44h61zM140 -11h-61l488 672h61zM661 0h-263l7 39l73 59q84 67 120 107t36 80q0 54 -60 54q-44 0 -84 -31l-16 45q54 42 121 42q52 0 82 -28.5t30 -72.5q0 -37 -26.5 -76.5t-55 -65t-83.5 -67.5l-36 -28v-2h165z" />
    <glyph glyph-name="threequarters" unicode="&#xbe;" horiz-adv-x="751" 
d="M193 -11h-62l486 672h62zM124 582l-11 45q47 34 111 34q52 0 81 -25t29 -61q0 -34 -25 -59t-66 -38v-2q31 -8 51 -32t20 -57q-1 -57 -46.5 -91.5t-117.5 -34.5q-73 0 -109 29l22 48q37 -26 87 -26q43 0 68 22t25 53q0 32 -26 48.5t-64 16.5h-20l8 45h21q37 0 68.5 19
t31.5 49q0 45 -57 45q-43 0 -81 -28zM627 0h-66l19 103h-192l8 40l232 252h74l-46 -243h57l-9 -49h-58zM590 152l22 118q8 36 15 63h-2q-34 -47 -43 -57l-113 -123l1 -1h120z" />
    <glyph glyph-name="questiondown" unicode="&#xbf;" horiz-adv-x="384" 
d="M191 286h80q0 -9 -2 -27q-8 -86 -98 -182q-86 -86 -86 -145q0 -31 18 -51t58 -20q57 0 100 27l16 -61q-63 -36 -135 -36q-70 0 -106.5 39t-36.5 91q0 85 108 193q70 71 80 143zM262 488q24 0 39 -17t15 -41q0 -28 -18 -47.5t-45 -19.5q-24 0 -39.5 17t-15.5 42
q0 28 18 47t46 19z" />
    <glyph glyph-name="Agrave" unicode="&#xc0;" horiz-adv-x="568" 
d="M400 213h-232l-107 -213h-88l349 674h97l94 -674h-85zM198 279h196l-26 195q-8 66 -12 124h-2q-3 -6 -23 -52.5t-32 -70.5zM233 828h103l75 -117h-68z" />
    <glyph glyph-name="Aacute" unicode="&#xc1;" horiz-adv-x="568" 
d="M400 213h-232l-107 -213h-88l349 674h97l94 -674h-85zM198 279h196l-26 195q-8 66 -12 124h-2q-3 -6 -23 -52.5t-32 -70.5zM424 828h108l-136 -118h-74z" />
    <glyph glyph-name="Acircumflex" unicode="&#xc2;" horiz-adv-x="568" 
d="M400 213h-232l-108 -213h-87l348 674h98l94 -674h-85zM198 279h196l-26 195q-8 66 -12 124h-2q-51 -113 -56 -123zM357 828h65l80 -118h-68l-49 72h-2l-72 -72h-74z" />
    <glyph glyph-name="Atilde" unicode="&#xc3;" horiz-adv-x="568" 
d="M401 213h-233l-107 -213h-88l349 674h98l93 -674h-85zM198 279h197l-27 195q-2 20 -6 64.5t-6 59.5h-2q-3 -6 -23 -52.5t-32 -70.5zM292 715h-47q8 45 30 72.5t52 27.5q27 0 60 -20q27 -18 44 -18q23 0 35 40h46q-17 -96 -83 -96q-25 0 -60 19q-32 19 -43 18
q-23 0 -34 -43z" />
    <glyph glyph-name="Adieresis" unicode="&#xc4;" horiz-adv-x="568" 
d="M400 213h-232l-107 -213h-88l349 674h97l93 -674h-85zM198 279h196l-26 195q-8 66 -12 124h-2q-3 -6 -23 -52.5t-32 -70.5zM284 720q-19 0 -32.5 14t-13.5 34q0 22 15 37.5t37 15.5q21 0 34 -14.5t13 -33.5q0 -22 -15.5 -37.5t-37.5 -15.5zM468 720q-19 0 -32.5 14
t-13.5 34q0 22 15 37.5t37 15.5q21 0 34 -14.5t13 -33.5q0 -22 -15.5 -37.5t-37.5 -15.5z" />
    <glyph glyph-name="Aring" unicode="&#xc5;" horiz-adv-x="568" 
d="M401 213h-233l-107 -213h-88l349 674h98l93 -674h-85zM198 279h196l-26 195q-8 66 -12 124h-2q-3 -6 -23 -52.5t-32 -70.5zM386 873q42 0 68.5 -24t26.5 -63q-1 -41 -30.5 -66t-72.5 -25q-41 0 -67.5 23t-27.5 60q-1 41 28 68t75 27zM382 837q-21 0 -34.5 -16t-13.5 -40
q0 -21 13 -35.5t33 -14.5q22 0 35.5 15.5t13.5 38.5t-12.5 37.5t-34.5 14.5z" />
    <glyph glyph-name="AE" unicode="&#xc6;" horiz-adv-x="773" 
d="M37 0h-88l448 674h380l-14 -71h-251l-23 -218h238l-13 -70h-230l-26 -244h257l-13 -71h-329l24 238h-202zM238 307h165l21 195q7 76 12 109h-4q-34 -60 -64 -106z" />
    <glyph glyph-name="Ccedilla" unicode="&#xc7;" horiz-adv-x="558" 
d="M486 91l11 -68q-66 -30 -152 -33l-31 -40q25 -6 39.5 -23.5t14.5 -41.5q0 -40 -32.5 -62.5t-75.5 -22.5q-42 0 -67 18l18 41q23 -14 51 -14q18 0 31 9.5t13 25.5q0 33 -65 40l52 71q-116 9 -180 83.5t-64 195.5q0 95 37.5 181t106.5 143q107 90 254 90q51 0 91 -10
t55 -22l-27 -67q-45 27 -132 27q-113 0 -194 -75q-48 -44 -75.5 -112.5t-27.5 -143.5q0 -98 50 -159t155 -61q86 0 144 30z" />
    <glyph glyph-name="Egrave" unicode="&#xc8;" horiz-adv-x="470" 
d="M433 387l-14 -70h-245l-46 -246h276l-14 -71h-359l128 674h344l-14 -71h-260l-41 -216h245zM214 828h103l75 -117h-68z" />
    <glyph glyph-name="Eacute" unicode="&#xc9;" horiz-adv-x="470" 
d="M432 387l-13 -70h-245l-47 -246h276l-14 -71h-358l128 674h343l-14 -71h-259l-42 -216h245zM387 828h109l-137 -118h-73z" />
    <glyph glyph-name="Ecircumflex" unicode="&#xca;" horiz-adv-x="470" 
d="M433 387l-14 -70h-245l-46 -246h276l-14 -71h-359l128 674h344l-14 -71h-260l-41 -216h245zM323 828h65l80 -118h-68l-49 72h-2l-72 -72h-74z" />
    <glyph glyph-name="Edieresis" unicode="&#xcb;" horiz-adv-x="470" 
d="M433 387l-14 -70h-245l-47 -246h277l-14 -71h-359l128 674h344l-14 -71h-261l-41 -216h246zM252 720q-19 0 -32.5 14t-13.5 34q0 22 15 37.5t37 15.5q21 0 34 -14.5t13 -33.5q0 -22 -15.5 -37.5t-37.5 -15.5zM437 720q-19 0 -32.5 14t-13.5 34q0 22 15 37.5t37 15.5
q21 0 34 -14.5t13 -33.5q0 -22 -15.5 -37.5t-37.5 -15.5z" />
    <glyph glyph-name="Igrave" unicode="&#xcc;" horiz-adv-x="233" 
d="M158 674h83l-128 -674h-83zM79 828h103l75 -117h-68z" />
    <glyph glyph-name="Iacute" unicode="&#xcd;" horiz-adv-x="233" 
d="M158 674h83l-128 -674h-83zM252 828h109l-137 -118h-73z" />
    <glyph glyph-name="Icircumflex" unicode="&#xce;" horiz-adv-x="233" 
d="M158 674h83l-128 -674h-83zM187 828h64l80 -118h-68l-49 72h-2l-72 -72h-74z" />
    <glyph glyph-name="Idieresis" unicode="&#xcf;" horiz-adv-x="233" 
d="M158 674h84l-129 -674h-83zM120 720q-19 0 -32.5 14t-13.5 34q0 22 15 37.5t37 15.5q21 0 34 -14.5t13 -33.5q0 -22 -15.5 -37.5t-37.5 -15.5zM305 720q-19 0 -32.5 14t-13.5 34q0 22 15 37.5t37 15.5q21 0 34 -14.5t13 -33.5q0 -22 -15.5 -37.5t-37.5 -15.5z" />
    <glyph glyph-name="Eth" unicode="&#xd0;" horiz-adv-x="654" 
d="M14 317l14 70h84l52 278q78 14 171 14q168 0 244 -88q64 -66 64 -184q0 -91 -37 -176t-103 -140q-114 -94 -301 -94q-99 0 -163 9l59 311h-84zM361 387l-14 -70h-166l-47 -246q30 -5 91 -5q146 0 234 90q45 45 70 111t25 137q0 96 -53.5 151.5t-171.5 55.5q-57 0 -93 -5
l-41 -219h166z" />
    <glyph glyph-name="Ntilde" unicode="&#xd1;" horiz-adv-x="632" 
d="M110 0h-79l129 674h90l154 -382q33 -84 60 -188l2 1q4 87 28 211l68 358h78l-128 -674h-82l-153 381q-43 107 -63 194l-3 -1q-9 -82 -35 -222zM332 716h-47q8 45 30 72.5t52 27.5q29 0 60 -21q27 -18 44 -18q22 0 34 40h46q-17 -96 -83 -96q-27 0 -59 20q-32 19 -43 18
q-23 0 -34 -43z" />
    <glyph glyph-name="Ograve" unicode="&#xd2;" horiz-adv-x="668" 
d="M303 -11q-83 0 -142.5 39.5t-86 100t-26.5 134.5q0 91 34 181.5t94 149.5q44 42 103.5 66.5t122.5 24.5q128 0 191.5 -79t63.5 -197q0 -91 -32.5 -179.5t-90.5 -146.5q-94 -94 -231 -94zM316 59q87 0 154 67q46 46 73 125.5t27 153.5q0 40 -7.5 74t-26 66.5t-55.5 51
t-90 18.5q-85 0 -154 -67q-47 -47 -74.5 -125.5t-27.5 -152.5q0 -91 44 -151t137 -60zM287 828h104l75 -117h-69z" />
    <glyph glyph-name="Oacute" unicode="&#xd3;" horiz-adv-x="668" 
d="M303 -11q-83 0 -142.5 39.5t-86 100t-26.5 134.5q0 91 34 181.5t94 149.5q44 42 103.5 66.5t122.5 24.5q128 0 191.5 -79t63.5 -197q0 -91 -32.5 -179.5t-90.5 -146.5q-94 -94 -231 -94zM316 59q87 0 154 67q46 46 73 125.5t27 153.5q0 40 -7.5 74t-26 66.5t-55.5 51
t-90 18.5q-85 0 -154 -67q-47 -47 -74.5 -125.5t-27.5 -152.5q0 -91 44 -151t137 -60zM470 829h109l-137 -118h-74z" />
    <glyph glyph-name="Ocircumflex" unicode="&#xd4;" horiz-adv-x="668" 
d="M303 -11q-83 0 -142.5 39.5t-86 100t-26.5 134.5q0 91 34 181.5t94 149.5q44 42 103.5 66.5t122.5 24.5q128 0 191.5 -79t63.5 -197q0 -91 -32.5 -179.5t-90.5 -146.5q-94 -94 -231 -94zM316 59q87 0 154 67q46 46 73 125.5t27 153.5q0 40 -7.5 74t-26 66.5t-55.5 51
t-90 18.5q-85 0 -154 -67q-47 -47 -74.5 -125.5t-27.5 -152.5q0 -91 44 -151t137 -60zM402 828h65l80 -118h-68l-49 72h-2l-72 -72h-74z" />
    <glyph glyph-name="Otilde" unicode="&#xd5;" horiz-adv-x="668" 
d="M304 -11q-124 0 -190 79t-66 195q0 91 34 181.5t94 149.5q96 91 227 91q66 0 116 -22.5t79.5 -61.5t44 -87.5t14.5 -104.5q0 -90 -32 -179t-90 -147q-96 -94 -231 -94zM316 59q87 0 154 67q46 46 73 125.5t27 153.5q0 40 -7.5 74t-26 66.5t-55.5 51t-89 18.5
q-87 0 -154 -67q-47 -47 -75 -125.5t-28 -152.5q0 -91 44 -151t137 -60zM345 716h-47q8 45 30 72.5t52 27.5q28 0 60 -21q27 -18 44 -18q22 0 34 40h46q-17 -96 -83 -96q-27 0 -59 20q-32 19 -43 18q-23 0 -34 -43z" />
    <glyph glyph-name="Odieresis" unicode="&#xd6;" horiz-adv-x="668" 
d="M304 -11q-124 0 -190 79t-66 195q0 91 34 181.5t94 149.5q44 42 104 66.5t123 24.5q66 0 116 -22.5t79.5 -61.5t44 -87.5t14.5 -104.5q0 -90 -32 -179t-90 -147q-96 -94 -231 -94zM316 59q87 0 154 67q46 46 73 125.5t27 153.5q0 40 -7.5 74t-26 66.5t-55.5 51t-89 18.5
q-86 0 -155 -67q-47 -47 -74.5 -125.5t-27.5 -152.5q0 -91 44 -151t137 -60zM335 720q-19 0 -32.5 14t-13.5 34q0 22 15 37.5t37 15.5q21 0 34 -14.5t13 -33.5q0 -22 -15.5 -37.5t-37.5 -15.5zM520 720q-19 0 -32.5 14t-13.5 34q0 22 15 37.5t37 15.5q21 0 34 -14.5
t13 -33.5q0 -22 -15.5 -37.5t-37.5 -15.5z" />
    <glyph glyph-name="multiply" unicode="&#xd7;" horiz-adv-x="596" 
d="M63 482l43 44l204 -222l205 222l43 -43l-207 -220l207 -219l-44 -44l-205 222l-205 -222l-41 45l205 218z" />
    <glyph glyph-name="Oslash" unicode="&#xd8;" horiz-adv-x="667" 
d="M64 -42l-41 39l77 88q-52 76 -52 183q0 89 32 173.5t89 143.5q98 100 232 100q105 0 166 -57l76 85l44 -36l-80 -91q49 -71 49 -176q0 -89 -32 -176.5t-87 -145.5q-44 -46 -105 -72.5t-125 -26.5q-102 0 -165 57zM159 155l358 413q-44 47 -125 47t-147 -61.5t-94 -156.5
q-39 -134 6 -242h2zM547 512l-354 -407q44 -46 126 -46q74 0 138 57.5t93 149.5q43 137 -1 246h-2z" />
    <glyph glyph-name="Ugrave" unicode="&#xd9;" horiz-adv-x="621" 
d="M158 674h83l-76 -399q-8 -45 -8 -85q0 -63 33.5 -96.5t91.5 -33.5q147 0 188 214l77 400h83l-77 -403q-55 -282 -282 -282q-88 0 -142.5 49.5t-54.5 149.5q0 46 9 93zM274 828h103l75 -117h-69z" />
    <glyph glyph-name="Uacute" unicode="&#xda;" horiz-adv-x="621" 
d="M158 674h83l-76 -399q-8 -45 -8 -85q0 -63 33.5 -96.5t91.5 -33.5q147 0 188 214l77 400h83l-77 -403q-55 -282 -282 -282q-88 0 -142.5 49.5t-54.5 149.5q0 46 9 93zM438 828h109l-137 -118h-73z" />
    <glyph glyph-name="Ucircumflex" unicode="&#xdb;" horiz-adv-x="621" 
d="M158 674h83l-76 -399q-8 -45 -8 -85q0 -63 33.5 -96.5t91.5 -33.5q147 0 188 214l77 400h83l-77 -403q-55 -282 -282 -282q-88 0 -142.5 49.5t-54.5 149.5q0 46 9 93zM391 828h64l80 -118h-67l-50 72h-2l-72 -72h-74z" />
    <glyph glyph-name="Udieresis" unicode="&#xdc;" horiz-adv-x="621" 
d="M158 674h83l-76 -399q-8 -45 -8 -85q0 -63 33.5 -96.5t91.5 -33.5q147 0 188 214l77 400h83l-78 -403q-53 -282 -281 -282q-88 0 -142.5 49.5t-54.5 149.5q0 46 9 93zM312 720q-19 0 -32.5 14t-13.5 34q0 22 15 37.5t37 15.5q20 0 33 -14.5t13 -33.5q0 -22 -15 -37.5
t-37 -15.5zM496 720q-19 0 -32.5 14t-13.5 34q0 22 15 37.5t37 15.5q21 0 34 -14.5t13 -33.5q0 -22 -15.5 -37.5t-37.5 -15.5z" />
    <glyph glyph-name="Yacute" unicode="&#xdd;" horiz-adv-x="517" 
d="M243 0h-82l53 280l-130 394h89l65 -218q20 -69 28 -113h2q41 68 72 116l146 215h97l-287 -393zM386 828h109l-137 -118h-73z" />
    <glyph glyph-name="Thorn" unicode="&#xde;" horiz-adv-x="507" 
d="M32 0l128 674h81l-25 -132q31 7 80 7q102 0 153 -52q45 -43 45 -113q0 -109 -81 -171t-195 -62q-39 0 -76 5l-29 -156h-81zM203 474l-47 -248q28 -6 70 -6q76 0 130 43t54 111q0 54 -36 81t-97 27q-46 0 -74 -8z" />
    <glyph glyph-name="germandbls" unicode="&#xdf;" horiz-adv-x="538" 
d="M112 0h-83l88 461q49 260 246 260q71 0 113.5 -40t42.5 -102q0 -31 -12.5 -61t-29.5 -46q-86 -32 -86 -93q0 -36 37 -84q51 -69 51 -130q0 -81 -56.5 -128.5t-140.5 -47.5q-61 0 -100 23l23 63q35 -20 77 -20q49 0 80.5 28t31.5 74q0 45 -37 92q-51 64 -51 113
q0 47 30.5 83t78.5 57q22 22 22 69q0 34 -21.5 58t-64.5 24q-55 0 -94 -46t-55 -134z" />
    <glyph glyph-name="agrave" unicode="&#xe0;" horiz-adv-x="522" 
d="M427 0h-78q0 33 11 125h-2q-70 -136 -188 -136q-63 0 -101 45t-38 115q0 87 38.5 164.5t117 129.5t179.5 52q70 0 131 -18l-50 -253q-24 -124 -20 -224zM375 276l28 146q-19 7 -57 7q-93 0 -161 -81t-68 -184q0 -107 83 -107q54 0 106 62.5t69 156.5zM227 686h94l66 -143
h-60z" />
    <glyph glyph-name="aacute" unicode="&#xe1;" horiz-adv-x="522" 
d="M427 0h-78q0 33 11 125h-2q-70 -136 -188 -136q-63 0 -101 45t-38 115q0 87 38.5 164.5t117 129.5t179.5 52q70 0 131 -18l-50 -253q-24 -124 -20 -224zM375 276l28 146q-19 7 -57 7q-93 0 -161 -81t-68 -184q0 -107 83 -107q54 0 106 62.5t69 156.5zM396 686h100
l-133 -143h-66z" />
    <glyph glyph-name="acircumflex" unicode="&#xe2;" horiz-adv-x="522" 
d="M427 0h-78q0 33 11 125h-2q-70 -136 -188 -136q-63 0 -101 45t-38 115q0 87 38.5 164.5t117 129.5t179.5 52q70 0 131 -18l-50 -253q-24 -124 -20 -224zM375 276l28 146q-19 7 -57 7q-93 0 -161 -81t-68 -184q0 -107 83 -107q54 0 106 62.5t69 156.5zM330 686h59l69 -143
h-62l-43 91h-2l-70 -91h-67z" />
    <glyph glyph-name="atilde" unicode="&#xe3;" horiz-adv-x="522" 
d="M427 0h-78q0 33 11 125h-2q-70 -136 -188 -136q-63 0 -101 45t-38 115q0 87 38.5 164.5t117 129.5t179.5 52q70 0 131 -18l-50 -253q-24 -124 -20 -224zM375 276l28 146q-19 7 -57 7q-93 0 -161 -81t-68 -184q0 -107 83 -107q54 0 106 62.5t69 156.5zM259 568h-48
q5 45 25.5 72.5t51.5 27.5q22 0 61 -22q26 -17 40 -17q13 0 19.5 8.5t10.5 33.5h47q-12 -96 -77 -96q-27 0 -59 20q-26 18 -42 18q-20 0 -29 -45z" />
    <glyph glyph-name="adieresis" unicode="&#xe4;" horiz-adv-x="522" 
d="M427 0h-78q0 33 11 125h-2q-70 -136 -188 -136q-63 0 -101 45t-38 115q0 87 38.5 164.5t117 129.5t179.5 52q70 0 131 -18l-50 -253q-24 -124 -20 -224zM375 276l28 146q-19 7 -57 7q-93 0 -161 -81t-68 -184q0 -107 83 -107q54 0 106 62.5t69 156.5zM245 570
q-20 0 -33.5 14t-13.5 35q0 22 15 37.5t37 15.5q21 0 34 -14t13 -35q0 -22 -14.5 -37.5t-37.5 -15.5zM427 570q-20 0 -33 14t-13 35q0 22 15 37.5t37 15.5q21 0 34 -14t13 -35q0 -22 -15 -37.5t-38 -15.5z" />
    <glyph glyph-name="aring" unicode="&#xe5;" horiz-adv-x="522" 
d="M427 0h-78q0 33 11 125h-2q-70 -136 -188 -136q-63 0 -101 45t-38 115q0 87 38.5 164.5t117 129.5t179.5 52q70 0 131 -18l-50 -253q-24 -124 -20 -224zM375 276l28 146q-19 7 -58 7q-92 0 -160 -81t-68 -184q0 -107 83 -107q54 0 106 62.5t69 156.5zM345 721
q41 0 68 -25t27 -67q-1 -42 -31.5 -68.5t-72.5 -26.5q-41 0 -68 24.5t-28 63.5q-1 43 29 71t76 28zM340 683q-22 0 -36 -16.5t-14 -41.5q0 -22 13.5 -37.5t34.5 -15.5q22 0 37 16.5t15 42.5q0 22 -13.5 37t-36.5 15z" />
    <glyph glyph-name="ae" unicode="&#xe6;" horiz-adv-x="718" 
d="M630 89l11 -60q-65 -40 -159 -40q-58 0 -100 28t-58 79h-2q-29 -50 -77.5 -78.5t-105.5 -28.5q-62 0 -97 35.5t-36 88.5q0 94 88.5 144t226.5 45l3 19q7 42 -14.5 76.5t-77.5 34.5q-67 0 -126 -40l-17 56q71 47 153 47q58 0 94 -26.5t44 -75.5h3q30 49 79 75.5t104 26.5
q66 0 102.5 -34.5t36.5 -81.5q0 -49 -25 -80.5t-72.5 -45.5t-99.5 -18.5t-124 -1.5q-12 -69 5 -112q27 -65 110 -65q67 0 131 33zM301 189l10 54q-36 2 -71 -2.5t-70.5 -16t-57.5 -37.5t-22 -63q0 -32 19.5 -50.5t51.5 -18.5q48 0 88 35t52 99zM623 373q0 24 -19 41t-52 17
q-58 0 -100.5 -43.5t-56.5 -93.5q45 -3 86 -0.5t73 9t50.5 24.5t18.5 46z" />
    <glyph glyph-name="ccedilla" unicode="&#xe7;" horiz-adv-x="423" 
d="M352 84l8 -64q-54 -26 -106 -29l-31 -41q54 -14 54 -65q0 -39 -32 -62.5t-76 -23.5q-42 0 -67 17l19 43q23 -14 52 -14q18 0 30.5 9.5t12.5 26.5q0 33 -66 39l51 71q-83 5 -125 57.5t-42 127.5q0 128 84.5 223t211.5 95q64 0 101 -22l-24 -65q-38 18 -82 18
q-90 0 -147.5 -73.5t-57.5 -165.5q0 -59 31 -94t89 -35q51 0 112 27z" />
    <glyph glyph-name="egrave" unicode="&#xe8;" horiz-adv-x="453" 
d="M365 89l12 -62q-68 -38 -160 -38q-91 0 -137.5 54.5t-46.5 140.5q0 74 32.5 145t94.5 118.5t137 47.5q67 0 104.5 -35t37.5 -90q0 -162 -322 -157q-3 -15 -0.5 -44t10.5 -48q28 -65 108 -65q68 0 130 33zM359 369q0 29 -20 45t-54 16q-56 0 -99 -45.5t-60 -107.5
q233 -4 233 92zM190 686h94l66 -143h-60z" />
    <glyph glyph-name="eacute" unicode="&#xe9;" horiz-adv-x="453" 
d="M365 89l12 -62q-68 -38 -160 -38q-91 0 -137.5 54.5t-46.5 140.5q0 74 32.5 145t94.5 118.5t137 47.5q67 0 104.5 -35t37.5 -90q0 -162 -322 -157q-3 -15 -0.5 -44t10.5 -48q28 -65 108 -65q68 0 130 33zM359 369q0 29 -20 45t-54 16q-56 0 -99 -45.5t-60 -107.5
q233 -4 233 92zM351 686h99l-133 -143h-65z" />
    <glyph glyph-name="ecircumflex" unicode="&#xea;" horiz-adv-x="453" 
d="M365 89l12 -62q-68 -38 -160 -38q-91 0 -137.5 54.5t-46.5 140.5q0 74 32.5 145t94.5 118.5t137 47.5q67 0 104.5 -35t37.5 -90q0 -162 -322 -157q-3 -15 -0.5 -44t10.5 -48q28 -65 108 -65q68 0 130 33zM359 369q0 29 -20 45t-54 16q-56 0 -99 -45.5t-60 -107.5
q233 -4 233 92zM296 686h59l69 -143h-62l-43 91h-2l-70 -91h-67z" />
    <glyph glyph-name="edieresis" unicode="&#xeb;" horiz-adv-x="453" 
d="M365 89l12 -62q-68 -38 -160 -38q-91 0 -137.5 54.5t-46.5 140.5q0 74 32.5 145t94.5 118.5t137 47.5q67 0 104.5 -35t37.5 -90q0 -162 -322 -157q-3 -15 -0.5 -44t10.5 -48q28 -65 108 -65q68 0 130 33zM359 369q0 29 -20 45t-54 16q-56 0 -99 -45.5t-60 -107.5
q233 -4 233 92zM221 570q-20 0 -33.5 14t-13.5 35q0 22 15 37.5t37 15.5q21 0 34 -14t13 -35q0 -22 -14.5 -37.5t-37.5 -15.5zM403 570q-20 0 -33 14t-13 35q0 22 15 37.5t37 15.5q21 0 34 -14t13 -35q0 -22 -15 -37.5t-38 -15.5z" />
    <glyph glyph-name="igrave" unicode="&#xec;" horiz-adv-x="229" 
d="M111 0h-83l92 484h83zM50 686h94l66 -143h-60z" />
    <glyph glyph-name="iacute" unicode="&#xed;" horiz-adv-x="229" 
d="M111 0h-83l93 484h82zM223 686h100l-133 -143h-66z" />
    <glyph glyph-name="icircumflex" unicode="&#xee;" horiz-adv-x="229" 
d="M111 0h-83l92 484h83zM161 686h59l69 -143h-62l-43 91h-2l-69 -91h-68z" />
    <glyph glyph-name="idieresis" unicode="&#xef;" horiz-adv-x="229" 
d="M111 0h-83l92 484h83zM89 570q-20 0 -33.5 14t-13.5 35q0 22 15 37.5t37 15.5q21 0 34 -14t13 -35q0 -22 -14.5 -37.5t-37.5 -15.5zM271 570q-20 0 -33 14t-13 35q0 22 15 37.5t37 15.5q21 0 34 -14t13 -35q0 -22 -15 -37.5t-38 -15.5z" />
    <glyph glyph-name="eth" unicode="&#xf0;" horiz-adv-x="516" 
d="M228 55q72 0 120.5 73.5t50.5 170.5q2 47 -15 74q-30 48 -92 48q-74 0 -123.5 -73t-49.5 -162q0 -56 28.5 -93.5t80.5 -37.5zM165 507l-17 42l128 59q-35 35 -89 62l39 49q60 -27 121 -79l130 58l18 -42l-112 -51q103 -113 103 -269q0 -154 -78 -250.5t-186 -96.5
q-93 0 -141 57t-48 138q0 121 74.5 210t180.5 90q71 0 105 -48l3 2q-27 79 -85 137z" />
    <glyph glyph-name="ntilde" unicode="&#xf1;" horiz-adv-x="534" 
d="M111 0h-82l64 343q14 68 23 141h74l-12 -95h2q32 51 79 78.5t100 27.5q50 0 86.5 -32t36.5 -102q0 -31 -9 -78l-54 -283h-82l53 280q6 38 6 62q0 84 -76 84q-48 0 -98.5 -53t-66.5 -138zM252 568h-48q5 45 25.5 72.5t51.5 27.5q22 0 62 -22q26 -17 40 -17q13 0 19.5 8.5
t10.5 33.5h47q-12 -96 -77 -96q-26 0 -60 20q-26 18 -42 18q-20 0 -29 -45z" />
    <glyph glyph-name="ograve" unicode="&#xf2;" horiz-adv-x="522" 
d="M224 -11q-88 0 -138.5 57t-50.5 142q0 124 76.5 215.5t191.5 91.5q92 0 141 -59t49 -142q0 -119 -76 -212t-193 -93zM235 55q71 0 121.5 75t50.5 164q0 52 -27 93.5t-86 41.5q-74 0 -123.5 -74.5t-49.5 -163.5q0 -60 31 -98t83 -38zM196 686h94l66 -143h-59z" />
    <glyph glyph-name="oacute" unicode="&#xf3;" horiz-adv-x="522" 
d="M224 -11q-88 0 -138.5 57t-50.5 142q0 124 76.5 215.5t191.5 91.5q92 0 141 -59t49 -142q0 -119 -76 -212t-193 -93zM235 55q71 0 121.5 75t50.5 164q0 52 -27 93.5t-86 41.5q-74 0 -123.5 -74.5t-49.5 -163.5q0 -60 31 -98t83 -38zM367 686h99l-133 -143h-65z" />
    <glyph glyph-name="ocircumflex" unicode="&#xf4;" horiz-adv-x="522" 
d="M224 -11q-88 0 -138.5 57t-50.5 142q0 124 76.5 215.5t191.5 91.5q92 0 141 -59t49 -142q0 -119 -76 -212t-193 -93zM235 55q71 0 121.5 75t50.5 164q0 52 -27 93.5t-86 41.5q-74 0 -123.5 -74.5t-49.5 -163.5q0 -60 31 -98t83 -38zM313 686h60l68 -143h-62l-42 91h-2
l-70 -91h-68z" />
    <glyph glyph-name="otilde" unicode="&#xf5;" horiz-adv-x="522" 
d="M224 -11q-88 0 -138.5 57t-50.5 142q0 124 76.5 215.5t191.5 91.5q92 0 141 -59t49 -142q0 -119 -76 -212t-193 -93zM235 55q71 0 121.5 75t50.5 164q0 52 -27 93.5t-86 41.5q-74 0 -123.5 -74.5t-49.5 -163.5q0 -60 31 -98t83 -38zM238 568h-48q5 45 25.5 72.5
t51.5 27.5q23 0 61 -22q28 -17 40 -17q13 0 19.5 8.5t10.5 33.5h47q-12 -96 -77 -96q-27 0 -59 20q-26 18 -42 18q-20 0 -29 -45z" />
    <glyph glyph-name="odieresis" unicode="&#xf6;" horiz-adv-x="522" 
d="M224 -11q-88 0 -138.5 57t-50.5 142q0 124 76.5 215.5t191.5 91.5q92 0 141 -59t49 -142q0 -119 -76 -212t-193 -93zM235 55q71 0 121.5 75t50.5 164q0 52 -27 93.5t-86 41.5q-74 0 -123.5 -74.5t-49.5 -163.5q0 -60 31 -98t83 -38zM239 570q-20 0 -33.5 14t-13.5 35
q0 22 15 37.5t37 15.5q21 0 34 -14t13 -35q0 -22 -14.5 -37.5t-37.5 -15.5zM421 570q-20 0 -33 14t-13 35q0 22 15 37.5t37 15.5q21 0 34 -14t13 -35q0 -22 -15 -37.5t-38 -15.5z" />
    <glyph glyph-name="divide" unicode="&#xf7;" horiz-adv-x="596" 
d="M305 386q-23 0 -37.5 15.5t-14.5 39.5q0 25 15 40.5t38 15.5q24 0 38.5 -15.5t14.5 -40.5q0 -24 -15 -39.5t-39 -15.5zM556 237h-500v59h500v-59zM305 36q-23 0 -37.5 15.5t-14.5 39.5q0 25 15 40.5t38 15.5q24 0 38.5 -15.5t14.5 -40.5q0 -24 -15 -39.5t-39 -15.5z" />
    <glyph glyph-name="oslash" unicode="&#xf8;" horiz-adv-x="523" 
d="M52 -38l-30 30l56 65q-43 53 -43 137q0 120 76.5 210.5t189.5 90.5q71 0 116 -35l55 61l33 -29l-55 -63q43 -57 43 -133q0 -126 -77.5 -216.5t-183.5 -90.5q-78 0 -123 39zM139 125l230 277q-27 29 -77 29q-74 0 -123 -73t-49 -154q0 -49 17 -79h2zM390 359l-232 -275
q29 -31 81 -31q65 0 116.5 71t52.5 157q0 42 -15 78h-3z" />
    <glyph glyph-name="ugrave" unicode="&#xf9;" horiz-adv-x="526" 
d="M417 484h83l-65 -343q-11 -56 -22 -141h-74l12 91h-2q-33 -48 -77.5 -75t-92.5 -27q-54 0 -91 32t-37 108q0 34 9 82l53 273h82l-51 -270q-8 -43 -8 -71q0 -84 77 -84q48 0 95.5 50.5t61.5 126.5zM196 686h93l66 -143h-59z" />
    <glyph glyph-name="uacute" unicode="&#xfa;" horiz-adv-x="526" 
d="M417 484h83l-65 -343q-11 -56 -22 -141h-74l12 91h-2q-33 -48 -77.5 -75t-92.5 -27q-54 0 -91 32t-37 108q0 34 9 82l53 273h82l-51 -270q-8 -43 -8 -71q0 -84 77 -84q48 0 95.5 50.5t61.5 126.5zM361 686h99l-132 -143h-65z" />
    <glyph glyph-name="ucircumflex" unicode="&#xfb;" horiz-adv-x="526" 
d="M417 484h83l-65 -343q-11 -56 -22 -141h-75l13 91h-2q-32 -47 -77.5 -74.5t-92.5 -27.5q-54 0 -91 32t-37 108q0 34 9 82l53 273h82l-51 -270q-8 -43 -8 -71q0 -84 77 -84q48 0 95.5 50.5t61.5 126.5zM315 686h60l68 -143h-62l-42 91h-2l-70 -91h-67z" />
    <glyph glyph-name="udieresis" unicode="&#xfc;" horiz-adv-x="526" 
d="M417 484h83l-65 -343q-11 -56 -22 -141h-74l12 91h-2q-33 -48 -77.5 -75t-92.5 -27q-54 0 -91 32t-37 108q0 34 9 82l53 273h82l-51 -270q-8 -43 -8 -71q0 -84 77 -84q48 0 95.5 50.5t61.5 126.5zM237 570q-20 0 -33.5 14t-13.5 35q0 22 15 37.5t37 15.5q21 0 34 -14
t13 -35q0 -22 -14.5 -37.5t-37.5 -15.5zM419 570q-20 0 -33 14t-13 35q0 22 15 37.5t37 15.5q21 0 34 -14t13 -35q0 -22 -15 -37.5t-38 -15.5z" />
    <glyph glyph-name="yacute" unicode="&#xfd;" horiz-adv-x="441" 
d="M48 484h86l48 -260q14 -73 22 -128h2q30 71 52 119l124 269h88l-182 -368q-88 -176 -167 -254q-36 -37 -74.5 -57.5t-65.5 -26.5l-21 72q53 18 89 46q57 43 94 112q5 10 2 22zM321 686h99l-133 -143h-65z" />
    <glyph glyph-name="thorn" unicode="&#xfe;" horiz-adv-x="526" 
d="M-15 -198l164 868h83l-53 -273h2q65 98 167 98q73 0 111 -50t38 -126q0 -133 -83.5 -231.5t-200.5 -98.5q-65 0 -103 22h-3l-39 -209h-83zM146 216l-26 -136q32 -26 94 -26q78 0 137 80.5t59 177.5q0 46 -22 80t-69 34q-53 0 -103.5 -55.5t-69.5 -154.5z" />
    <glyph glyph-name="ydieresis" unicode="&#xff;" horiz-adv-x="441" 
d="M48 484h86l48 -260q14 -73 22 -128h2q30 71 52 119l124 269h88l-182 -368q-88 -176 -167 -254q-36 -37 -74.5 -57.5t-65.5 -26.5l-21 72q53 18 89 46q57 43 94 112q5 10 2 22zM189 570q-20 0 -33.5 14t-13.5 35q0 22 15 37.5t37 15.5q21 0 34 -14t13 -35
q0 -22 -14.5 -37.5t-37.5 -15.5zM371 570q-20 0 -33 14t-13 35q0 22 15 37.5t37 15.5q21 0 34 -14t13 -35q0 -22 -15 -37.5t-38 -15.5z" />
    <glyph glyph-name="Amacron" unicode="&#x100;" horiz-adv-x="568" 
d="M400 213h-232l-107 -213h-88l349 674h97l94 -674h-85zM198 279h196l-26 195q-8 66 -12 124h-2q-3 -6 -23 -52.5t-32 -70.5zM272 787h231l-10 -54h-231z" />
    <glyph glyph-name="amacron" unicode="&#x101;" horiz-adv-x="522" 
d="M427 0h-78q0 33 11 125h-2q-70 -136 -188 -136q-63 0 -101 45t-38 115q0 87 38.5 164.5t117 129.5t179.5 52q70 0 131 -18l-50 -253q-24 -124 -20 -224zM375 276l28 146q-19 7 -57 7q-93 0 -161 -81t-68 -184q0 -107 83 -107q54 0 106 62.5t69 156.5zM236 646h219
l-10 -53h-219z" />
    <glyph glyph-name="Abreve" unicode="&#x102;" horiz-adv-x="568" 
d="M400 213h-232l-107 -213h-88l349 674h97l94 -674h-85zM198 279h196l-26 195q-8 66 -12 124h-2q-3 -6 -23 -52.5t-32 -70.5zM272 835h52q0 -54 61 -54q62 0 76 54h54q-8 -46 -42 -76t-91 -30q-62 0 -89 30t-21 76z" />
    <glyph glyph-name="abreve" unicode="&#x103;" horiz-adv-x="522" 
d="M427 0h-78q0 33 11 125h-2q-70 -136 -188 -136q-63 0 -101 45t-38 115q0 87 38.5 164.5t117 129.5t179.5 52q70 0 131 -18l-50 -253q-24 -124 -20 -224zM375 276l28 146q-19 7 -57 7q-93 0 -161 -81t-68 -184q0 -107 83 -107q54 0 106 62.5t69 156.5zM229 683h50
q-2 -29 13 -48.5t43 -19.5q61 0 80 68h52q-10 -55 -46 -88t-88 -33q-62 0 -86.5 35t-17.5 86z" />
    <glyph glyph-name="Aogonek" unicode="&#x104;" horiz-adv-x="568" 
d="M419 674l94 -674h-33q-54 -61 -54 -107q0 -18 11 -29t29 -11q21 0 43 10l9 -44q-29 -25 -80 -25q-38 0 -59 20.5t-21 56.5q0 49 69 133l-27 209h-232l-107 -213h-88l349 674h97zM198 279h196l-26 195q-4 43 -12 124h-2q-3 -6 -23 -52.5t-32 -70.5z" />
    <glyph glyph-name="aogonek" unicode="&#x105;" horiz-adv-x="522" 
d="M497 477l-49 -253q-24 -124 -20 -224h-20q-58 -62 -58 -109q0 -17 10.5 -27.5t27.5 -10.5q23 0 45 10l9 -44q-29 -25 -80 -25q-38 0 -59 20.5t-21 56.5q0 10 2.5 20.5t5.5 19.5t9 19.5t10 18t11.5 17.5t11 14.5l10.5 13.5t8 10q2 47 11 121h-2q-71 -136 -188 -136
q-63 0 -101 45t-38 115q0 87 38.5 164.5t117 129.5t179.5 52q71 0 130 -18zM376 276l27 146q-19 7 -57 7q-92 0 -160 -81t-68 -184q0 -107 83 -107q54 0 105.5 62.5t69.5 156.5z" />
    <glyph glyph-name="Cacute" unicode="&#x106;" horiz-adv-x="555" 
d="M486 90l11 -68q-72 -32 -175 -32q-127 0 -200 75t-73 204q0 96 37.5 182t105.5 143q107 90 255 90q50 0 90 -10t56 -22l-27 -67q-45 27 -133 27q-112 0 -193 -75q-48 -45 -75.5 -112.5t-27.5 -143.5q0 -99 49.5 -159.5t155.5 -60.5q88 0 144 29zM461 832h109l-137 -118
h-73z" />
    <glyph glyph-name="cacute" unicode="&#x107;" horiz-adv-x="423" 
d="M353 85l8 -65q-58 -30 -140 -30q-90 0 -138 52.5t-48 134.5q0 128 84.5 222.5t211.5 94.5q64 0 101 -22l-24 -65q-38 18 -82 18q-90 0 -147.5 -73.5t-57.5 -164.5q0 -60 31 -94.5t89 -34.5q56 0 112 27zM345 686h100l-134 -143h-65z" />
    <glyph glyph-name="Ccircumflex" unicode="&#x108;" horiz-adv-x="555" 
d="M486 90l11 -68q-72 -32 -175 -32q-127 0 -200 75t-73 204q0 96 37.5 182t105.5 143q107 90 255 90q50 0 90 -10t56 -22l-27 -67q-45 27 -133 27q-112 0 -193 -75q-48 -45 -75.5 -112.5t-27.5 -143.5q0 -99 49.5 -159.5t155.5 -60.5q88 0 144 29zM400 829h65l80 -118h-68
l-49 72h-2l-72 -72h-74z" />
    <glyph glyph-name="ccircumflex" unicode="&#x109;" horiz-adv-x="423" 
d="M353 85l8 -65q-58 -30 -140 -30q-90 0 -138 52.5t-48 134.5q0 128 84.5 222.5t211.5 94.5q64 0 101 -22l-24 -65q-38 18 -82 18q-90 0 -147.5 -73.5t-57.5 -164.5q0 -60 31 -94.5t89 -34.5q56 0 112 27zM286 686h59l69 -143h-62l-43 91h-2l-70 -91h-67z" />
    <glyph glyph-name="Cdotaccent" unicode="&#x10a;" horiz-adv-x="555" 
d="M486 90l11 -68q-72 -32 -175 -32q-127 0 -200 75t-73 204q0 96 37.5 182t105.5 143q107 90 254 90q51 0 91 -10t55 -22l-26 -67q-45 27 -133 27q-112 0 -193 -75q-48 -45 -75.5 -112.5t-27.5 -143.5q0 -99 49.5 -159.5t155.5 -60.5q86 0 144 29zM430 722q-19 0 -33 14.5
t-14 34.5q0 21 15.5 37t36.5 16t34.5 -14.5t13.5 -34.5q0 -22 -15.5 -37.5t-37.5 -15.5z" />
    <glyph glyph-name="cdotaccent" unicode="&#x10b;" horiz-adv-x="423" 
d="M353 85l8 -65q-58 -30 -140 -30q-90 0 -138 52.5t-48 134.5q0 128 84.5 222.5t211.5 94.5q66 0 100 -22l-23 -65q-40 18 -82 18q-90 0 -147.5 -73.5t-57.5 -164.5q0 -60 31 -94.5t89 -34.5q56 0 112 27zM318 569q-20 0 -33 14t-13 35q0 23 15 38.5t37 15.5q21 0 34 -14
t13 -35q0 -24 -14.5 -39t-38.5 -15z" />
    <glyph glyph-name="Ccaron" unicode="&#x10c;" horiz-adv-x="555" 
d="M486 90l11 -68q-72 -32 -175 -32q-127 0 -200 75t-73 204q0 96 37.5 182t105.5 143q107 90 255 90q50 0 90 -10t56 -22l-27 -67q-45 27 -133 27q-112 0 -193 -75q-48 -45 -75.5 -112.5t-27.5 -143.5q0 -99 49.5 -159.5t155.5 -60.5q88 0 144 29zM446 714h-64l-80 118h69
l47 -72h3l72 72h74z" />
    <glyph glyph-name="ccaron" unicode="&#x10d;" horiz-adv-x="423" 
d="M353 85l8 -65q-58 -30 -140 -30q-90 0 -138 52.5t-48 134.5q0 128 84.5 222.5t211.5 94.5q64 0 101 -22l-24 -65q-38 18 -82 18q-90 0 -147.5 -73.5t-57.5 -164.5q0 -60 31 -94.5t89 -34.5q56 0 112 27zM331 543h-60l-70 143h63l43 -92h2l72 92h67z" />
    <glyph glyph-name="Dcaron" unicode="&#x10e;" horiz-adv-x="647" 
d="M33 3l125 663q75 13 168 13q170 0 248 -90q63 -65 63 -183q0 -93 -35.5 -177.5t-99.5 -139.5q-111 -94 -306 -94q-94 0 -163 8zM230 604l-102 -536q30 -4 87 -4q155 0 241 89q92 94 92 249q0 209 -226 209q-58 0 -92 -7zM404 710h-65l-80 118h70l47 -72h3l71 72h74z" />
    <glyph glyph-name="dcaron" unicode="&#x10f;" horiz-adv-x="534" 
d="M460 710h83l-107 -556q-16 -90 -20 -154h-76l13 96h-2q-68 -107 -174 -107q-68 0 -106.5 49.5t-38.5 126.5q0 132 86.5 231t212.5 99q50 0 86 -17zM371 239l32 169q-28 21 -79 21q-85 0 -145.5 -77t-60.5 -176q0 -51 21 -85t70 -34q50 0 98.5 51.5t63.5 130.5zM570 529
l-25 37q57 31 57 88q0 29 -20 49l63 14q26 -20 26 -61q0 -46 -30.5 -79.5t-70.5 -47.5z" />
    <glyph glyph-name="Dcroat" unicode="&#x110;" horiz-adv-x="654" 
d="M14 317l14 70h84l52 278q78 14 171 14q168 0 244 -88q64 -66 64 -184q0 -91 -37 -176t-103 -140q-114 -94 -301 -94q-99 0 -163 9l59 311h-84zM361 387l-14 -70h-166l-47 -246q30 -5 91 -5q146 0 234 90q45 45 70 111t25 137q0 96 -53.5 151.5t-171.5 55.5q-57 0 -93 -5
l-41 -219h166z" />
    <glyph glyph-name="dcroat" unicode="&#x111;" horiz-adv-x="525" 
d="M371 239l32 169q-28 21 -79 21q-85 0 -145.5 -77t-60.5 -176q0 -51 21 -85t70 -34q50 0 98.5 51.5t63.5 130.5zM246 606h195l19 104h82l-19 -104h80l-11 -53h-79l-77 -399q-16 -90 -20 -154h-76l13 96h-2q-68 -107 -174 -107q-68 0 -106.5 49.5t-38.5 126.5
q0 132 86.5 231t212.5 99q50 0 86 -17l14 75h-195z" />
    <glyph glyph-name="Emacron" unicode="&#x112;" horiz-adv-x="470" 
d="M433 387l-14 -70h-245l-46 -246h276l-14 -71h-359l128 674h344l-14 -71h-260l-41 -216h245zM231 787h231l-10 -54h-231z" />
    <glyph glyph-name="emacron" unicode="&#x113;" horiz-adv-x="453" 
d="M365 89l12 -62q-68 -38 -160 -38q-91 0 -137.5 54.5t-46.5 140.5q0 74 32.5 145t94.5 118.5t137 47.5q67 0 104.5 -35t37.5 -90q0 -162 -322 -157q-3 -15 -0.5 -44t10.5 -48q28 -65 108 -65q68 0 130 33zM359 369q0 29 -20 45t-54 16q-56 0 -99 -45.5t-60 -107.5
q233 -4 233 92zM197 646h219l-10 -53h-219z" />
    <glyph glyph-name="Ebreve" unicode="&#x114;" horiz-adv-x="470" 
d="M433 387l-14 -70h-245l-46 -246h275l-13 -71h-359l128 674h344l-14 -71h-260l-41 -216h245zM227 830h52q0 -54 61 -54q62 0 76 54h54q-8 -46 -42 -76t-92 -30q-61 0 -88 30t-21 76z" />
    <glyph glyph-name="ebreve" unicode="&#x115;" horiz-adv-x="453" 
d="M365 89l12 -62q-68 -38 -160 -38q-91 0 -137.5 54.5t-46.5 140.5q0 74 32.5 145t94.5 118.5t137 47.5q67 0 104.5 -35t37.5 -90q0 -162 -322 -157q-3 -15 -0.5 -44t10.5 -48q28 -65 108 -65q68 0 130 33zM359 369q0 29 -20 45t-54 16q-56 0 -99 -45.5t-60 -107.5
q233 -4 233 92zM194 683h50q-2 -29 12.5 -48.5t42.5 -19.5q61 0 80 68h52q-10 -55 -46 -88t-87 -33q-62 0 -87 35t-17 86z" />
    <glyph glyph-name="Edotaccent" unicode="&#x116;" horiz-adv-x="470" 
d="M433 387l-14 -70h-245l-46 -246h276l-14 -71h-359l129 674h343l-14 -71h-260l-41 -216h245zM340 720q-19 0 -33 14.5t-14 34.5q0 21 15.5 37t36.5 16t34.5 -14.5t13.5 -34.5q0 -22 -15.5 -37.5t-37.5 -15.5z" />
    <glyph glyph-name="edotaccent" unicode="&#x117;" horiz-adv-x="453" 
d="M365 89l12 -62q-68 -38 -160 -38q-91 0 -137.5 54.5t-46.5 140.5q0 74 32.5 145t94.5 118.5t137 47.5q67 0 104.5 -35t37.5 -90q0 -162 -322 -157q-3 -15 -0.5 -44t10.5 -48q28 -65 108 -65q68 0 130 33zM359 369q0 29 -20 45t-54 16q-56 0 -99 -45.5t-60 -107.5
q233 -4 233 92zM307 569q-20 0 -33 14t-13 35q0 23 15 38.5t37 15.5q21 0 34 -14t13 -35q0 -24 -14.5 -39t-38.5 -15z" />
    <glyph glyph-name="Eogonek" unicode="&#x118;" horiz-adv-x="470" 
d="M32 0l128 674h343l-14 -71h-260l-41 -216h245l-14 -70h-244l-47 -246h276l-14 -71h-17q-37 -24 -62 -56t-25 -60q0 -32 32 -32q23 0 45 10l12 -45q-35 -24 -82 -24q-35 0 -55.5 20t-20.5 51q0 39 28 75t63 61h-276z" />
    <glyph glyph-name="eogonek" unicode="&#x119;" horiz-adv-x="453" 
d="M359 369q0 29 -20 45t-54 16q-56 0 -99 -45.5t-59 -107.5q232 -4 232 92zM313 -130l10 -46q-36 -21 -81 -21q-36 0 -55.5 19.5t-19.5 52.5q0 64 72 115v1q-9 -1 -29 -1q-88 2 -132.5 56t-44.5 138q0 74 32.5 145t94.5 118.5t137 47.5q67 0 104.5 -35t37.5 -90
q0 -162 -322 -157q-3 -15 -0.5 -44t10.5 -48q30 -65 107 -65q69 0 131 33l12 -61q-6 -3 -36 -17q-105 -58 -105 -114q0 -36 32 -36q24 0 45 9z" />
    <glyph glyph-name="Ecaron" unicode="&#x11a;" horiz-adv-x="470" 
d="M433 387l-14 -70h-245l-46 -246h275l-13 -71h-359l128 674h344l-14 -71h-260l-42 -216h246zM363 710h-65l-80 118h69l47 -73h3l72 73h74z" />
    <glyph glyph-name="ecaron" unicode="&#x11b;" horiz-adv-x="453" 
d="M365 89l12 -62q-68 -38 -160 -38q-91 0 -137.5 54.5t-46.5 140.5q0 74 32.5 145t94.5 118.5t137 47.5q67 0 104.5 -35t37.5 -90q0 -162 -322 -157q-3 -15 -0.5 -44t10.5 -48q28 -65 108 -65q68 0 130 33zM359 369q0 29 -20 45t-54 16q-56 0 -99 -45.5t-60 -107.5
q233 -4 233 92zM319 543h-60l-69 143h62l43 -92h2l72 92h66z" />
    <glyph glyph-name="Gcircumflex" unicode="&#x11c;" horiz-adv-x="623" 
d="M588 352l-61 -323q-88 -36 -190 -36q-145 0 -220 84q-68 75 -68 196q0 86 34 168.5t97 139.5q116 100 278 100q105 0 159 -31l-28 -70q-55 29 -141 29q-122 0 -209 -82q-47 -44 -74 -111t-27 -136q0 -101 53 -158.5t162 -57.5q61 0 102 19l39 201h-137l13 68h218z
M420 828h65l80 -118h-68l-49 72h-2l-72 -72h-74z" />
    <glyph glyph-name="gcircumflex" unicode="&#x11d;" horiz-adv-x="524" 
d="M10 -175l23 65q49 -32 128 -32q66 0 110 39.5t64 132.5l16 73h-2q-64 -103 -168 -103q-70 0 -109 49.5t-39 118.5q0 129 86 228t221 99q84 0 156 -34l-75 -400q-29 -157 -97 -217q-63 -53 -169 -53q-94 0 -145 34zM374 250l31 162q-37 16 -80 16q-87 0 -146 -76t-59 -170
q-1 -48 20.5 -82t72.5 -34q52 0 99.5 56t61.5 128zM316 686h60l69 -143h-63l-42 91h-2l-70 -91h-67z" />
    <glyph glyph-name="Gbreve" unicode="&#x11e;" horiz-adv-x="623" 
d="M588 352l-61 -323q-88 -36 -190 -36q-145 0 -220 84q-68 75 -68 196q0 86 34 168.5t97 139.5q116 100 278 100q105 0 159 -31l-28 -70q-55 29 -141 29q-122 0 -209 -82q-47 -44 -74 -111t-27 -136q0 -101 53 -158.5t162 -57.5q61 0 102 19l39 201h-137l13 68h218z
M315 831h52q0 -54 61 -54q62 0 76 54h54q-8 -46 -42 -76t-91 -30q-61 0 -88.5 30t-21.5 76z" />
    <glyph glyph-name="gbreve" unicode="&#x11f;" horiz-adv-x="524" 
d="M10 -175l23 65q49 -32 128 -32q66 0 110 39.5t64 132.5l16 73h-2q-64 -103 -168 -103q-70 0 -109 49.5t-39 118.5q0 129 86 228t221 99q84 0 156 -34l-75 -400q-29 -157 -97 -217q-63 -53 -169 -53q-94 0 -145 34zM374 250l31 162q-37 16 -80 16q-87 0 -146 -76t-59 -170
q-1 -48 20.5 -82t72.5 -34q52 0 99.5 56t61.5 128zM230 683h51q-2 -29 12.5 -48.5t42.5 -19.5q33 0 52.5 19.5t26.5 48.5h52q-9 -55 -45 -88t-88 -33q-62 0 -86.5 35t-17.5 86z" />
    <glyph glyph-name="Gdotaccent" unicode="&#x120;" horiz-adv-x="623" 
d="M588 352l-61 -323q-88 -36 -190 -36q-145 0 -220 84q-68 75 -68 196q0 86 34 168.5t97 139.5q116 100 277 100q106 0 160 -31l-28 -70q-55 29 -141 29q-122 0 -209 -82q-47 -44 -74 -111t-27 -136q0 -101 53 -158.5t162 -57.5q61 0 102 19l39 201h-137l13 68h218z
M442 720q-19 0 -33 14.5t-14 34.5q0 21 15.5 37t36.5 16t34.5 -14.5t13.5 -34.5q0 -22 -15.5 -37.5t-37.5 -15.5z" />
    <glyph glyph-name="gdotaccent" unicode="&#x121;" horiz-adv-x="524" 
d="M10 -175l23 65q49 -32 128 -32q66 0 110 39.5t64 132.5l16 73h-2q-63 -103 -168 -103q-70 0 -109 49.5t-39 118.5q0 129 86 228t221 99q83 0 155 -34l-74 -400q-29 -157 -97 -217q-62 -53 -169 -53q-94 0 -145 34zM374 250l30 162q-34 16 -79 16q-87 0 -146 -76t-59 -170
q-1 -48 20.5 -82t72.5 -34q52 0 99.5 56t61.5 128zM336 569q-20 0 -33 14t-13 35q0 23 15 38.5t37 15.5q21 0 34 -14t13 -35q0 -24 -14.5 -39t-38.5 -15z" />
    <glyph glyph-name="Gcommaaccent" unicode="&#x122;" horiz-adv-x="623" 
d="M588 352l-61 -323q-88 -36 -190 -36q-145 0 -220 84q-68 75 -68 196q0 86 34 168.5t97 139.5q116 100 278 100q105 0 159 -31l-28 -70q-55 29 -141 29q-122 0 -209 -82q-47 -44 -74 -111t-27 -136q0 -101 53 -158.5t162 -57.5q61 0 102 19l39 201h-137l13 68h218z
M193 -221l-10 41q36 6 61.5 24.5t25.5 50.5q0 30 -24 50l66 13q28 -20 28 -59q0 -54 -43.5 -84.5t-103.5 -35.5z" />
    <glyph glyph-name="gcommaaccent" unicode="&#x123;" horiz-adv-x="524" 
d="M10 -175l23 65q49 -32 128 -32q66 0 110 39.5t64 132.5l16 73h-3q-63 -103 -167 -103q-70 0 -109 49.5t-39 118.5q0 129 86 228t221 99q83 0 155 -34l-74 -400q-29 -157 -97 -217q-62 -53 -169 -53q-94 0 -145 34zM373 250l31 162q-34 16 -79 16q-87 0 -146 -76t-59 -170
q-1 -48 20.5 -82t72.5 -34q52 0 99 56t61 128zM426 710l10 -42q-36 -5 -62 -24t-26 -51q0 -29 24 -49l-63 -14q-28 22 -28 60q0 54 43.5 84.5t101.5 35.5z" />
    <glyph glyph-name="Hcircumflex" unicode="&#x124;" horiz-adv-x="627" 
d="M159 674h83l-54 -284h310l54 284h83l-128 -674h-83l59 317h-309l-60 -317h-83zM392 828h64l80 -118h-67l-50 72h-2l-72 -72h-74z" />
    <glyph glyph-name="hcircumflex" unicode="&#x125;" horiz-adv-x="534" 
d="M111 0h-83l135 710h83l-60 -311h2q67 96 173 96q48 0 84 -31.5t36 -98.5q0 -43 -8 -81l-54 -284h-83l54 280q6 34 6 67q0 36 -18.5 57.5t-56.5 21.5q-50 0 -100.5 -52.5t-64.5 -130.5zM194 853h64l80 -118h-68l-49 72h-2l-72 -72h-74z" />
    <glyph glyph-name="Hbar" unicode="&#x126;" horiz-adv-x="627" 
d="M515 480h-310l-20 -103h310zM60 536h73l26 138h83l-26 -138h310l26 138h83l-26 -138h65l-11 -56h-65l-91 -480h-83l57 304h-310l-57 -304h-83l91 480h-73z" />
    <glyph glyph-name="hbar" unicode="&#x127;" horiz-adv-x="534" 
d="M57 606h87l19 104h83l-20 -104h185l-10 -53h-185l-30 -154h2q67 96 173 96q48 0 84 -31.5t36 -98.5q0 -43 -8 -81l-54 -284h-83l54 280q6 34 6 67q0 36 -18.5 57.5t-56.5 21.5q-50 0 -100.5 -52.5t-64.5 -130.5l-45 -243h-83l106 553h-87z" />
    <glyph glyph-name="Itilde" unicode="&#x128;" horiz-adv-x="233" 
d="M158 674h83l-128 -674h-83zM132 715h-47q8 45 30 72.5t52 27.5q27 0 60 -20q27 -18 44 -18q22 0 34 40h46q-17 -96 -83 -96q-26 0 -59 19q-32 19 -43 18q-23 0 -34 -43z" />
    <glyph glyph-name="itilde" unicode="&#x129;" horiz-adv-x="229" 
d="M112 0h-83l92 484h83zM110 568h-48q5 45 25.5 72.5t51.5 27.5q23 0 61 -22q28 -17 40 -17q13 0 19.5 8.5t10.5 33.5h47q-12 -96 -77 -96q-27 0 -59 20q-28 18 -42 18q-20 0 -29 -45z" />
    <glyph glyph-name="Imacron" unicode="&#x12a;" horiz-adv-x="233" 
d="M158 674h83l-128 -674h-83zM107 787h231l-10 -54h-231z" />
    <glyph glyph-name="imacron" unicode="&#x12b;" horiz-adv-x="229" 
d="M112 0h-83l92 484h83zM86 646h219l-10 -53h-219z" />
    <glyph glyph-name="Ibreve" unicode="&#x12c;" horiz-adv-x="233" 
d="M158 674h83l-128 -674h-83zM107 833h53q-1 -23 13.5 -38.5t46.5 -15.5q62 0 76 54h54q-8 -46 -42 -76t-91 -30q-61 0 -88.5 30t-21.5 76z" />
    <glyph glyph-name="ibreve" unicode="&#x12d;" horiz-adv-x="229" 
d="M111 0h-83l92 484h83zM82 683h50q-2 -29 12.5 -48.5t42.5 -19.5q61 0 80 68h52q-9 -55 -45 -88t-88 -33q-62 0 -87 35t-17 86z" />
    <glyph glyph-name="Iogonek" unicode="&#x12e;" horiz-adv-x="233" 
d="M241 674l-129 -674h-28q-54 -61 -54 -107q0 -18 11 -29t29 -11q21 0 43 10l9 -44q-29 -25 -80 -25q-38 0 -59 20.5t-21 56.5q0 10 2.5 20.5t5.5 19.5t9 19.5t10 18t11.5 17.5t11 14.5l10.5 13.5t8 10l128 670h83z" />
    <glyph glyph-name="iogonek" unicode="&#x12f;" horiz-adv-x="229" 
d="M183 571q-22 0 -35.5 15.5t-13.5 38.5q1 25 17.5 42t39.5 17t37.5 -15.5t14.5 -38.5q-1 -26 -17.5 -42.5t-42.5 -16.5zM204 484l-93 -484h-28q-54 -61 -54 -107q0 -18 11 -29t29 -11q21 0 43 10l9 -44q-29 -25 -80 -25q-38 0 -59 20.5t-21 56.5q0 10 2.5 20.5t5.5 19.5
t9 19.5t10 18t11.5 17.5t11 14.5l10.5 13.5t8 10l92 480h83z" />
    <glyph glyph-name="Idotaccent" unicode="&#x130;" horiz-adv-x="233" 
d="M158 674h83l-128 -674h-83zM217 720q-19 0 -33 14.5t-14 34.5q0 21 15.5 37t36.5 16t34.5 -14.5t13.5 -34.5q0 -22 -15.5 -37.5t-37.5 -15.5z" />
    <glyph glyph-name="dotlessi" unicode="&#x131;" horiz-adv-x="229" 
d="M111 0h-83l92 484h83z" />
    <glyph glyph-name="IJ" unicode="&#x132;" horiz-adv-x="597" 
d="M158 674h83l-128 -674h-83zM443 219l86 455h83l-88 -464q-22 -118 -74.5 -169.5t-147.5 -51.5q-66 0 -100 18l18 71q33 -15 85 -15q56 0 88.5 35t49.5 121z" />
    <glyph glyph-name="ij" unicode="&#x133;" horiz-adv-x="456" 
d="M111 0h-83l93 484h82zM183 566q-21 0 -34 14.5t-13 37.5q1 24 16.5 40t38.5 16q22 0 35.5 -14.5t13.5 -37.5q-1 -25 -16.5 -40.5t-40.5 -15.5zM354 484h83l-92 -482q-22 -120 -62 -164q-41 -47 -111 -47q-36 0 -55 6l10 65q12 -4 39 -4q34 0 57 27.5t36 98.5zM412 566
q-21 0 -34 14.5t-13 37.5q1 24 16.5 40t38.5 16q22 0 35.5 -14.5t13.5 -37.5q-1 -25 -16.5 -40.5t-40.5 -15.5z" />
    <glyph glyph-name="Jcircumflex" unicode="&#x134;" horiz-adv-x="364" 
d="M210 220l86 454h83l-88 -464q-22 -117 -74.5 -169t-147.5 -52q-66 0 -100 18l18 71q33 -15 85 -15q56 0 88.5 35t49.5 122zM331 828h65l80 -118h-68l-49 72h-2l-72 -72h-74z" />
    <glyph glyph-name="jcircumflex" unicode="&#x135;" horiz-adv-x="227" 
d="M126 484h82l-91 -483q-22 -119 -62 -163q-41 -47 -111 -47q-36 0 -55 6l10 65q12 -4 38 -4q34 0 57.5 27.5t36.5 98.5zM166 686h58l69 -143h-62l-42 94h-2l-70 -94h-67z" />
    <glyph glyph-name="Kcommaaccent" unicode="&#x136;" horiz-adv-x="515" 
d="M32 0l128 674h82l-62 -328l4 1q13 16 37.5 43t28.5 32l237 252h104l-284 -290l173 -384h-90l-147 331l-80 -75l-49 -256h-82zM115 -221l-10 42q35 5 61 24t26 51q0 29 -24 49l66 14q28 -20 28 -59q0 -55 -43.5 -85.5t-103.5 -35.5z" />
    <glyph glyph-name="kcommaaccent" unicode="&#x137;" horiz-adv-x="456" 
d="M111 0h-82l134 710h83l-85 -445h2q30 34 45 49l170 170h103l-211 -199l144 -285h-91l-116 239l-61 -55zM85 -221l-10 42q35 5 61 24t26 51q0 29 -24 49l66 14q28 -20 28 -59q0 -55 -43.5 -85.5t-103.5 -35.5z" />
    <glyph glyph-name="kgreenlandic" unicode="&#x138;" horiz-adv-x="456" 
d="M110 0h-82l92 484h83l-42 -219h2q19 23 45 49l170 170h103l-211 -199l144 -285h-91l-117 239l-61 -55z" />
    <glyph glyph-name="Lacute" unicode="&#x139;" horiz-adv-x="442" 
d="M31 0l128 674h83l-115 -602h272l-14 -72h-354zM280 828h109l-137 -118h-73z" />
    <glyph glyph-name="lacute" unicode="&#x13a;" horiz-adv-x="229" 
d="M112 0h-83l135 710h83zM261 860h109l-137 -118h-73z" />
    <glyph glyph-name="Lcommaaccent" unicode="&#x13b;" horiz-adv-x="442" 
d="M31 0l128 674h83l-115 -602h272l-14 -72h-354zM92 -221l-10 42q35 5 61 24t26 51q0 29 -24 49l66 14q28 -20 28 -59q0 -55 -43.5 -85.5t-103.5 -35.5z" />
    <glyph glyph-name="lcommaaccent" unicode="&#x13c;" horiz-adv-x="229" 
d="M112 0h-83l135 710h83zM-30 -221l-10 42q35 5 61 24t26 51q0 29 -24 49l66 14q28 -20 28 -59q0 -55 -43.5 -85.5t-103.5 -35.5z" />
    <glyph glyph-name="Lcaron" unicode="&#x13d;" horiz-adv-x="442" 
d="M31 0l128 674h83l-115 -602h272l-14 -72h-354zM287 499l-10 41q36 6 61.5 24.5t25.5 50.5q0 29 -24 49l66 14q28 -20 28 -59q0 -54 -43.5 -84.5t-103.5 -35.5z" />
    <glyph glyph-name="lcaron" unicode="&#x13e;" horiz-adv-x="236" 
d="M111 0h-83l136 710h83zM276 529l-26 36q56 32 56 89q0 29 -20 49l63 14q26 -20 26 -61q0 -49 -30.5 -82t-68.5 -45z" />
    <glyph glyph-name="Ldot" unicode="&#x13f;" horiz-adv-x="443" 
d="M31 0l128 674h83l-115 -602h272l-14 -72h-354zM336 316q-20 0 -33.5 14t-13.5 35t15 36.5t37 15.5q21 0 34.5 -14.5t13.5 -33.5q0 -22 -15.5 -37.5t-37.5 -15.5z" />
    <glyph glyph-name="ldot" unicode="&#x140;" horiz-adv-x="265" 
d="M111 0h-82l135 710h83zM268 314q-20 0 -32.5 13.5t-12.5 34.5q0 22 15 37.5t35 15.5t33 -14t13 -34q0 -23 -14 -38t-37 -15z" />
    <glyph glyph-name="Lslash" unicode="&#x141;" horiz-adv-x="448" 
d="M391 0h-354l51 270l-95 -62l13 68l95 61l64 337h83l-53 -278l142 93l-13 -69l-142 -92l-48 -256h271z" />
    <glyph glyph-name="lslash" unicode="&#x142;" horiz-adv-x="237" 
d="M116 0h-82l54 284l-76 -54l13 68l76 54l68 358h83l-56 -293l79 57l-13 -68l-79 -56z" />
    <glyph glyph-name="Nacute" unicode="&#x143;" horiz-adv-x="632" 
d="M109 0h-78l128 674h91l154 -382q35 -89 59 -188l2 1q6 91 29 211l68 358h78l-128 -674h-82l-154 381q-42 109 -62 194l-3 -1q-9 -82 -35 -222zM450 828h108l-136 -118h-74z" />
    <glyph glyph-name="nacute" unicode="&#x144;" horiz-adv-x="534" 
d="M111 0h-82l64 343q14 68 23 141h74l-12 -95h2q32 51 79 78.5t100 27.5q50 0 86.5 -32t36.5 -102q0 -31 -9 -78l-54 -283h-82l53 280q6 38 6 62q0 84 -76 84q-48 0 -98.5 -53t-66.5 -138zM381 686h100l-134 -143h-65z" />
    <glyph glyph-name="Ncommaaccent" unicode="&#x145;" horiz-adv-x="632" 
d="M109 0h-78l128 674h91l154 -382q35 -89 59 -188l2 1q6 88 28 211l69 358h78l-128 -674h-82l-154 381q-42 109 -62 194l-3 -1q-9 -82 -35 -222zM181 -221l-10 42q35 5 61 24t26 51q0 29 -24 49l66 14q28 -20 28 -59q0 -55 -43.5 -85.5t-103.5 -35.5z" />
    <glyph glyph-name="ncommaaccent" unicode="&#x146;" horiz-adv-x="534" 
d="M111 0h-82l64 343q14 68 23 141h74l-12 -95h2q32 51 79 78.5t100 27.5q50 0 86.5 -32t36.5 -102q0 -31 -9 -78l-54 -283h-82l53 280q6 38 6 62q0 84 -76 84q-48 0 -98.5 -53t-66.5 -138zM125 -221l-10 42q35 5 61 24t26 51q0 29 -24 49l66 14q28 -20 28 -59
q0 -55 -43.5 -85.5t-103.5 -35.5z" />
    <glyph glyph-name="Ncaron" unicode="&#x147;" horiz-adv-x="632" 
d="M109 0h-78l128 674h91l154 -382q35 -89 59 -188l2 1q6 91 29 211l68 358h78l-128 -674h-82l-154 381q-42 109 -62 194l-3 -1q-9 -82 -35 -222zM439 710h-65l-79 118h69l47 -72h3l71 72h74z" />
    <glyph glyph-name="ncaron" unicode="&#x148;" horiz-adv-x="534" 
d="M111 0h-82l64 343q14 68 23 141h74l-12 -95h2q32 51 79 78.5t100 27.5q50 0 86.5 -32t36.5 -102q0 -31 -9 -78l-54 -283h-82l53 280q6 38 6 62q0 84 -76 84q-48 0 -98.5 -53t-66.5 -138zM342 543h-60l-70 143h63l43 -92h2l72 92h67z" />
    <glyph glyph-name="napostrophe" unicode="&#x149;" horiz-adv-x="534" 
d="M111 0h-82l64 343q14 68 23 141h74l-12 -95h2q32 51 79 78.5t100 27.5q50 0 86.5 -32t36.5 -102q0 -31 -9 -78l-54 -283h-82l53 280q6 38 6 62q0 84 -76 84q-48 0 -98.5 -53t-66.5 -138zM77 545l-12 41q22 8 38.5 26.5t16.5 45.5q0 31 -23 52l63 14q28 -20 28 -61
q0 -52 -34.5 -82.5t-76.5 -35.5z" />
    <glyph glyph-name="Eng" unicode="&#x14a;" horiz-adv-x="632" 
d="M291 -196l-6 67q59 5 94.5 34.5t49.5 93.5l-153 382q-39 99 -62 194l-3 -1q-9 -82 -35 -222l-67 -352h-78l128 674h91l154 -382q35 -89 59 -188l2 2q6 90 29 210l68 358h78l-123 -647q-23 -123 -80 -171.5t-146 -51.5z" />
    <glyph glyph-name="eng" unicode="&#x14b;" horiz-adv-x="534" 
d="M208 -176l-8 69q60 9 95.5 43t51.5 119l43 225q6 38 6 62q0 84 -76 84q-48 0 -98.5 -53t-66.5 -138l-44 -235h-82l64 343q17 89 23 141h74l-12 -95h2q32 51 79 78.5t100 27.5q51 0 87 -32.5t36 -102.5q0 -30 -9 -77l-44 -231q-22 -117 -77 -168.5t-144 -59.5z" />
    <glyph glyph-name="Omacron" unicode="&#x14c;" horiz-adv-x="668" 
d="M303 -11q-83 0 -142.5 39.5t-86 100t-26.5 134.5q0 91 34 181.5t94 149.5q44 42 103.5 66.5t122.5 24.5q128 0 191.5 -79t63.5 -197q0 -91 -32.5 -179.5t-90.5 -146.5q-94 -94 -231 -94zM316 59q87 0 154 67q46 46 73 125.5t27 153.5q0 40 -7.5 74t-26 66.5t-55.5 51
t-90 18.5q-85 0 -154 -67q-47 -47 -74.5 -125.5t-27.5 -152.5q0 -91 44 -151t137 -60zM321 787h231l-10 -54h-231z" />
    <glyph glyph-name="omacron" unicode="&#x14d;" horiz-adv-x="522" 
d="M224 -11q-88 0 -138.5 57t-50.5 142q0 124 76.5 215.5t191.5 91.5q92 0 141 -59t49 -142q0 -119 -76 -212t-193 -93zM235 55q71 0 121.5 75t50.5 164q0 52 -27 93.5t-86 41.5q-74 0 -123.5 -74.5t-49.5 -163.5q0 -60 31 -98t83 -38zM233 646h219l-10 -53h-219z" />
    <glyph glyph-name="Obreve" unicode="&#x14e;" horiz-adv-x="668" 
d="M303 -11q-83 0 -142.5 39.5t-86 100t-26.5 134.5q0 91 34 181.5t94 149.5q44 42 103.5 66.5t122.5 24.5q128 0 191.5 -79t63.5 -197q0 -91 -32.5 -179.5t-90.5 -146.5q-94 -94 -231 -94zM316 59q87 0 154 67q46 46 73 125.5t27 153.5q0 40 -7.5 74t-26 66.5t-55.5 51
t-90 18.5q-85 0 -154 -67q-47 -47 -74.5 -125.5t-27.5 -152.5q0 -91 44 -151t137 -60zM321 834h53q-1 -23 13.5 -38.5t47.5 -15.5q61 0 75 54h55q-8 -46 -42 -76t-92 -30q-61 0 -88.5 30t-21.5 76z" />
    <glyph glyph-name="obreve" unicode="&#x14f;" horiz-adv-x="522" 
d="M224 -11q-88 0 -138.5 57t-50.5 142q0 124 76.5 215.5t191.5 91.5q92 0 141 -59t49 -142q0 -119 -76 -212t-193 -93zM235 55q71 0 121.5 75t50.5 164q0 52 -27 93.5t-86 41.5q-74 0 -123.5 -74.5t-49.5 -163.5q0 -60 31 -98t83 -38zM225 683h50q-2 -29 13 -48.5t43 -19.5
q33 0 52.5 20t26.5 48h52q-9 -55 -45 -88t-88 -33q-62 0 -86.5 35t-17.5 86z" />
    <glyph glyph-name="Ohungarumlaut" unicode="&#x150;" horiz-adv-x="668" 
d="M303 -11q-83 0 -142.5 39.5t-86 100t-26.5 134.5q0 91 34 181.5t94 149.5q44 42 103.5 66.5t122.5 24.5q128 0 191.5 -79t63.5 -197q0 -91 -32.5 -179.5t-90.5 -146.5q-94 -94 -231 -94zM316 59q87 0 154 67q46 46 73 125.5t27 153.5q0 40 -7.5 74t-26 66.5t-55.5 51
t-90 18.5q-85 0 -154 -67q-47 -47 -74.5 -125.5t-27.5 -152.5q0 -91 44 -151t137 -60zM397 828h95l-127 -113h-64zM544 828h96l-127 -113h-65z" />
    <glyph glyph-name="ohungarumlaut" unicode="&#x151;" horiz-adv-x="522" 
d="M224 -11q-88 0 -138.5 57t-50.5 142q0 124 76.5 215.5t191.5 91.5q92 0 141 -59t49 -142q0 -119 -76 -212t-193 -93zM235 55q71 0 121.5 75t50.5 164q0 52 -27 93.5t-86 41.5q-74 0 -123.5 -74.5t-49.5 -163.5q0 -60 31 -98t83 -38zM290 686h87l-125 -143h-56zM435 686
h87l-125 -143h-56z" />
    <glyph glyph-name="OE" unicode="&#x152;" horiz-adv-x="867" 
d="M799 71l-13 -71h-324q-11 0 -33.5 -1.5t-28.5 -1.5q-28 -4 -72 -4q-137 0 -209.5 80.5t-72.5 203.5q0 78 26.5 149.5t76 129t128.5 91.5t177 34q40 0 77 -3q56 -4 67 -4h300l-13 -71h-269l-41 -217h253l-13 -70h-253l-46 -245h283zM433 71l100 532q-32 8 -85 8
q-146 0 -230 -96.5t-84 -231.5q0 -98 53 -159t165 -61q38 0 81 8z" />
    <glyph glyph-name="oe" unicode="&#x153;" horiz-adv-x="800" 
d="M712 90l13 -61q-65 -40 -156 -40q-60 0 -102.5 29t-58.5 85h-2q-32 -56 -82 -85t-108 -29q-82 0 -132 57t-50 143q0 124 74.5 215t185.5 91q62 0 103.5 -32t55.5 -86h1q32 56 85 87t110 31q70 0 103.5 -36t33.5 -83q0 -33 -12.5 -59t-36 -43t-51.5 -28t-67 -16.5
t-73.5 -8t-78.5 -2.5q-11 -51 9 -98q29 -64 110 -64q66 0 126 33zM232 55q72 0 120 78.5t48 161.5q0 58 -25 96.5t-83 38.5q-75 0 -123.5 -73.5t-48.5 -163.5q0 -61 30.5 -99.5t81.5 -38.5zM707 371q0 27 -19.5 43.5t-54.5 16.5q-55 0 -96.5 -44.5t-58.5 -104.5
q39 0 67.5 1.5t61 7t53 14.5t34 26t13.5 40z" />
    <glyph glyph-name="Racute" unicode="&#x154;" horiz-adv-x="523" 
d="M31 0l127 664q61 15 147 15q108 0 161 -49q50 -44 50 -111q0 -71 -46.5 -124t-113.5 -72l-1 -2q67 -22 75 -135q12 -158 21 -186h-86q-7 25 -16 163q-4 69 -29.5 100t-76.5 31h-74l-55 -294h-83zM229 606l-47 -248h74q77 0 125 43.5t48 106.5q0 52 -35.5 78.5t-94.5 26.5
q-42 0 -70 -7zM377 828h109l-137 -118h-74z" />
    <glyph glyph-name="racute" unicode="&#x155;" horiz-adv-x="318" 
d="M111 0h-82l59 312q13 77 24 172h73q-8 -68 -13 -105h3q25 52 63 84t85 32q10 0 24 -2l-16 -82q-12 2 -23 2q-53 0 -97 -57t-60 -143zM279 686h100l-133 -143h-66z" />
    <glyph glyph-name="Rcommaaccent" unicode="&#x156;" horiz-adv-x="523" 
d="M31 0l127 664q61 15 147 15q108 0 161 -49q50 -44 50 -111q0 -71 -46.5 -124t-114.5 -72v-2q67 -23 75 -135q12 -158 21 -186h-86q-7 25 -16 163q-4 69 -29.5 100t-76.5 31h-74l-55 -294h-83zM229 606l-47 -248h74q77 0 125 43.5t48 106.5q0 52 -35.5 78.5t-94.5 26.5
q-44 0 -70 -7zM119 -221l-10 42q35 5 61 24t26 51q0 29 -24 49l66 14q28 -20 28 -59q0 -55 -43.5 -85.5t-103.5 -35.5z" />
    <glyph glyph-name="rcommaaccent" unicode="&#x157;" horiz-adv-x="318" 
d="M111 0h-82l59 312q13 77 24 172h73q-8 -68 -13 -105h3q25 52 63 84t85 32q10 0 24 -2l-16 -82q-12 2 -23 2q-53 0 -97 -57t-60 -143zM1 -221l-10 42q35 5 61 24t26 51q0 29 -24 49l66 14q28 -20 28 -59q0 -55 -43.5 -85.5t-103.5 -35.5z" />
    <glyph glyph-name="Rcaron" unicode="&#x158;" horiz-adv-x="523" 
d="M31 0l127 664q61 15 147 15q108 0 161 -49q50 -44 50 -111q0 -71 -46.5 -124t-113.5 -72l-1 -2q67 -22 75 -135q12 -158 21 -186h-86q-7 25 -16 163q-4 69 -29.5 100t-76.5 31h-74l-55 -294h-83zM229 606l-47 -248h74q77 0 125 43.5t48 106.5q0 52 -35.5 78.5t-94.5 26.5
q-42 0 -70 -7zM354 710h-65l-80 118h70l46 -72h4l71 72h74z" />
    <glyph glyph-name="rcaron" unicode="&#x159;" horiz-adv-x="318" 
d="M111 0h-82l59 312q13 77 24 172h73q-8 -68 -13 -105h3q25 52 63 84t85 32q10 0 24 -2l-16 -82q-12 2 -23 2q-53 0 -97 -57t-60 -143zM258 543h-59l-70 143h62l43 -92h3l71 92h67z" />
    <glyph glyph-name="Sacute" unicode="&#x15a;" horiz-adv-x="466" 
d="M12 36l30 68q64 -43 143 -43q60 0 103 34t43 92q0 73 -99 126q-134 73 -134 173q0 88 66 143t162 55q88 0 138 -35l-30 -68q-52 32 -117 32q-59 0 -96 -33t-37 -77q0 -39 24.5 -66.5t80.5 -58.5q65 -35 96.5 -78t31.5 -103q0 -90 -66 -149t-177 -59q-49 1 -95 14.5
t-67 32.5zM366 828h109l-137 -118h-73z" />
    <glyph glyph-name="sacute" unicode="&#x15b;" horiz-adv-x="373" 
d="M9 23l24 61q49 -30 104 -30q41 0 66.5 23t25.5 56q0 29 -15 48.5t-53 40.5q-87 48 -87 124q0 64 49.5 106.5t125.5 42.5q65 0 101 -24l-23 -63q-37 22 -84 22q-37 0 -61.5 -20.5t-24.5 -52.5q0 -25 16 -43.5t51 -37.5q90 -50 90 -127q0 -74 -52.5 -116.5t-131.5 -42.5
q-80 2 -121 33zM290 686h99l-132 -143h-66z" />
    <glyph glyph-name="Scircumflex" unicode="&#x15c;" horiz-adv-x="466" 
d="M12 36l30 68q64 -43 143 -43q60 0 103 34t43 92q0 73 -99 126q-134 73 -134 173q0 88 66 143t162 55q88 0 138 -35l-30 -68q-52 32 -117 32q-59 0 -96 -33t-37 -77q0 -39 24.5 -66.5t80.5 -58.5q65 -35 96.5 -78t31.5 -103q0 -90 -66 -149t-177 -59q-49 1 -95 14.5
t-67 32.5zM312 828h64l80 -118h-67l-49 72h-2l-73 -72h-73z" />
    <glyph glyph-name="scircumflex" unicode="&#x15d;" horiz-adv-x="373" 
d="M9 23l24 61q49 -30 104 -30q41 0 66.5 23t25.5 56q0 29 -15 48.5t-53 40.5q-87 48 -87 124q0 64 49.5 106.5t125.5 42.5q65 0 101 -24l-23 -63q-37 22 -84 22q-37 0 -61.5 -20.5t-24.5 -52.5q0 -25 16 -43.5t51 -37.5q90 -50 90 -127q0 -74 -52.5 -116.5t-131.5 -42.5
q-80 2 -121 33zM238 686h59l69 -143h-62l-43 91h-2l-69 -91h-68z" />
    <glyph glyph-name="Scedilla" unicode="&#x15e;" horiz-adv-x="466" 
d="M464 649l-30 -68q-52 32 -117 32q-59 0 -96 -33t-37 -77q0 -39 24.5 -66.5t80.5 -58.5q65 -35 96.5 -77.5t31.5 -102.5q0 -76 -47.5 -131.5t-130.5 -71.5l-34 -45q54 -14 54 -65q0 -40 -32 -63t-77 -23q-40 0 -65 17l18 44q23 -15 52 -15q18 0 31 9.5t13 26.5
q0 33 -66 39l49 70h-14q-40 0 -86 13t-70 33l30 68q64 -43 143 -43q60 0 103 34t43 92q0 39 -23 68.5t-76 57.5q-134 73 -134 173q0 88 66 143t162 55q88 0 138 -35z" />
    <glyph glyph-name="scedilla" unicode="&#x15f;" horiz-adv-x="373" 
d="M350 471l-23 -63q-37 22 -84 22q-37 0 -61.5 -20.5t-24.5 -52.5q0 -25 16 -43.5t51 -37.5q90 -50 90 -127q0 -60 -35.5 -100t-93.5 -53l-34 -46q24 -5 39 -22.5t15 -41.5q0 -40 -32 -63t-77 -23q-40 0 -65 17l18 42q23 -14 52 -14q18 0 31 9.5t13 26.5q0 33 -65 39l49 70
h-4q-33 0 -66 10t-50 23l24 61q49 -30 104 -30q41 0 66.5 23t25.5 56q0 29 -15 48.5t-53 40.5q-87 48 -87 124q0 64 49.5 106.5t125.5 42.5q65 0 101 -24z" />
    <glyph glyph-name="Scaron" unicode="&#x160;" horiz-adv-x="466" 
d="M12 36l30 68q64 -43 143 -43q60 0 103 34t43 92q0 73 -99 126q-134 73 -134 173q0 88 66 143t162 55q88 0 138 -35l-30 -68q-52 32 -117 32q-59 0 -96 -33t-37 -77q0 -39 24.5 -66.5t80.5 -58.5q65 -35 96.5 -78t31.5 -103q0 -90 -66 -149t-177 -59q-49 1 -95 14.5
t-67 32.5zM350 710h-65l-80 118h69l47 -72h3l72 72h74z" />
    <glyph glyph-name="scaron" unicode="&#x161;" horiz-adv-x="373" 
d="M9 23l24 61q49 -30 104 -30q41 0 66.5 23t25.5 56q0 29 -15 48.5t-53 40.5q-87 48 -87 124q0 64 49.5 106.5t125.5 42.5q65 0 101 -24l-23 -63q-37 22 -84 22q-37 0 -61.5 -20.5t-24.5 -52.5q0 -25 16 -43.5t51 -37.5q90 -50 90 -127q0 -74 -52.5 -116.5t-131.5 -42.5
q-80 2 -121 33zM275 543h-60l-70 143h63l43 -92h2l71 92h67z" />
    <glyph glyph-name="Tcommaaccent" unicode="&#x162;" horiz-adv-x="474" 
d="M148 0l114 602h-196l14 72h477l-14 -72h-198l-114 -602h-83zM90 -221l-10 42q35 5 61 24t26 51q0 29 -24 49l66 14q28 -20 28 -59q0 -55 -43.5 -85.5t-103.5 -35.5z" />
    <glyph glyph-name="tcommaaccent" unicode="&#x163;" horiz-adv-x="313" 
d="M155 574l87 26l-22 -116h116l-13 -65h-116l-44 -235q-10 -45 -10 -77q0 -47 46 -47q24 0 39 4l-4 -65q-22 -9 -64 -9q-52 0 -77 26.5t-25 67.5q0 35 11 90l47 245h-69l12 65h69zM21 -220l-10 41q36 6 61.5 24.5t25.5 50.5q0 31 -24 49l66 14q28 -20 28 -59
q0 -54 -43.5 -84.5t-103.5 -35.5z" />
    <glyph glyph-name="Tcaron" unicode="&#x164;" horiz-adv-x="474" 
d="M148 0l114 602h-197l14 72h478l-14 -72h-198l-114 -602h-83zM357 710h-65l-80 118h69l47 -73h3l72 73h74z" />
    <glyph glyph-name="tcaron" unicode="&#x165;" horiz-adv-x="313" 
d="M155 573l87 27l-22 -116h116l-13 -65h-116l-44 -235q-10 -45 -10 -77q0 -47 46 -47q24 0 39 4l-4 -65q-22 -9 -64 -9q-52 0 -77 26.5t-25 67.5q0 35 11 90l47 245h-69l12 65h69zM317 542l-18 40q51 20 51 71q0 30 -22 52l62 13q12 -8 20.5 -25.5t8.5 -36.5
q0 -48 -32 -77.5t-70 -36.5z" />
    <glyph glyph-name="Tbar" unicode="&#x166;" horiz-adv-x="474" 
d="M424 321h-132l-61 -321h-82l60 321h-125l11 58h125l43 223h-197l14 72h477l-14 -72h-198l-42 -223h132z" />
    <glyph glyph-name="tbar" unicode="&#x167;" horiz-adv-x="313" 
d="M44 303h59l23 116h-69l12 65h69l17 90l87 26l-22 -116h116l-13 -65h-116l-22 -116h93l-11 -52h-92l-14 -75q-8 -40 -8 -69q0 -47 46 -47q24 0 39 4l-4 -65q-22 -9 -64 -9q-52 0 -77 26.5t-25 67.5q0 35 11 90l14 77h-59z" />
    <glyph glyph-name="Utilde" unicode="&#x168;" horiz-adv-x="621" 
d="M158 674h83l-76 -399q-8 -45 -8 -85q0 -63 33.5 -96.5t91.5 -33.5q148 0 189 214l76 400h83l-77 -403q-53 -282 -282 -282q-88 0 -142.5 49.5t-54.5 149.5q0 46 9 93zM329 716h-47q8 45 30 72.5t52 27.5q29 0 60 -21q27 -18 44 -18q23 0 35 40h46q-17 -96 -83 -96
q-27 0 -60 20q-32 19 -43 18q-23 0 -34 -43z" />
    <glyph glyph-name="utilde" unicode="&#x169;" horiz-adv-x="526" 
d="M417 484h83l-65 -343q-11 -56 -22 -141h-74l12 91h-2q-33 -48 -77.5 -75t-92.5 -27q-54 0 -91 32t-37 108q0 34 9 82l53 273h82l-51 -270q-8 -43 -8 -71q0 -84 77 -84q48 0 95.5 50.5t61.5 126.5zM259 568h-48q5 45 25.5 72.5t51.5 27.5q22 0 61 -22q28 -17 40 -17
q13 0 19.5 8.5t10.5 33.5h47q-12 -96 -77 -96q-27 0 -59 20q-28 18 -42 18q-20 0 -29 -45z" />
    <glyph glyph-name="Umacron" unicode="&#x16a;" horiz-adv-x="621" 
d="M158 674h83l-76 -399q-8 -45 -8 -85q0 -63 33.5 -96.5t91.5 -33.5q147 0 188 214l77 400h83l-77 -403q-55 -282 -282 -282q-88 0 -142.5 49.5t-54.5 149.5q0 46 9 93zM300 787h231l-10 -54h-231z" />
    <glyph glyph-name="umacron" unicode="&#x16b;" horiz-adv-x="526" 
d="M417 484h83l-65 -343q-11 -56 -22 -141h-74l12 91h-2q-33 -48 -77.5 -75t-92.5 -27q-54 0 -91 32t-37 108q0 34 9 82l53 273h82l-51 -270q-8 -43 -8 -71q0 -84 77 -84q48 0 95.5 50.5t61.5 126.5zM227 646h218l-10 -53h-218z" />
    <glyph glyph-name="Ubreve" unicode="&#x16c;" horiz-adv-x="621" 
d="M158 674h83l-76 -399q-8 -45 -8 -85q0 -63 33.5 -96.5t91.5 -33.5q147 0 188 214l77 400h83l-77 -403q-55 -282 -282 -282q-88 0 -142.5 49.5t-54.5 149.5q0 46 9 93zM299 830h53q-1 -23 13.5 -38.5t47.5 -15.5q61 0 75 54h54q-7 -46 -41 -76t-92 -30q-61 0 -88.5 30
t-21.5 76z" />
    <glyph glyph-name="ubreve" unicode="&#x16d;" horiz-adv-x="526" 
d="M417 484h83l-65 -343q-11 -56 -22 -141h-74l12 91h-2q-33 -48 -77.5 -75t-92.5 -27q-54 0 -91 32t-37 108q0 34 9 82l53 273h82l-51 -270q-8 -43 -8 -71q0 -84 77 -84q48 0 95.5 50.5t61.5 126.5zM215 683h50q-2 -29 12.5 -48.5t42.5 -19.5q33 0 52.5 19.5t26.5 48.5h52
q-9 -55 -45 -88t-87 -33q-62 0 -86.5 35t-17.5 86z" />
    <glyph glyph-name="Uring" unicode="&#x16e;" horiz-adv-x="621" 
d="M158 674h83l-76 -399q-8 -45 -8 -85q0 -63 34 -96.5t92 -33.5q146 0 187 214l77 400h83l-77 -403q-55 -282 -282 -282q-88 0 -142.5 49.5t-54.5 149.5q0 46 9 93zM410 872q42 0 68 -24t26 -63q-1 -40 -30.5 -65t-72.5 -25q-41 0 -67 23t-27 60q-1 41 28 67.5t75 26.5z
M405 836q-21 0 -34 -16t-13 -40q0 -21 12.5 -35t32.5 -14q22 0 35.5 15.5t13.5 38.5q0 22 -12.5 36.5t-34.5 14.5z" />
    <glyph glyph-name="uring" unicode="&#x16f;" horiz-adv-x="526" 
d="M417 484h83l-65 -343q-11 -56 -22 -141h-74l12 91h-2q-33 -48 -77.5 -75t-92.5 -27q-54 0 -91 32t-37 108q0 34 9 82l53 273h82l-51 -270q-8 -43 -8 -71q0 -84 77 -84q48 0 95.5 50.5t61.5 126.5zM343 721q41 0 68 -25t27 -67q-1 -42 -31.5 -68.5t-71.5 -26.5t-68 24.5
t-28 63.5q-1 43 29 71t75 28zM339 683q-22 0 -36 -16.5t-14 -41.5q0 -22 13.5 -37.5t33.5 -15.5q23 0 37.5 16.5t14.5 42.5q0 22 -13 37t-36 15z" />
    <glyph glyph-name="Uhungarumlaut" unicode="&#x170;" horiz-adv-x="621" 
d="M158 674h83l-76 -399q-8 -45 -8 -85q0 -63 33.5 -96.5t91.5 -33.5q147 0 188 214l77 400h83l-77 -403q-55 -282 -282 -282q-88 0 -142.5 49.5t-54.5 149.5q0 46 9 93zM376 828h95l-127 -113h-64zM523 828h96l-127 -113h-65z" />
    <glyph glyph-name="uhungarumlaut" unicode="&#x171;" horiz-adv-x="526" 
d="M417 484h83l-65 -343q-11 -56 -22 -141h-74l12 91h-2q-33 -48 -77.5 -75t-92.5 -27q-54 0 -91 32t-37 108q0 34 9 82l53 273h82l-51 -270q-8 -43 -8 -71q0 -84 77 -84q48 0 95.5 50.5t61.5 126.5zM295 686h87l-125 -143h-55zM439 686h88l-125 -143h-56z" />
    <glyph glyph-name="Uogonek" unicode="&#x172;" horiz-adv-x="621" 
d="M366 -125l10 -48q-32 -19 -76 -19q-38 0 -59 19t-21 53q0 54 63 111q-4 0 -12.5 -0.5t-12.5 -0.5q-82 3 -133 52.5t-51 145.5q0 46 9 93l75 393h83l-76 -399q-8 -45 -8 -85q0 -63 34 -96.5t92 -33.5q147 0 188 214l76 400h83l-77 -403q-38 -197 -158 -255
q-36 -17 -60 -38q-46 -38 -46 -78q0 -33 34 -33q24 0 43 8z" />
    <glyph glyph-name="uogonek" unicode="&#x173;" horiz-adv-x="526" 
d="M500 484l-65 -343q-13 -73 -22 -141l-19 4q-54 -61 -54 -107q0 -18 11 -29t29 -11q21 0 43 10l9 -44q-29 -25 -80 -25q-38 0 -59 20.5t-21 56.5q0 10 2.5 20.5t5.5 19.5t9 19.5t10 18t11.5 17.5t11 14.5l10.5 13.5t8 10l11 83h-2q-33 -48 -77.5 -75t-92.5 -27
q-54 0 -91 32t-37 108q0 34 9 82l53 273h82l-51 -270q-8 -43 -8 -71q0 -84 77 -84q48 0 95.5 50.5t61.5 126.5l47 248h83z" />
    <glyph glyph-name="Wcircumflex" unicode="&#x174;" horiz-adv-x="829" 
d="M219 0h-89l-33 674h84l14 -404q2 -71 0 -176h2q28 76 70 171l187 409h88l14 -388q4 -111 2 -190h2q33 95 66 173l181 405h87l-312 -674h-88l-17 383q-5 92 2 194h-3q-40 -115 -68 -177zM493 828h64l80 -118h-68l-49 72h-2l-72 -72h-74z" />
    <glyph glyph-name="wcircumflex" unicode="&#x175;" horiz-adv-x="707" 
d="M61 484h82l17 -272q4 -58 2 -130h2q22 58 54 121l144 281h72l31 -276q8 -102 7 -126h3q15 49 45 123l131 279h84l-239 -484h-77l-32 263q-7 63 -7 129h-2q-43 -102 -56 -126l-139 -266h-77zM404 686h60l68 -143h-62l-42 91h-2l-70 -91h-68z" />
    <glyph glyph-name="Ycircumflex" unicode="&#x176;" horiz-adv-x="517" 
d="M243 0h-82l53 280l-130 394h89l65 -218q20 -69 28 -113h2q41 68 72 116l146 215h97l-287 -393zM322 828h64l80 -118h-68l-49 72h-2l-72 -72h-74z" />
    <glyph glyph-name="ycircumflex" unicode="&#x177;" horiz-adv-x="441" 
d="M48 484h86l48 -260q14 -73 22 -128h2q30 71 52 119l124 269h88l-182 -368q-88 -176 -167 -254q-36 -37 -74.5 -57.5t-65.5 -26.5l-21 72q53 18 89 46q57 43 94 112q5 10 2 22zM264 686h60l68 -143h-62l-42 91h-2l-70 -91h-68z" />
    <glyph glyph-name="Ydieresis" unicode="&#x178;" horiz-adv-x="517" 
d="M243 0h-82l53 280l-130 394h89l65 -218q20 -69 28 -113h2q41 67 73 116l146 215h97l-287 -393zM251 720q-19 0 -32.5 14t-13.5 34q0 22 15 37.5t37 15.5q21 0 34 -14.5t13 -33.5q0 -22 -15.5 -37.5t-37.5 -15.5zM436 720q-19 0 -32.5 14t-13.5 34q0 22 15 37.5t37 15.5
q21 0 34 -14.5t13 -33.5q0 -22 -15.5 -37.5t-37.5 -15.5z" />
    <glyph glyph-name="Zacute" unicode="&#x179;" horiz-adv-x="523" 
d="M-20 0l9 51l458 549l-1 3h-320l14 71h432l-11 -54l-454 -546l1 -3h354l-13 -71h-469zM408 828h109l-137 -118h-74z" />
    <glyph glyph-name="zacute" unicode="&#x17a;" horiz-adv-x="415" 
d="M-21 0l9 51l235 262q43 48 101 100v3h-248l14 68h347l-11 -55l-231 -258q-49 -53 -100 -100l-1 -3h269l-14 -68h-370zM319 686h100l-133 -143h-66z" />
    <glyph glyph-name="Zdotaccent" unicode="&#x17b;" horiz-adv-x="523" 
d="M-20 0l9 51l458 549l-1 3h-320l14 71h432l-11 -54l-454 -546l1 -3h354l-13 -71h-469zM358 720q-19 0 -33 14.5t-14 34.5q0 21 15.5 37t36.5 16t34.5 -14.5t13.5 -34.5q0 -22 -15.5 -37.5t-37.5 -15.5z" />
    <glyph glyph-name="zdotaccent" unicode="&#x17c;" horiz-adv-x="415" 
d="M-21 0l9 51l235 262q43 48 101 100v3h-248l14 68h347l-11 -55l-231 -258q-51 -56 -100 -100v-3h267l-13 -68h-370zM277 569q-20 0 -33 14t-13 35q0 23 15 38.5t37 15.5q21 0 34 -14t13 -35q0 -24 -14.5 -39t-38.5 -15z" />
    <glyph glyph-name="Zcaron" unicode="&#x17d;" horiz-adv-x="523" 
d="M-20 0l9 51l458 549l-1 3h-320l14 71h432l-11 -54l-454 -546l1 -3h354l-13 -71h-469zM391 710h-65l-80 118h70l47 -73h3l71 73h74z" />
    <glyph glyph-name="zcaron" unicode="&#x17e;" horiz-adv-x="415" 
d="M-21 0l9 51l235 262q43 48 101 100v3h-248l14 68h347l-11 -55l-231 -258q-49 -53 -100 -100l-1 -3h269l-14 -68h-370zM302 543h-60l-70 143h62l44 -92h2l72 92h66z" />
    <glyph glyph-name="florin" unicode="&#x192;" horiz-adv-x="492" 
d="M125 339l10 62h93l13 47q12 45 25.5 78.5t36.5 66.5t59 50.5t83 17.5q44 -1 67 -16l-23 -61q-28 11 -54 11q-81 0 -116 -152l-10 -42h116l-10 -62h-121l-51 -207q-27 -106 -69 -161t-120 -55q-49 0 -75 18l19 60q21 -12 56 -12q39 0 65 40t46 123l49 194h-89z" />
    <glyph glyph-name="Ohorn" unicode="&#x1a0;" horiz-adv-x="668" 
d="M648 741l69 11q11 -24 11 -64q0 -53 -32.5 -82t-84.5 -24q46 -67 46 -173q0 -91 -32 -179.5t-90 -146.5q-96 -94 -231 -94q-124 0 -190 79.5t-66 194.5q0 91 34 181t94 150q44 42 103.5 66.5t122.5 24.5q61 0 117 -23q8 -3 22 -10t22.5 -10.5t20 -6.5t22.5 -3q53 0 53 57
q0 23 -11 52zM392 615q-88 0 -154 -68q-48 -47 -75.5 -125t-27.5 -152q0 -91 44 -151t137 -60q87 0 154 67q46 46 73 125.5t27 153.5q0 40 -7.5 74t-26 66.5t-55.5 51t-89 18.5z" />
    <glyph glyph-name="ohorn" unicode="&#x1a1;" horiz-adv-x="524" 
d="M294 428q-74 0 -123.5 -74.5t-49.5 -162.5q0 -60 31 -98t83 -38q70 0 121 75t51 163q0 52 -27 93.5t-86 41.5zM494 553l66 13q8 -29 8 -57q0 -49 -28 -76.5t-77 -25.5q29 -47 29 -113q0 -119 -76 -212t-192 -93q-88 0 -138.5 57t-50.5 142q0 124 76.5 215.5t191.5 91.5
q48 0 83 -17q5 -2 15.5 -7t17 -8t17 -5.5t20.5 -2.5q47 0 47 49q0 25 -9 49z" />
    <glyph glyph-name="Uhorn" unicode="&#x1af;" horiz-adv-x="627" 
d="M620 623l-67 -352q-54 -282 -282 -282q-88 0 -142.5 49.5t-54.5 149.5q0 46 9 92l75 394h83l-76 -400q-8 -45 -8 -84q0 -64 33.5 -97.5t91.5 -33.5q147 0 188 214l77 401h69q60 0 60 55q0 19 -7 43l64 11q7 -22 7 -48q0 -109 -120 -112z" />
    <glyph glyph-name="uhorn" unicode="&#x1b0;" horiz-adv-x="535" 
d="M537 582l64 11q7 -24 7 -48q0 -51 -30 -81t-88 -31l-55 -292q-13 -73 -22 -141h-74l12 91h-2q-32 -47 -77.5 -74.5t-92.5 -27.5q-55 0 -91.5 32t-36.5 108q0 33 9 81l53 274h82l-51 -270q-8 -43 -8 -71q0 -84 77 -84q47 0 95 50t62 126l48 249h67q60 0 60 54q0 18 -8 44z
" />
    <glyph glyph-name="Aringacute" unicode="&#x1fa;" horiz-adv-x="568" 
d="M382 692q-40 0 -63 20.5t-23 52.5q0 35 27.5 59t69.5 24q37 0 60 -20.5t23 -53.5q0 -36 -26.5 -59t-67.5 -23zM384 729q21 0 34 12t13 31q0 17 -11.5 28.5t-31.5 11.5t-33 -13t-13 -31q0 -17 11.5 -28t30.5 -11zM461 946h107l-131 -80h-76zM401 213h-233l-107 -213h-88
l349 674h98l93 -674h-85zM198 279h197l-27 195q-1 10 -5 55.5t-6 68.5h-3q-3 -6 -23 -52.5t-32 -70.5z" />
    <glyph glyph-name="aringacute" unicode="&#x1fb;" horiz-adv-x="522" 
d="M427 0h-78q0 33 11 125h-2q-70 -136 -188 -136q-63 0 -101 45t-38 115q0 87 38.5 164.5t117 129.5t179.5 52q70 0 131 -18l-50 -253q-24 -124 -20 -224zM375 276l28 146q-21 7 -58 7q-92 0 -160 -81t-68 -184q0 -107 83 -107q54 0 105.5 62.5t69.5 156.5zM447 844h103
l-156 -112h-68zM364 709q41 0 67.5 -25t26.5 -67t-30.5 -68.5t-72.5 -26.5q-40 0 -67.5 25t-27.5 63q-1 43 29 71t75 28zM359 671q-22 0 -36 -16.5t-14 -42.5q0 -21 13.5 -36.5t34.5 -15.5q22 0 37 16.5t15 42.5q0 22 -13.5 37t-36.5 15z" />
    <glyph glyph-name="AEacute" unicode="&#x1fc;" horiz-adv-x="773" 
d="M37 0h-88l448 674h380l-14 -71h-251l-23 -218h238l-13 -70h-230l-26 -244h257l-13 -71h-329l24 238h-202zM238 307h165l21 195q7 76 12 109h-4q-34 -60 -64 -106zM587 828h109l-137 -118h-74z" />
    <glyph glyph-name="aeacute" unicode="&#x1fd;" horiz-adv-x="718" 
d="M630 89l11 -60q-65 -40 -159 -40q-58 0 -100 28t-58 79h-2q-29 -50 -77.5 -78.5t-105.5 -28.5q-62 0 -97 35.5t-36 88.5q0 94 88.5 144t226.5 45l3 19q7 42 -14.5 76.5t-77.5 34.5q-67 0 -126 -40l-17 56q71 47 153 47q58 0 94 -26.5t44 -75.5h3q30 49 79 75.5t104 26.5
q66 0 102.5 -34.5t36.5 -81.5q0 -49 -25 -80.5t-72.5 -45.5t-99.5 -18.5t-124 -1.5q-12 -69 5 -112q27 -65 110 -65q67 0 131 33zM301 189l10 54q-36 2 -71 -2.5t-70.5 -16t-57.5 -37.5t-22 -63q0 -32 19.5 -50.5t51.5 -18.5q48 0 88 35t52 99zM623 373q0 24 -19 41t-52 17
q-58 0 -100.5 -43.5t-56.5 -93.5q45 -3 86 -0.5t73 9t50.5 24.5t18.5 46zM469 686h99l-133 -143h-65z" />
    <glyph glyph-name="Oslashacute" unicode="&#x1fe;" horiz-adv-x="667" 
d="M64 -42l-41 39l77 88q-52 76 -52 183q0 89 32 173.5t89 143.5q98 100 232 100q105 0 166 -57l76 85l44 -36l-80 -91q49 -71 49 -176q0 -89 -32 -176.5t-87 -145.5q-44 -46 -105 -72.5t-125 -26.5q-102 0 -165 57zM159 155l358 413q-44 47 -125 47t-147 -61.5t-94 -156.5
q-39 -134 6 -242h2zM547 512l-354 -407q44 -46 126 -46q74 0 138 57.5t93 149.5q43 137 -1 246h-2zM469 832h109l-137 -118h-73z" />
    <glyph glyph-name="oslashacute" unicode="&#x1ff;" horiz-adv-x="523" 
d="M52 -38l-30 30l56 65q-43 53 -43 137q0 120 76.5 210.5t189.5 90.5q71 0 116 -35l55 60l33 -28l-55 -63q43 -57 43 -133q0 -126 -77.5 -216.5t-183.5 -90.5q-78 0 -123 39zM139 125l230 277q-27 29 -77 29q-74 0 -123 -73t-49 -154q0 -49 17 -79h2zM390 359l-232 -275
q29 -31 81 -31q65 0 116.5 71t52.5 157q0 42 -15 78h-3zM367 686h99l-133 -143h-65z" />
    <glyph glyph-name="Scommaaccent" unicode="&#x218;" horiz-adv-x="466" 
d="M12 36l30 68q64 -43 143 -43q60 0 103 34t43 92q0 73 -99 126q-134 73 -134 173q0 88 66 143t162 55q88 0 138 -35l-30 -68q-52 32 -117 32q-59 0 -96 -33t-37 -77q0 -39 24.5 -66.5t80.5 -58.5q65 -35 96.5 -78t31.5 -103q0 -90 -66 -149t-177 -59q-49 1 -95 14.5
t-67 32.5zM91 -221l-11 41q36 6 61.5 24.5t25.5 50.5q0 31 -24 49l66 14q28 -20 28 -59q0 -54 -43.5 -84.5t-102.5 -35.5z" />
    <glyph glyph-name="scommaaccent" unicode="&#x219;" horiz-adv-x="373" 
d="M9 23l24 61q49 -30 104 -30q41 0 66.5 23t25.5 56q0 29 -15 48.5t-53 40.5q-87 48 -87 124q0 64 49.5 106.5t125.5 42.5q65 0 101 -24l-23 -63q-37 22 -84 22q-37 0 -61.5 -20.5t-24.5 -52.5q0 -25 16 -43.5t51 -37.5q90 -50 90 -127q0 -74 -52.5 -116.5t-131.5 -42.5
q-80 2 -121 33zM44 -220l-11 41q36 6 61.5 24.5t25.5 50.5q0 31 -24 49l66 14q28 -20 28 -59q0 -54 -43.5 -84.5t-102.5 -35.5z" />
    <glyph glyph-name="uni021A" unicode="&#x21a;" horiz-adv-x="474" 
d="M148 0l114 602h-196l14 72h477l-14 -72h-198l-114 -602h-83zM90 -221l-10 42q35 5 61 24t26 51q0 29 -24 49l66 14q28 -20 28 -59q0 -55 -43.5 -85.5t-103.5 -35.5z" />
    <glyph glyph-name="uni021B" unicode="&#x21b;" horiz-adv-x="313" 
d="M155 574l87 26l-22 -116h116l-13 -65h-116l-44 -235q-10 -45 -10 -77q0 -47 46 -47q24 0 39 4l-4 -65q-22 -9 -64 -9q-52 0 -77 26.5t-25 67.5q0 35 11 90l47 245h-69l12 65h69zM21 -220l-10 41q36 6 61.5 24.5t25.5 50.5q0 31 -24 49l66 14q28 -20 28 -59
q0 -54 -43.5 -84.5t-103.5 -35.5z" />
    <glyph glyph-name="uni021C" unicode="&#x21c;" horiz-adv-x="465" 
d="M-7 -114l-7 67q152 18 251 84t99 165q0 46 -33 78t-99 32q-33 0 -88 -16l-10 58q96 21 164 68.5t68 112.5q0 38 -28.5 59.5t-70.5 21.5q-51 0 -121 -35l-16 56q80 48 167 48q71 0 115 -38t44 -95q0 -61 -42 -107.5t-105 -74.5v-3q61 -11 103 -52t42 -107
q0 -121 -117.5 -211t-315.5 -111z" />
    <glyph glyph-name="uni021D" unicode="&#x21d;" horiz-adv-x="393" 
d="M-55 -208l-6 66q31 3 62.5 9t82.5 21.5t89 36.5t66 58t28 83q0 41 -34 67.5t-90 25.5q-31 0 -82 -15l-9 59q214 53 214 155q0 31 -24 49.5t-67 18.5q-50 0 -116 -33l-16 54q80 48 163 48q64 0 104 -34.5t40 -83.5q0 -106 -129 -158v-3q56 -9 94 -47.5t38 -94.5
q0 -117 -116 -193.5t-292 -88.5z" />
    <glyph glyph-name="uni0232" unicode="&#x232;" horiz-adv-x="517" 
d="M243 0h-82l53 280l-130 394h89l65 -218q20 -69 28 -113h2q41 68 72 116l146 215h97l-287 -393zM248 787h231l-10 -54h-231z" />
    <glyph glyph-name="uni0233" unicode="&#x233;" horiz-adv-x="441" 
d="M48 484h86l48 -260q14 -73 22 -128h2q30 71 52 119l124 269h88l-182 -368q-88 -176 -167 -254q-36 -37 -74.5 -57.5t-65.5 -26.5l-21 72q53 18 89 46q57 43 94 112q5 10 2 22zM191 646h219l-10 -53h-219z" />
    <glyph glyph-name="circumflex" unicode="&#x2c6;" 
d="M245 686h59l69 -143h-62l-43 91h-2l-70 -91h-67z" />
    <glyph glyph-name="caron" unicode="&#x2c7;" 
d="M284 543h-59l-70 143h62l43 -92h3l71 92h67z" />
    <glyph glyph-name="uni02C9" unicode="&#x2c9;" 
d="M162 646h219l-10 -53h-219z" />
    <glyph glyph-name="breve" unicode="&#x2d8;" 
d="M159 683h50q-2 -29 13 -48.5t42 -19.5q61 0 80 68h52q-9 -55 -45 -88t-88 -33q-62 0 -86.5 35t-17.5 86z" />
    <glyph glyph-name="dotaccent" unicode="&#x2d9;" 
d="M261 569q-20 0 -33 14t-13 35q0 23 15 38.5t37 15.5q21 0 34 -14t13 -35q0 -24 -14.5 -39t-38.5 -15z" />
    <glyph glyph-name="ring" unicode="&#x2da;" horiz-adv-x="384" 
d="M272 721q41 0 68 -25t27 -67q-1 -42 -31.5 -68.5t-72.5 -26.5q-41 0 -68 24.5t-28 63.5q-1 43 29 71t76 28zM267 683q-22 0 -36 -16.5t-14 -41.5q0 -22 13.5 -37.5t34.5 -15.5q22 0 37 16.5t15 42.5q0 22 -13.5 37t-36.5 15z" />
    <glyph glyph-name="ogonek" unicode="&#x2db;" 
d="M137 1h62q-30 -23 -52 -54t-22 -57q0 -37 38 -37q22 0 44 10l9 -45q-35 -24 -81 -24q-36 0 -57 19.5t-21 52.5q0 67 80 135z" />
    <glyph glyph-name="tilde" unicode="&#x2dc;" 
d="M186 568h-48q5 45 25.5 72.5t51.5 27.5q23 0 61 -22q28 -17 40 -17q13 0 19.5 8.5t10.5 33.5h47q-12 -96 -77 -96q-27 0 -59 20q-28 18 -42 18q-20 0 -29 -45z" />
    <glyph glyph-name="hungarumlaut" unicode="&#x2dd;" 
d="M242 686h88l-125 -143h-56zM387 686h88l-126 -143h-55z" />
    <glyph glyph-name="uni037E" unicode="&#x37e;" horiz-adv-x="214" 
d="M32 -116l-64 -7q61 131 88 237l98 3q-24 -56 -61 -126.5t-61 -106.5zM143 324q-25 0 -41 17.5t-16 43.5q0 29 18.5 49.5t47.5 20.5q26 0 42 -18t16 -45q0 -28 -19 -48t-48 -20z" />
    <glyph glyph-name="tonos" unicode="&#x384;" horiz-adv-x="360" 
d="M300 686h99l-133 -143h-64z" />
    <glyph glyph-name="dieresistonos" unicode="&#x385;" horiz-adv-x="346" 
d="M231 702h81l-96 -154h-49zM108 569q-19 0 -31 12.5t-12 32.5t14 34.5t34 14.5t31.5 -13t11.5 -32q0 -21 -13.5 -35t-34.5 -14zM351 569q-19 0 -31 12.5t-12 32.5t14 34.5t34 14.5t31.5 -13t11.5 -32q0 -21 -13.5 -35t-34.5 -14z" />
    <glyph glyph-name="Alphatonos" unicode="&#x386;" horiz-adv-x="568" 
d="M400 213h-232l-107 -213h-88l349 674h97l94 -674h-85zM198 279h196l-26 195q-8 66 -12 124h-2q-3 -6 -23 -52.5t-32 -70.5zM103 674h78l-48 -155h-50z" />
    <glyph glyph-name="anoteleia" unicode="&#x387;" horiz-adv-x="214" 
d="M116 255q-24 0 -40 17.5t-16 43.5q0 29 18.5 49t46.5 20q26 0 41.5 -17.5t15.5 -44.5q0 -29 -18.5 -48.5t-47.5 -19.5z" />
    <glyph glyph-name="Epsilontonos" unicode="&#x388;" horiz-adv-x="491" 
d="M453 387l-14 -70h-245l-46 -246h276l-14 -71h-359l128 674h344l-14 -71h-260l-41 -216h245zM34 674h79l-48 -155h-50z" />
    <glyph glyph-name="Etatonos" unicode="&#x389;" horiz-adv-x="647" 
d="M179 674h83l-54 -284h310l54 284h83l-128 -674h-83l59 317h-309l-60 -317h-83zM34 674h78l-48 -155h-50z" />
    <glyph glyph-name="Iotatonos" unicode="&#x38a;" horiz-adv-x="254" 
d="M179 674h83l-128 -674h-83zM37 674h78l-48 -155h-49z" />
    <glyph glyph-name="Omicrontonos" unicode="&#x38c;" horiz-adv-x="683" 
d="M318 -11q-83 0 -142.5 39.5t-86 100t-26.5 134.5q0 88 32.5 175.5t89.5 148.5q44 46 105.5 72t126.5 26q128 0 191.5 -79t63.5 -197q0 -88 -30.5 -174t-85.5 -145q-95 -101 -238 -101zM331 59q103 0 178.5 109t75.5 237q0 40 -7.5 74t-26 66.5t-55.5 51t-90 18.5
q-72 0 -132.5 -54.5t-92 -133t-31.5 -157.5q0 -91 44 -151t137 -60zM32 674h78l-48 -155h-50z" />
    <glyph glyph-name="Upsilontonos" unicode="&#x38e;" horiz-adv-x="602" 
d="M124 611l19 69q34 -3 74.5 -28t65.5 -62q70 -101 62 -248h4q52 151 161 249q40 36 83.5 59.5t74.5 29.5l8 -72q-66 -26 -145.5 -102.5t-133.5 -194.5q-32 -76 -43 -138l-32 -173h-83l32 174q14 77 11 136q-5 130 -50 207t-108 94zM18 674h79l-49 -155h-49z" />
    <glyph glyph-name="Omegatonos" unicode="&#x38f;" horiz-adv-x="697" 
d="M162 66l1 4q-39 38 -65 99t-26 130q0 163 100.5 274.5t248.5 111.5q120 0 191.5 -76.5t71.5 -189.5q0 -114 -55 -205.5t-131 -143.5v-4h136l-12 -66h-245l9 55q83 49 146.5 143.5t63.5 211.5q0 85 -47.5 146t-135.5 61q-76 0 -136 -49t-89.5 -122t-29.5 -151
q0 -82 28.5 -144t73.5 -96l-10 -55h-244l12 66h144zM36 674h78l-48 -155h-49z" />
    <glyph glyph-name="iotadieresistonos" unicode="&#x390;" horiz-adv-x="229" 
d="M200 484l-70 -368q-6 -34 1 -47t33 -12l-17 -63q-12 -5 -34 -5q-71 0 -71 78q0 22 17 105l59 312h82zM187 693h80l-96 -154h-48zM64 560q-18 0 -30 12.5t-12 31.5q0 20 13.5 34t33.5 14q19 0 30.5 -12.5t11.5 -31.5q0 -21 -13 -34.5t-34 -13.5zM306 560q-18 0 -30 12.5
t-12 31.5q0 20 13.5 34t33.5 14t31.5 -12.5t11.5 -31.5q0 -21 -13.5 -34.5t-34.5 -13.5z" />
    <glyph glyph-name="Alpha" unicode="&#x391;" horiz-adv-x="568" 
d="M400 213h-232l-107 -213h-88l349 674h97l94 -674h-85zM198 279h196l-26 195q-8 66 -12 124h-2q-3 -6 -23 -52.5t-32 -70.5z" />
    <glyph glyph-name="Beta" unicode="&#x392;" horiz-adv-x="518" 
d="M33 5l123 660q74 14 145 14q105 0 155 -46q49 -40 49 -105q0 -61 -42 -107t-102 -62v-2q48 -14 79 -53t31 -97q0 -97 -80 -157q-74 -55 -219 -55q-87 0 -139 10zM228 607l-42 -219h62q74 0 122.5 36t48.5 96q0 93 -122 93q-49 0 -69 -6zM173 325l-47 -259q28 -4 68 -4
q81 0 135.5 36.5t54.5 112.5q0 56 -41 85t-102 29h-68z" />
    <glyph glyph-name="Gamma" unicode="&#x393;" horiz-adv-x="436" 
d="M159 674h347l-14 -71h-263l-114 -603h-84z" />
    <glyph glyph-name="uni0394" unicode="&#x394;" horiz-adv-x="596" 
d="M-22 0l8 50l346 624h96l116 -624l-9 -50h-557zM84 69h372l-67 368q-13 81 -24 158h-3q-4 -8 -71 -140z" />
    <glyph glyph-name="Epsilon" unicode="&#x395;" horiz-adv-x="470" 
d="M433 387l-14 -70h-245l-46 -246h276l-14 -71h-359l128 674h344l-14 -71h-260l-41 -216h245z" />
    <glyph glyph-name="Zeta" unicode="&#x396;" horiz-adv-x="523" 
d="M-20 0l9 51l458 549l-1 3h-320l14 71h432l-11 -54l-454 -546l1 -3h354l-13 -71h-469z" />
    <glyph glyph-name="Eta" unicode="&#x397;" horiz-adv-x="627" 
d="M159 674h83l-54 -284h310l54 284h83l-128 -674h-83l59 317h-309l-60 -317h-83z" />
    <glyph glyph-name="Theta" unicode="&#x398;" horiz-adv-x="668" 
d="M303 -11q-83 0 -142.5 39.5t-86 100t-26.5 134.5q0 89 32.5 176t89.5 147q45 46 106 72.5t126 26.5q128 0 191.5 -79t63.5 -197q0 -88 -30.5 -174t-85.5 -145q-96 -101 -238 -101zM316 59q103 0 178.5 109t75.5 237q0 31 -4.5 59t-16.5 56.5t-31.5 48.5t-52 33t-74.5 13
q-72 0 -132.5 -54.5t-92 -133t-31.5 -157.5q0 -91 44 -151t137 -60zM225 382h269l-11 -68h-269z" />
    <glyph glyph-name="Iota" unicode="&#x399;" horiz-adv-x="233" 
d="M158 674h83l-128 -674h-83z" />
    <glyph glyph-name="Kappa" unicode="&#x39a;" horiz-adv-x="515" 
d="M31 0l128 674h82l-62 -328l4 1q23 26 67 75l237 252h104l-284 -290l173 -384h-90l-147 331l-81 -75l-49 -256h-82z" />
    <glyph glyph-name="Lambda" unicode="&#x39b;" horiz-adv-x="569" 
d="M514 0h-86l-62 464q-5 50 -11 130h-2q-19 -50 -57 -129l-234 -465h-89l348 674h99z" />
    <glyph glyph-name="Mu" unicode="&#x39c;" horiz-adv-x="780" 
d="M676 0h-80l48 364q19 138 36 228h-3q-57 -125 -105 -217l-201 -371h-63l-50 363q-15 113 -21 225h-3q-1 -5 -21 -97.5t-30 -130.5l-92 -364h-78l175 674h106l53 -386q14 -115 16 -169h3q30 71 79 166l208 389h109z" />
    <glyph glyph-name="Nu" unicode="&#x39d;" horiz-adv-x="632" 
d="M109 0h-78l128 674h91l154 -382q35 -89 59 -188l2 1q6 91 29 211l68 358h78l-128 -674h-82l-154 381q-42 109 -62 194l-3 -1q-9 -82 -35 -222z" />
    <glyph glyph-name="Xi" unicode="&#x39e;" horiz-adv-x="534" 
d="M132 674h434l-12 -70h-434zM113 384h367l-12 -70h-367zM12 71h455l-12 -71h-455z" />
    <glyph glyph-name="Omicron" unicode="&#x39f;" horiz-adv-x="668" 
d="M303 -11q-83 0 -142.5 39.5t-86 100t-26.5 134.5q0 88 32.5 175.5t89.5 148.5q44 46 105.5 72t126.5 26q128 0 191.5 -79t63.5 -197q0 -88 -30.5 -174t-85.5 -145q-95 -101 -238 -101zM316 59q103 0 178.5 109t75.5 237q0 40 -7.5 74t-26 66.5t-55.5 51t-90 18.5
q-72 0 -132.5 -54.5t-92 -133t-31.5 -157.5q0 -91 44 -151t137 -60z" />
    <glyph glyph-name="Pi" unicode="&#x3a0;" horiz-adv-x="621" 
d="M629 674l-127 -674h-83l114 604h-305l-114 -604h-83l128 674h470z" />
    <glyph glyph-name="Rho" unicode="&#x3a1;" horiz-adv-x="507" 
d="M31 0l127 664q62 15 146 15q110 0 165 -52q49 -44 49 -122q0 -53 -23 -99.5t-58 -76.5q-76 -64 -204 -64q-34 0 -69 5l-51 -270h-82zM227 605l-50 -265q32 -7 67 -7q85 0 137.5 47t52.5 119q0 58 -36.5 85.5t-97.5 27.5q-47 0 -73 -7z" />
    <glyph glyph-name="Sigma" unicode="&#x3a3;" horiz-adv-x="534" 
d="M112 75v-4h373l-12 -71h-488l8 53l285 286l-170 276l9 59h443l-12 -70h-337l-1 -3l164 -267z" />
    <glyph glyph-name="Tau" unicode="&#x3a4;" horiz-adv-x="474" 
d="M148 0l114 602h-197l14 72h478l-14 -72h-198l-114 -602h-83z" />
    <glyph glyph-name="Upsilon" unicode="&#x3a5;" horiz-adv-x="544" 
d="M67 611l19 69q34 -3 74.5 -28t65.5 -62q70 -101 62 -248h4q52 151 161 249q40 36 83.5 59.5t74.5 29.5l8 -72q-66 -26 -145.5 -102.5t-133.5 -194.5q-32 -75 -43 -138l-32 -173h-83l32 174q14 77 11 136q-5 130 -50 207t-108 94z" />
    <glyph glyph-name="Phi" unicode="&#x3a6;" horiz-adv-x="691" 
d="M256 -26l11 54q-94 9 -156.5 76.5t-62.5 176.5q0 85 32 157t81.5 117t108 70t114.5 25l11 50h78l-10 -50q93 -9 155 -77t62 -178q0 -82 -29.5 -152t-77.5 -116t-107.5 -72t-120.5 -27l-10 -54h-79zM279 91l93 496q-86 -1 -162.5 -87t-76.5 -215q0 -81 40.5 -133.5
t105.5 -60.5zM450 587l-92 -496q101 4 169.5 92.5t68.5 210.5q0 83 -41 134.5t-105 58.5z" />
    <glyph glyph-name="Chi" unicode="&#x3a7;" horiz-adv-x="521" 
d="M466 0h-88l-64 167q-28 69 -43 118h-2q-48 -73 -79 -116l-121 -169h-99l263 343l-126 331h87l64 -173q19 -52 34 -102h3q37 58 68 102l129 173h99l-260 -330z" />
    <glyph glyph-name="Psi" unicode="&#x3a8;" horiz-adv-x="647" 
d="M686 674l-39 -206q-23 -125 -97 -191.5t-194 -70.5l-38 -206h-80l39 206q-37 3 -70 14t-63.5 33t-48.5 60t-18 89q0 35 9 83l35 189h81l-35 -189q-8 -48 -8 -74q0 -65 31.5 -98.5t98.5 -39.5l75 401h79l-75 -401q79 4 129.5 52t70.5 156l37 193h81z" />
    <glyph glyph-name="uni03A9" unicode="&#x3a9;" horiz-adv-x="680" 
d="M145 66l1 4q-39 38 -65 99t-26 130q0 163 100.5 274.5t248.5 111.5q120 0 191.5 -76.5t71.5 -189.5t-55.5 -205t-130.5 -144v-4h136l-12 -66h-245l9 55q83 49 146.5 143.5t63.5 211.5q0 85 -47.5 146t-135.5 61q-76 0 -136 -49t-89.5 -122t-29.5 -151q0 -82 28.5 -144
t73.5 -96l-10 -55h-244l12 66h144z" />
    <glyph glyph-name="Iotadieresis" unicode="&#x3aa;" horiz-adv-x="233" 
d="M113 711q-20 0 -33 13.5t-13 34.5q0 22 15 37.5t37 15.5q21 0 34 -14t13 -35q0 -22 -14.5 -37t-38.5 -15zM297 711q-20 0 -33 13.5t-13 34.5q0 22 15 37.5t37 15.5q21 0 34 -14t13 -35q0 -22 -14.5 -37t-38.5 -15zM158 674h83l-129 -674h-82z" />
    <glyph glyph-name="Upsilondieresis" unicode="&#x3ab;" horiz-adv-x="544" 
d="M259 703q-19 0 -32.5 14t-13.5 34q0 22 15 37.5t37 15.5q21 0 34 -14t13 -34q0 -23 -14.5 -38t-38.5 -15zM443 703q-19 0 -32.5 14t-13.5 34q0 22 15 37.5t37 15.5q21 0 34 -14t13 -34q0 -23 -14.5 -38t-38.5 -15zM66 611l20 69q34 -3 74.5 -28t65.5 -62q70 -101 62 -248
h4q52 151 161 249q39 36 82.5 59.5t75.5 29.5l8 -72q-66 -26 -145.5 -102.5t-133.5 -194.5q-32 -75 -43 -138l-32 -173h-83l32 174q14 77 11 136q-5 130 -50.5 207t-108.5 94z" />
    <glyph glyph-name="alphatonos" unicode="&#x3ac;" horiz-adv-x="541" 
d="M363 686h99l-133 -143h-65zM369 90h-3q-64 -101 -175 -101q-72 0 -115 48t-43 129q0 136 78 232.5t177 96.5q55 0 88 -26.5t44 -69.5h4q14 54 25 85h70q-8 -27 -28 -114q-29 -132 -45 -219q-11 -51 -4 -73.5t33 -22.5l-17 -63q-10 -3 -26 -3q-32 0 -49.5 25t-13.5 76z
M118 177q0 -54 26.5 -87.5t75.5 -33.5q45 0 85.5 39t60.5 91q10 23 18 68q6 29 6 58q0 49 -26.5 83t-73.5 34q-65 0 -118.5 -76t-53.5 -176z" />
    <glyph glyph-name="epsilontonos" unicode="&#x3ad;" horiz-adv-x="406" 
d="M301 686h99l-133 -143h-65zM321 227h-63q-64 0 -107 -25t-43 -73q0 -34 31.5 -54t81.5 -20q74 0 140 33l7 -59q-27 -17 -75.5 -28.5t-93.5 -11.5q-78 0 -129 31.5t-51 95.5q0 56 40 95.5t95 47.5v5q-81 20 -81 91q0 55 56 97t147 42t130 -34l-22 -54q-46 26 -109 26
q-53 0 -85.5 -22.5t-32.5 -56.5q0 -33 33 -50t90 -17h51z" />
    <glyph glyph-name="etatonos" unicode="&#x3ae;" horiz-adv-x="534" 
d="M371 686h99l-133 -143h-65zM178 389h2q32 51 79 78.5t100 27.5q50 0 86.5 -32.5t36.5 -101.5q0 -33 -9 -78l-56 -298q-26 -139 -22 -183h-78q-11 30 16 180l57 298q6 36 6 62q0 84 -76 84q-48 0 -98.5 -53t-66.5 -138l-44 -235h-83l65 343q19 101 13 141h74q7 -31 -2 -95
z" />
    <glyph glyph-name="iotatonos" unicode="&#x3af;" horiz-adv-x="229" 
d="M230 686h98l-133 -143h-64zM200 484l-70 -367q-6 -35 1 -48t33 -12l-17 -63q-13 -5 -35 -5q-70 0 -70 78q0 18 16 104l59 313h83z" />
    <glyph glyph-name="upsilondieresistonos" unicode="&#x3b0;" horiz-adv-x="501" 
d="M382 484h78q12 -29 12 -87q0 -70 -16 -139.5t-46.5 -131t-84 -99.5t-121.5 -38q-69 0 -112.5 41t-43.5 113q0 17 8 59l22 117q24 128 20 165h78q12 -20 -2 -89l-34 -186q-7 -35 -7 -54q0 -46 25.5 -71.5t60.5 -25.5q75 0 123 102.5t48 241.5q0 56 -8 82zM296 693h80
l-96 -154h-49zM172 560q-18 0 -30 12.5t-12 31.5q0 20 13.5 34t33.5 14t31.5 -12.5t11.5 -31.5q0 -21 -13.5 -34.5t-34.5 -13.5zM415 560q-18 0 -30 12.5t-12 31.5q0 20 13.5 34t33.5 14t31.5 -12.5t11.5 -31.5q0 -21 -13.5 -34.5t-34.5 -13.5z" />
    <glyph glyph-name="alpha" unicode="&#x3b1;" horiz-adv-x="541" 
d="M369 90h-3q-64 -101 -175 -101q-72 0 -115 48t-43 129q0 136 78 232.5t177 96.5q55 0 88 -26.5t44 -69.5h4q14 54 25 85h70q-8 -27 -28 -114q-29 -132 -45 -219q-11 -51 -4 -73.5t33 -22.5l-17 -63q-10 -3 -26 -3q-32 0 -49.5 25t-13.5 76zM118 177q0 -54 26.5 -87.5
t75.5 -33.5q45 0 85.5 39t60.5 91q10 23 18 68q6 29 6 58q0 49 -26.5 83t-73.5 34q-65 0 -118.5 -76t-53.5 -176z" />
    <glyph glyph-name="beta" unicode="&#x3b2;" horiz-adv-x="533" 
d="M84 -198h-78q-9 42 16 173l85 460q31 169 109 235q60 51 136 51q66 0 107 -41.5t41 -105.5t-32.5 -114t-81.5 -71l-1 -5q48 -11 81 -55.5t33 -108.5q0 -107 -70 -169t-156 -62q-99 0 -153 65h-2l-13 -71q-25 -140 -21 -181zM258 346l10 58q13 0 19 1q60 5 96.5 49
t36.5 105q0 43 -21.5 69t-58.5 26q-111 0 -149 -208l-58 -310q16 -33 50 -57.5t82 -24.5q59 0 104 45t45 116q0 58 -36 93.5t-94 37.5h-26z" />
    <glyph glyph-name="gamma" unicode="&#x3b3;" horiz-adv-x="439" 
d="M168 -198h-83q39 184 36 267q-3 96 -33.5 217.5t-63.5 197.5h92q27 -61 51.5 -168.5t25.5 -209.5h4q137 196 164 343q4 22 4 35h82q2 -15 -3 -39q-16 -89 -77 -198.5t-153 -216.5q-9 -11 -12 -27q-11 -69 -34 -201z" />
    <glyph glyph-name="delta" unicode="&#x3b4;" horiz-adv-x="522" 
d="M491 649l-34 -50q-22 24 -56 41.5t-69 17.5q-30 0 -46 -13.5t-16 -32.5q0 -13 9 -27t17 -22.5t32 -30.5l68 -64q94 -91 94 -201q0 -109 -72.5 -193.5t-185.5 -84.5q-86 0 -143 56.5t-57 149.5q0 106 64.5 182.5t157.5 114.5v4l-19 21q-49 54 -49 95q0 44 39 76.5
t100 32.5q104 0 166 -72zM339 409l-42 41q-74 -33 -127 -97.5t-53 -152.5q0 -68 36.5 -108t89.5 -40q66 0 114 61t48 144q0 90 -66 152z" />
    <glyph glyph-name="epsilon" unicode="&#x3b5;" horiz-adv-x="406" 
d="M321 227h-63q-64 0 -107 -25t-43 -73q0 -34 31.5 -54t81.5 -20q74 0 140 33l7 -61q-27 -16 -75 -27t-94 -11q-78 0 -129 31.5t-51 95.5q0 56 40 95.5t95 47.5v5q-81 20 -81 91q0 55 56 97t147 42t130 -34l-22 -54q-46 26 -109 26q-53 0 -85.5 -22.5t-32.5 -56.5
q0 -33 33 -50t90 -17h51z" />
    <glyph glyph-name="zeta" unicode="&#x3b6;" horiz-adv-x="392" 
d="M451 708l3 -59q-123 -69 -226 -195t-103 -241q0 -57 25 -90.5t79 -52.5q35 -17 122 -28q7 -1 7 -9q0 -28 -30 -87t-59 -90l-54 18q13 17 30.5 53.5t22.5 57.5q-58 9 -98 25q-132 52 -132 189q0 115 91 241.5t210 201.5v3h-72q-76 0 -108 12l17 56q28 -5 116 -5h159z" />
    <glyph glyph-name="eta" unicode="&#x3b7;" horiz-adv-x="534" 
d="M178 389h2q32 51 79 78.5t100 27.5q50 0 86.5 -32.5t36.5 -101.5q0 -33 -9 -78l-56 -298q-26 -139 -22 -183h-78q-11 30 16 180l57 298q6 36 6 62q0 84 -76 84q-48 0 -98.5 -53t-66.5 -138l-43 -235h-84l65 343q19 101 13 141h74q7 -31 -2 -95z" />
    <glyph glyph-name="theta" unicode="&#x3b8;" horiz-adv-x="516" 
d="M222 -11q-83 0 -130.5 61.5t-47.5 176.5q0 79 21 174q31 140 101 230t172 90q81 0 126.5 -62.5t45.5 -163.5q0 -71 -14 -146q-32 -165 -100 -262.5t-174 -97.5zM149 398h271q8 45 8 103q0 71 -25.5 114t-74.5 43q-66 0 -112.5 -74t-66.5 -186zM408 335h-271
q-11 -71 -11 -118q0 -78 28 -121.5t76 -43.5q125 0 178 283z" />
    <glyph glyph-name="iota" unicode="&#x3b9;" horiz-adv-x="229" 
d="M200 484l-69 -367q-7 -34 0 -47.5t33 -12.5l-16 -63q-13 -5 -35 -5q-70 0 -71 78q1 13 18 110l58 307h82z" />
    <glyph glyph-name="kappa" unicode="&#x3ba;" horiz-adv-x="461" 
d="M243 261v-3q19 -6 35.5 -18t31.5 -32.5t24.5 -37.5t25.5 -48l60 -122h-91l-50 103q-31 59 -55.5 86t-60.5 27h-12l-40 -216h-82l70 377q15 82 9 107h78q11 -24 -1 -85l-24 -130h5q53 48 129.5 120t101.5 95h96v-4q-37 -34 -250 -219z" />
    <glyph glyph-name="lambda" unicode="&#x3bb;" horiz-adv-x="437" 
d="M311 0l-48 282q-1 7 -6.5 41.5t-7.5 53.5l-5 1q-25 -59 -43 -95l-144 -283h-88l242 452q10 17 10 28q0 12 -2 21q-14 74 -35.5 112t-63.5 39h-14l16 64q15 3 31 2q63 -2 93.5 -54t54.5 -169l95 -495h-85z" />
    <glyph glyph-name="uni03BC" unicode="&#x3bc;" horiz-adv-x="525" 
d="M196 484l-54 -287q-26 -138 81 -138q35 0 68.5 30t55.5 72q14 26 21 59l50 264h83l-65 -344q-8 -47 -2 -64.5t30 -19.5l-18 -64q-14 -3 -27 -3q-68 0 -63 100h-3q-24 -42 -62 -70t-84 -28q-73 0 -98 58l-11 -65q-25 -131 -21 -182h-74q-10 45 16 179l95 503h82z" />
    <glyph glyph-name="nu" unicode="&#x3bd;" horiz-adv-x="440" 
d="M36 484h87q19 -127 41 -267q7 -55 17 -132h4q148 221 176 346q7 37 7 53h81q0 -26 -3 -42q-30 -168 -247 -442h-79q-25 147 -84 484z" />
    <glyph glyph-name="xi" unicode="&#x3be;" horiz-adv-x="418" 
d="M372 372h-28q-102 0 -163 -48.5t-61 -122.5q0 -53 32.5 -85.5t100.5 -50.5q65 -18 126 -23q7 -1 7 -10q0 -27 -31.5 -88t-57.5 -87l-55 18q13 17 31 54t23 57q-51 5 -109 23q-155 52 -155 179q0 84 56 144t129 77v5q-41 15 -66.5 49t-25.5 77q0 73 61.5 127t160.5 54
q82 0 122 -31l-23 -55q-36 24 -97 24q-64 0 -102 -35t-38 -87q0 -48 37 -74.5t98 -28.5q9 -1 38 -1z" />
    <glyph glyph-name="omicron" unicode="&#x3bf;" horiz-adv-x="522" 
d="M223 -11q-88 0 -138.5 57t-50.5 142q0 124 76.5 215.5t191.5 91.5q92 0 141 -59t49 -142q0 -119 -76 -212t-193 -93zM234 55q71 0 121.5 75t50.5 164q0 52 -27 93.5t-86 41.5q-74 0 -123.5 -74.5t-49.5 -163.5q0 -60 31 -98t83 -38z" />
    <glyph glyph-name="pi" unicode="&#x3c0;" horiz-adv-x="528" 
d="M532 418h-67l-50 -271q-19 -104 -14 -147h-79q-11 28 9 140l51 278h-151q-4 -15 -11.5 -49t-12.5 -52q-63 -236 -121 -317h-80q64 100 120 314q18 72 24 104q-66 0 -100 -10l-3 50q32 26 137 26h364z" />
    <glyph glyph-name="rho" unicode="&#x3c1;" horiz-adv-x="537" 
d="M79 -198h-77q-6 43 19 177l40 221q30 159 104 229q68 66 165 66q81 0 129.5 -55t48.5 -138q0 -129 -75 -221t-177 -92q-45 0 -82 19.5t-53 53.5h-3l-14 -79q-26 -135 -25 -181zM149 226l-5 -27q-3 -16 -3 -38q0 -38 30.5 -72t81.5 -34q68 0 119 71t51 171q0 55 -28 92.5
t-81 37.5q-57 0 -101.5 -50t-63.5 -151z" />
    <glyph glyph-name="uni03C2" unicode="&#x3c2;" horiz-adv-x="410" 
d="M277 -143l-55 18q13 18 30.5 53.5t22.5 56.5q-53 9 -96 24q-60 22 -102.5 69.5t-42.5 125.5q0 116 81.5 203t201.5 87q67 0 106 -24l-24 -60q-38 18 -83 18q-80 0 -138 -61t-58 -154q0 -108 117 -146q51 -17 118 -26q8 -1 8 -11q0 -30 -30 -87.5t-56 -85.5z" />
    <glyph glyph-name="sigma" unicode="&#x3c3;" horiz-adv-x="538" 
d="M422 439l-1 -5q36 -22 52.5 -65.5t16.5 -82.5q0 -112 -75 -204.5t-190 -92.5q-89 0 -140 57t-51 142q0 123 77 215t191 92h111h54h93l-10 -65q-52 0 -128 9zM234 55q71 0 121.5 75.5t50.5 163.5q0 52 -27 93.5t-85 41.5q-75 0 -124.5 -74.5t-49.5 -163.5q0 -59 31 -97.5
t83 -38.5z" />
    <glyph glyph-name="tau" unicode="&#x3c4;" horiz-adv-x="388" 
d="M264 58l-12 -62q-18 -7 -42 -7q-93 0 -93 99q0 20 8 66l49 264h-48q-55 0 -101 -8v49q40 25 134 25h261l-17 -66h-147l-49 -271q-5 -24 -5 -43q0 -47 42 -47q14 0 20 1z" />
    <glyph glyph-name="upsilon" unicode="&#x3c5;" horiz-adv-x="501" 
d="M382 484h78q12 -29 12 -88q0 -70 -15.5 -139t-46 -130.5t-83.5 -99.5t-121 -38q-69 0 -113.5 41t-44.5 112q0 26 8 60l22 117q24 129 20 165h78q12 -20 -2 -89l-34 -186q-7 -33 -7 -54q0 -46 26 -71.5t61 -25.5q75 0 122.5 101.5t47.5 242.5q0 56 -8 82z" />
    <glyph glyph-name="phi" unicode="&#x3c6;" horiz-adv-x="613" 
d="M234 50l54 297q28 148 137 148q64 0 111 -54t47 -138q0 -138 -84.5 -225t-199.5 -89l-36 -187h-76l35 187q-78 10 -132.5 64t-54.5 145q0 63 21 117.5t54 90t64.5 58t60.5 31.5l29 -45q-52 -25 -99.5 -88.5t-47.5 -154.5q0 -60 29.5 -103t87.5 -54zM368 365l-58 -315
q80 5 135.5 75.5t55.5 172.5q0 55 -23 94.5t-59 39.5q-39 0 -51 -67z" />
    <glyph glyph-name="chi" unicode="&#x3c7;" horiz-adv-x="423" 
d="M47 484h87l47 -156q16 -52 30 -110h5q44 75 66 109q19 30 53.5 86t44.5 71h86q-150 -224 -224 -335l111 -342l-79 -20l-50 159q-21 69 -41 139h-5q-6 -10 -26 -44t-34 -56q-21 -33 -61.5 -99t-61.5 -99l-70 27q78 119 229 346z" />
    <glyph glyph-name="psi" unicode="&#x3c8;" horiz-adv-x="624" 
d="M505 484h77q14 -33 14 -91q0 -174 -79.5 -286.5t-211.5 -117.5l-35 -187h-77l35 187q-77 6 -125.5 50.5t-48.5 129.5q0 40 8 77l23 127q15 78 12 111h76q9 -20 -3 -87l-28 -149q-7 -49 -7 -76q1 -58 30 -88t75 -33l104 560h77l-104 -560q76 1 137 92.5t61 252.5
q0 58 -10 88z" />
    <glyph glyph-name="omega" unicode="&#x3c9;" horiz-adv-x="676" 
d="M515 490h75q22 -23 37 -69.5t15 -100.5q0 -138 -64.5 -234.5t-154.5 -96.5q-92 0 -113 87h-3q-48 -87 -134 -87q-59 0 -99.5 47.5t-40.5 134.5q0 101 43 190t90 129h83l-1 -2q-49 -44 -90 -129t-41 -181q0 -58 22 -88.5t54 -30.5q34 0 60 34t35 88l32 180h78l-32 -163
q-7 -40 -7 -57q0 -32 16.5 -57t50.5 -25q50 0 92 79.5t42 184.5q0 111 -46 165z" />
    <glyph glyph-name="iotadieresis" unicode="&#x3ca;" horiz-adv-x="229" 
d="M79 557q-19 0 -32.5 14t-13.5 34q0 22 15 37.5t36 15.5t34.5 -14t13.5 -34q0 -23 -15 -38t-38 -15zM262 557q-19 0 -32.5 14t-13.5 34q0 22 15 37.5t37 15.5q21 0 34 -14t13 -34q0 -23 -14.5 -38t-38.5 -15zM200 484l-70 -367q-6 -34 1 -47.5t33 -12.5l-17 -63
q-12 -5 -34 -5q-71 0 -71 77q0 19 16 105l60 313h82z" />
    <glyph glyph-name="upsilondieresis" unicode="&#x3cb;" horiz-adv-x="501" 
d="M199 557q-19 0 -32.5 14t-13.5 34q0 22 15 37.5t37 15.5q21 0 34 -14t13 -34q0 -23 -14.5 -38t-38.5 -15zM382 557q-19 0 -32.5 14t-13.5 34q0 22 15 37.5t37 15.5q21 0 34 -14t13 -34q0 -23 -14.5 -38t-38.5 -15zM381 484h79q12 -29 12 -87q0 -70 -16 -139.5t-46.5 -131
t-84 -99.5t-121.5 -38q-69 0 -112.5 40.5t-43.5 113.5q0 24 8 59l22 117q24 128 20 165h78q12 -20 -2 -89l-34 -186q-7 -37 -7 -54q0 -46 25.5 -71.5t60.5 -25.5q75 0 123 102.5t48 241.5q0 59 -9 82z" />
    <glyph glyph-name="omicrontonos" unicode="&#x3cc;" horiz-adv-x="522" 
d="M354 686h99l-133 -143h-64zM223 -11q-88 0 -138.5 57t-50.5 142q0 124 76.5 215.5t191.5 91.5q92 0 141 -59t49 -142q0 -119 -76 -212t-193 -93zM234 55q71 0 121.5 75t50.5 164q0 52 -27 93.5t-86 41.5q-74 0 -123.5 -74.5t-49.5 -163.5q0 -60 31 -98t83 -38z" />
    <glyph glyph-name="upsilontonos" unicode="&#x3cd;" horiz-adv-x="501" 
d="M328 686h99l-133 -143h-65zM382 484h78q12 -29 12 -87q0 -70 -16 -139.5t-46.5 -131t-84 -99.5t-121.5 -38q-69 0 -112.5 41t-43.5 113q0 17 8 59l22 117q24 128 20 165h78q12 -20 -2 -89l-34 -186q-7 -39 -7 -54q0 -46 25.5 -71.5t60.5 -25.5q75 0 123 102.5t48 241.5
q0 56 -8 82z" />
    <glyph glyph-name="omegatonos" unicode="&#x3ce;" horiz-adv-x="676" 
d="M439 686h99l-133 -143h-64zM515 490h75q22 -23 37 -69.5t15 -100.5q0 -138 -64.5 -234.5t-154.5 -96.5q-92 0 -113 87h-3q-48 -87 -134 -87q-59 0 -99.5 47.5t-40.5 134.5q0 101 43 190t90 129h83l-1 -2q-49 -44 -90 -129t-41 -181q0 -58 22 -88.5t54 -30.5q34 0 60 34
t35 88l32 180h78l-32 -163q-7 -40 -7 -57q0 -32 16 -57t51 -25q49 0 91.5 79.5t42.5 184.5q0 111 -46 165z" />
    <glyph glyph-name="uni0401" unicode="&#x401;" horiz-adv-x="470" 
d="M433 387l-14 -70h-245l-47 -246h277l-14 -71h-359l128 674h344l-14 -71h-261l-41 -216h246zM252 720q-19 0 -32.5 14t-13.5 34q0 22 15 37.5t37 15.5q21 0 34 -14.5t13 -33.5q0 -22 -15.5 -37.5t-37.5 -15.5zM437 720q-19 0 -32.5 14t-13.5 34q0 22 15 37.5t37 15.5
q21 0 34 -14.5t13 -33.5q0 -22 -15.5 -37.5t-37.5 -15.5z" />
    <glyph glyph-name="uni0402" unicode="&#x402;" horiz-adv-x="635" 
d="M80 674h495l-15 -72h-231l-36 -190h2q56 37 125 37q80 0 126.5 -57t46.5 -152q0 -81 -27.5 -157t-77.5 -126q-75 -78 -177 -95l-15 69q79 19 127 73q82 90 82 232q0 63 -29 103t-86 40q-54 0 -110 -37l-64 -342h-83l114 602h-181z" />
    <glyph glyph-name="uni0403" unicode="&#x403;" horiz-adv-x="393" 
d="M160 674h316l-14 -73h-233l-114 -601h-83zM367 828h109l-137 -118h-73z" />
    <glyph glyph-name="uni0404" unicode="&#x404;" horiz-adv-x="548" 
d="M591 652l-26 -67q-52 29 -131 28q-108 0 -186.5 -66t-98.5 -171h322l-12 -67h-319q-3 -13 -3 -39q0 -91 53 -151t153 -60q77 0 143 33l13 -66q-72 -37 -181 -37q-129 0 -199 79.5t-70 209.5q0 88 32 167t90 134q113 105 272 105q90 0 148 -32z" />
    <glyph glyph-name="uni0405" unicode="&#x405;" horiz-adv-x="466" 
d="M12 36l30 68q64 -43 143 -43q60 0 103 34t43 92q0 73 -99 126q-134 73 -134 173q0 88 66 143t162 55q88 0 138 -35l-30 -68q-52 32 -117 32q-59 0 -96 -33t-37 -77q0 -39 24.5 -66.5t80.5 -58.5q65 -35 96.5 -78t31.5 -103q0 -90 -66 -149t-177 -59q-49 0 -94.5 14
t-67.5 33z" />
    <glyph glyph-name="uni0406" unicode="&#x406;" horiz-adv-x="233" 
d="M158 674h83l-128 -674h-83z" />
    <glyph glyph-name="uni0407" unicode="&#x407;" horiz-adv-x="233" 
d="M158 674h84l-129 -674h-83zM120 720q-19 0 -32.5 14t-13.5 34q0 22 15 37.5t37 15.5q21 0 34 -14.5t13 -33.5q0 -22 -15.5 -37.5t-37.5 -15.5zM305 720q-19 0 -32.5 14t-13.5 34q0 22 15 37.5t37 15.5q21 0 34 -14.5t13 -33.5q0 -22 -15.5 -37.5t-37.5 -15.5z" />
    <glyph glyph-name="uni0408" unicode="&#x408;" horiz-adv-x="364" 
d="M210 220l86 454h83l-88 -464q-22 -117 -74.5 -169t-147.5 -52q-66 0 -100 18l18 71q33 -15 85 -15q56 0 88.5 35t49.5 122z" />
    <glyph glyph-name="uni0409" unicode="&#x409;" horiz-adv-x="864" 
d="M218 674h370l-49 -253q30 6 78 6q94 0 152 -48.5t58 -140.5q0 -101 -70 -164q-86 -80 -248 -80q-79 0 -131 8l113 601h-207l-39 -206q-50 -270 -145 -352q-54 -53 -131 -54l-7 70q21 1 46.5 13.5t40.5 28.5q76 73 115 287zM526 353l-54 -287q23 -4 65 -4q81 0 142 44.5
t61 122.5q0 130 -145 130q-41 0 -69 -6z" />
    <glyph glyph-name="uni040A" unicode="&#x40a;" horiz-adv-x="871" 
d="M160 674h83l-53 -272h270l52 272h83l-50 -262q31 6 75 6q93 0 153.5 -48t60.5 -140q0 -95 -69 -159q-83 -77 -247 -77q-79 0 -133 8l63 332h-271l-63 -334h-82zM532 345l-53 -280q25 -3 67 -3q85 0 143 43t58 119q0 61 -42.5 93.5t-106.5 32.5q-34 0 -66 -5z" />
    <glyph glyph-name="uni040B" unicode="&#x40b;" horiz-adv-x="650" 
d="M81 674h490l-14 -71h-230l-38 -198h2q63 45 152 46q72 0 109 -41.5t37 -107.5q0 -42 -12 -100l-37 -202h-82l38 198q10 52 10 85q0 43 -24.5 70t-78.5 27q-71 0 -128 -46l-63 -334h-81l114 603h-179z" />
    <glyph glyph-name="uni040C" unicode="&#x40c;" horiz-adv-x="523" 
d="M159 674h82l-58 -304h21l278 304h102l-304 -315q66 -12 100 -60t50 -133q3 -14 9.5 -54t12 -65t12.5 -47h-86q-7 21 -30 156q-16 82 -49.5 117.5t-107.5 35.5h-19l-59 -309h-82zM400 828h109l-136 -118h-74z" />
    <glyph glyph-name="uni040E" unicode="&#x40e;" horiz-adv-x="495" 
d="M87 674h90l83 -302q10 -36 30 -118h2q14 29 35 76t29 64l130 280h93l-163 -325q-119 -238 -185 -302q-58 -58 -133 -58q-39 0 -67 13l17 69q18 -8 47 -8q73 0 129 107q10 18 3 40zM228 829h64q-1 -26 12.5 -43t42.5 -17q57 0 72 60h66q-10 -47 -47 -76t-95 -29
q-59 0 -87.5 28.5t-27.5 76.5z" />
    <glyph glyph-name="uni040F" unicode="&#x40f;" horiz-adv-x="609" 
d="M159 674h84l-115 -603h292l115 603h82l-128 -674h-185l-41 -173h-67l26 173h-191z" />
    <glyph glyph-name="uni0410" unicode="&#x410;" horiz-adv-x="568" 
d="M400 213h-232l-107 -213h-88l349 674h97l94 -674h-85zM198 279h196l-26 195q-8 66 -12 124h-2q-3 -6 -23 -52.5t-32 -70.5z" />
    <glyph glyph-name="uni0411" unicode="&#x411;" horiz-adv-x="519" 
d="M159 674h340l-13 -71h-257l-35 -186q27 7 77 7q93 0 150.5 -48t57.5 -140q0 -107 -78 -172q-84 -70 -236 -70q-79 0 -133 8zM181 352l-54 -287q21 -5 67 -5q78 0 138.5 44.5t60.5 120.5q0 66 -38.5 99.5t-106.5 33.5q-29 0 -67 -6z" />
    <glyph glyph-name="uni0412" unicode="&#x412;" horiz-adv-x="520" 
d="M33 5l123 660q74 14 145 14q105 0 155 -46q49 -40 49 -105q0 -61 -42 -107t-102 -62v-2q48 -14 79 -53t31 -97q0 -97 -80 -157q-74 -55 -219 -55q-87 0 -139 10zM228 607l-42 -219h62q74 0 122.5 36t48.5 96q0 93 -122 93q-49 0 -69 -6zM173 325l-47 -259q28 -4 68 -4
q81 0 135.5 36.5t54.5 112.5q0 56 -41 85t-102 29h-68z" />
    <glyph glyph-name="uni0413" unicode="&#x413;" horiz-adv-x="393" 
d="M159 674h317l-14 -73h-234l-114 -601h-83z" />
    <glyph glyph-name="uni0414" unicode="&#x414;" horiz-adv-x="601" 
d="M228 674h358l-114 -605l57 -2l-54 -229h-68l27 162h-399l-39 -162h-67l38 229l47 2q64 87 110 189q44 106 70 240zM291 603l-25 -134q-26 -129 -66 -227q-46 -105 -98 -172h287l100 533h-198z" />
    <glyph glyph-name="uni0415" unicode="&#x415;" horiz-adv-x="470" 
d="M433 387l-14 -70h-245l-46 -246h276l-14 -71h-359l128 674h344l-14 -71h-260l-41 -216h245z" />
    <glyph glyph-name="uni0416" unicode="&#x416;" horiz-adv-x="771" 
d="M106 674h88l153 -305h20l56 305h79l-57 -305h22l261 305h96l-290 -315q63 -10 95 -58t48 -127q3 -19 9 -56.5t11 -65t13 -52.5h-83q-6 22 -11 49t-10.5 63t-9.5 56q-13 74 -43.5 107.5t-95.5 33.5h-22l-58 -309h-80l57 309h-20q-66 0 -109 -36t-82 -116
q-60 -125 -78 -157h-89q14 22 29 51t34.5 69t28.5 58q47 91 92.5 131.5t121.5 50.5z" />
    <glyph glyph-name="uni0417" unicode="&#x417;" horiz-adv-x="449" 
d="M125 321l12 66h32q70 0 124 35t53 100q0 43 -27.5 69t-71.5 26q-63 0 -130 -39l-19 59q73 48 166 48q71 0 119.5 -39t48.5 -112q0 -67 -44 -113.5t-110 -62.5v-2q56 -12 90.5 -53.5t34.5 -102.5q0 -98 -71 -154.5t-176 -56.5q-96 0 -169 47l28 64q67 -41 142 -41
q68 0 114 38.5t46 105.5q0 58 -47 89t-107 30z" />
    <glyph glyph-name="uni0418" unicode="&#x418;" horiz-adv-x="629" 
d="M160 674h79l-57 -302q-32 -167 -58 -266l2 -1q55 88 155 220l270 349h87l-128 -674h-79l59 311q34 170 53 247l-2 1q-52 -85 -160 -227l-257 -332h-92z" />
    <glyph glyph-name="uni0419" unicode="&#x419;" horiz-adv-x="629" 
d="M159 674h80l-58 -302q-32 -167 -58 -266l2 -1q55 88 155 220l271 349h86l-127 -674h-79l59 311q26 139 53 247l-3 1q-59 -96 -160 -227l-257 -332h-92zM296 828h64q-1 -26 12.5 -43t42.5 -17q57 0 72 60h66q-10 -47 -47 -76t-95 -29q-59 0 -87.5 28.5t-27.5 76.5z" />
    <glyph glyph-name="uni041A" unicode="&#x41a;" horiz-adv-x="523" 
d="M159 674h82l-58 -304h21l278 304h102l-304 -315q66 -12 100 -60t50 -133q3 -14 9.5 -54t12 -65t12.5 -47h-86q-7 21 -30 156q-16 82 -49.5 117.5t-107.5 35.5h-19l-59 -309h-82z" />
    <glyph glyph-name="uni041B" unicode="&#x41b;" horiz-adv-x="589" 
d="M217 674h380l-129 -674h-83l116 603h-217l-39 -207q-51 -266 -144 -350q-51 -53 -132 -56l-8 70q52 6 88 44q74 72 115 286z" />
    <glyph glyph-name="uni041C" unicode="&#x41c;" horiz-adv-x="780" 
d="M676 0h-80l48 364q19 138 36 228h-3q-57 -125 -105 -217l-201 -371h-63l-50 363q-15 113 -21 225h-3q-1 -5 -21 -97.5t-30 -130.5l-92 -364h-78l175 674h106l53 -386q14 -115 16 -169h3q30 71 79 166l208 389h109z" />
    <glyph glyph-name="uni041D" unicode="&#x41d;" horiz-adv-x="627" 
d="M159 674h83l-54 -284h310l54 284h83l-128 -674h-83l59 317h-309l-60 -317h-83z" />
    <glyph glyph-name="uni041E" unicode="&#x41e;" horiz-adv-x="668" 
d="M303 -11q-83 0 -142.5 39.5t-86 100t-26.5 134.5q0 88 32.5 175.5t89.5 148.5q44 46 105.5 72t126.5 26q128 0 191.5 -79t63.5 -197q0 -88 -30.5 -174t-85.5 -145q-95 -101 -238 -101zM316 59q103 0 178.5 109t75.5 237q0 40 -7.5 74t-26 66.5t-55.5 51t-90 18.5
q-72 0 -132.5 -54.5t-92 -133t-31.5 -157.5q0 -91 44 -151t137 -60z" />
    <glyph glyph-name="uni041F" unicode="&#x41f;" horiz-adv-x="611" 
d="M159 674h460l-128 -674h-83l116 603h-295l-115 -603h-83z" />
    <glyph glyph-name="uni0420" unicode="&#x420;" horiz-adv-x="507" 
d="M31 0l127 664q62 15 146 15q110 0 165 -52q49 -44 49 -122q0 -53 -23 -99.5t-58 -76.5q-76 -64 -204 -64q-34 0 -69 5l-51 -270h-82zM227 605l-50 -265q32 -7 67 -7q85 0 137.5 47t52.5 119q0 58 -36.5 85.5t-97.5 27.5q-47 0 -73 -7z" />
    <glyph glyph-name="uni0421" unicode="&#x421;" horiz-adv-x="555" 
d="M486 90l11 -68q-72 -32 -175 -32q-127 0 -200 75t-73 204q0 96 37.5 182t105.5 143q107 90 255 90q50 0 90 -10t56 -22l-27 -67q-45 27 -133 27q-112 0 -193 -75q-48 -45 -75.5 -112.5t-27.5 -143.5q0 -99 49.5 -159.5t155.5 -60.5q88 0 144 29z" />
    <glyph glyph-name="uni0422" unicode="&#x422;" horiz-adv-x="474" 
d="M148 0l114 602h-197l14 72h478l-14 -72h-198l-114 -602h-83z" />
    <glyph glyph-name="uni0423" unicode="&#x423;" horiz-adv-x="495" 
d="M87 674h90l83 -302q10 -36 30 -118h2q14 29 34 75.5t29 64.5l131 280h93l-163 -325q-41 -81 -60 -117t-57 -96t-68 -89q-59 -58 -133 -58q-41 0 -67 13l17 69q18 -8 47 -8q73 0 129 107q10 18 3 40z" />
    <glyph glyph-name="uni0424" unicode="&#x424;" horiz-adv-x="702" 
d="M263 -26l11 59q-93 13 -156 81t-63 180q0 72 21 132.5t55 100.5t78.5 68t90.5 40.5t91 12.5l11 52h78l-10 -55q94 -13 155.5 -81.5t61.5 -187.5q0 -160 -97 -252.5t-238 -94.5l-10 -55h-79zM286 95l93 491q-90 -2 -164.5 -79.5t-74.5 -208.5q0 -84 40.5 -137t105.5 -66z
M457 583l-92 -492q111 4 174.5 86t63.5 206q0 86 -40.5 138.5t-105.5 61.5z" />
    <glyph glyph-name="uni0425" unicode="&#x425;" horiz-adv-x="521" 
d="M466 0h-88l-64 167q-28 69 -43 118h-2q-48 -73 -79 -116l-121 -169h-99l263 343l-126 331h87l64 -173q19 -52 34 -102h2q51 77 69 102l129 173h99l-260 -330z" />
    <glyph glyph-name="uni0426" unicode="&#x426;" horiz-adv-x="620" 
d="M160 674h83l-115 -603h293l115 603h82l-115 -605l57 -2l-54 -229h-68l27 162h-433z" />
    <glyph glyph-name="uni0427" unicode="&#x427;" horiz-adv-x="555" 
d="M136 674h83l-37 -194q-10 -45 -10 -76q0 -97 112 -97q39 0 76.5 13t58.5 29l61 325h82l-128 -678h-82l53 280h-2q-67 -38 -150 -38q-78 0 -122 39.5t-44 108.5q0 30 12 94z" />
    <glyph glyph-name="uni0428" unicode="&#x428;" horiz-adv-x="810" 
d="M159 674h82l-115 -603h207l114 603h82l-115 -603h207l115 603h82l-129 -674h-658z" />
    <glyph glyph-name="uni0429" unicode="&#x429;" horiz-adv-x="820" 
d="M159 674h83l-116 -603h207l114 603h83l-116 -603h207l115 603h82l-116 -605l57 -2l-53 -229h-69l27 162h-633z" />
    <glyph glyph-name="uni042A" unicode="&#x42a;" horiz-adv-x="618" 
d="M79 674h267l-48 -253q40 6 76 6q95 0 152.5 -48t57.5 -141q0 -100 -68 -165q-83 -79 -250 -79q-67 0 -130 7l114 601h-185zM284 352l-54 -286q23 -4 67 -4q80 0 140 43.5t60 122.5q0 65 -38.5 98t-105.5 33q-29 0 -69 -7z" />
    <glyph glyph-name="uni042B" unicode="&#x42b;" horiz-adv-x="720" 
d="M159 674h83l-49 -253q30 6 77 6q91 0 148.5 -48.5t57.5 -140.5q-1 -100 -67 -164q-84 -80 -247 -80q-68 0 -131 7zM179 352l-54 -285q20 -5 67 -5q78 0 137.5 44t59.5 120q0 67 -38 100t-104 33q-35 0 -68 -7zM642 674h86l-129 -674h-86z" />
    <glyph glyph-name="uni042C" unicode="&#x42c;" horiz-adv-x="518" 
d="M159 674h83l-49 -253q29 6 77 6q94 0 152 -48.5t58 -140.5q0 -100 -66 -163q-87 -81 -252 -81q-67 0 -130 7zM180 352l-54 -285q21 -5 67 -5q80 0 140 43.5t60 120.5q0 67 -39 100t-107 33q-41 0 -67 -7z" />
    <glyph glyph-name="uni042D" unicode="&#x42d;" horiz-adv-x="540" 
d="M125 308l13 68h304q1 10 1 34q-1 87 -52.5 145.5t-142.5 58.5q-76 0 -139 -29l-18 63q72 37 169 37q126 0 198 -78.5t72 -212.5q0 -86 -29.5 -167.5t-87.5 -141.5q-99 -96 -255 -96q-105 0 -170 40l25 66q63 -35 143 -35q112 0 184.5 69.5t91.5 178.5h-307z" />
    <glyph glyph-name="uni042E" unicode="&#x42e;" horiz-adv-x="862" 
d="M160 674h83l-55 -285h102q29 120 99 197q42 46 100.5 72.5t120.5 26.5q82 0 138 -40t80 -100.5t24 -136.5q0 -86 -29 -172.5t-81 -145.5q-91 -101 -224 -101q-117 0 -179.5 78.5t-62.5 187.5q0 28 5 63h-107l-60 -318h-83zM528 59q65 0 121 52.5t86.5 132t30.5 161.5
q0 210 -167 210q-68 0 -125 -54.5t-86.5 -133t-29.5 -157.5q0 -91 41 -151t129 -60z" />
    <glyph glyph-name="uni042F" unicode="&#x42f;" horiz-adv-x="519" 
d="M527 664l-125 -664h-83l57 295h-53q-32 0 -58.5 -10t-43.5 -23t-35.5 -38.5t-28 -43t-25.5 -51.5q-54 -111 -65 -129h-91q17 25 78 153q23 45 40 73t48 57.5t67 39.5v3q-49 14 -80.5 50.5t-31.5 94.5q0 106 92 166q76 42 186 42q81 0 152 -15zM388 358l46 248
q-25 7 -70 7q-77 0 -129 -36.5t-52 -106.5q0 -54 40 -83.5t100 -29.5q54 0 65 1z" />
    <glyph glyph-name="uni0430" unicode="&#x430;" horiz-adv-x="522" 
d="M428 0h-78q0 33 11 125h-2q-71 -136 -188 -136q-63 0 -101 45t-38 115q0 87 38.5 164.5t117 129.5t179.5 52q71 0 130 -18l-49 -253q-24 -124 -20 -224zM376 276l27 146q-19 7 -57 7q-92 0 -160 -81t-68 -184q0 -107 83 -107q54 0 106 62.5t69 156.5z" />
    <glyph glyph-name="uni0431" unicode="&#x431;" horiz-adv-x="513" 
d="M537 720l-12 -73q-23 -8 -69 -16q-46 -7 -71 -12t-60 -16.5t-62.5 -31t-51.5 -48.5q-47 -59 -68 -141h3q65 102 177 102q76 0 118.5 -52t42.5 -133q0 -76 -29.5 -145.5t-90.5 -117t-141 -47.5q-86 0 -131 60.5t-45 165.5q0 100 30 191.5t83 156.5q56 69 124 96.5
t172 41.5q48 7 81 19zM234 53q75 0 119.5 76.5t44.5 161.5q0 56 -24.5 92.5t-74.5 36.5q-73 0 -127 -78q-42 -60 -42 -149q0 -59 26.5 -99.5t77.5 -40.5z" />
    <glyph glyph-name="uni0432" unicode="&#x432;" horiz-adv-x="476" 
d="M301 495q60 0 98 -28.5t38 -83.5q0 -45 -34 -75.5t-80 -45.5v-3q41 -5 70.5 -33t29.5 -75q0 -79 -66.5 -120t-151.5 -41q-162 0 -162 140q0 79 33.5 178.5t92.5 143.5q57 43 132 43zM288 434q-97 0 -141 -165q118 15 160 39q50 30 50 68q0 28 -19 43t-50 15zM237 226
q-46 0 -101 -15q-9 -47 -9 -74q0 -86 88 -86q51 0 87.5 26t36.5 71q0 40 -28.5 59t-73.5 19z" />
    <glyph glyph-name="uni0433" unicode="&#x433;" horiz-adv-x="367" 
d="M113 403l-14 58q58 33 127 33q63 -1 97 -33t34 -85q0 -56 -38 -90t-111 -67q-54 -25 -81.5 -48t-27.5 -56q0 -27 17.5 -43.5t53.5 -17.5q57 -1 116 33l13 -60q-65 -39 -145 -37q-65 2 -102.5 34t-37.5 90q0 32 11.5 57t36 45t45.5 32t57 29q72 34 91 52q21 21 21 45
t-17 39t-49 16q-43 1 -97 -26z" />
    <glyph glyph-name="uni0434" unicode="&#x434;" horiz-adv-x="502" 
d="M141 649l-3 71q12 -3 104 -12q118 -12 172 -70q71 -71 71 -217q0 -67 -15 -138t-45.5 -139t-87 -111.5t-129.5 -43.5q-84 0 -129.5 51.5t-45.5 140.5q0 71 27 139t84 116t130 48q108 0 138 -101h2q1 13 1 45q0 104 -51 158q-25 25 -57 36.5t-84 16.5q-53 4 -82 10z
M221 53q67 0 113.5 80t46.5 154q0 54 -26.5 93t-76.5 39q-51 0 -89 -40t-54.5 -92.5t-15.5 -104.5q0 -55 25.5 -92t76.5 -37z" />
    <glyph glyph-name="uni0435" unicode="&#x435;" horiz-adv-x="453" 
d="M365 89l12 -62q-68 -38 -160 -38q-91 0 -137.5 54.5t-46.5 140.5q0 74 32.5 145t94.5 118.5t137 47.5q67 0 104.5 -35t37.5 -90q0 -162 -322 -157q-3 -15 -0.5 -44t10.5 -48q28 -65 108 -65q68 0 130 33zM359 369q0 29 -20 45t-54 16q-56 0 -99 -45.5t-60 -107.5
q233 -4 233 92z" />
    <glyph glyph-name="uni0436" unicode="&#x436;" horiz-adv-x="636" 
d="M65 484h91l112 -214h18l41 214h77l-42 -214h19l193 214h94l-216 -221q73 -12 98 -130q3 -14 9 -43t11 -52t11 -38h-79q-9 23 -27 115q-12 56 -35.5 80t-72.5 24h-15l-42 -219h-78l44 219h-12q-54 0 -89.5 -24t-63.5 -77q-13 -23 -32 -62.5t-29 -55.5h-84q11 17 64 124
q33 64 74 99.5t97 39.5z" />
    <glyph glyph-name="uni0437" unicode="&#x437;" horiz-adv-x="400" 
d="M94 224l10 59h33q51 0 95 22t44 64q0 30 -22.5 46.5t-56.5 16.5q-61 0 -115 -34l-19 52q66 44 147 44q63 0 108 -28t45 -88q0 -48 -37 -79.5t-90 -42.5l-1 -1q44 -6 78 -36.5t34 -76.5q0 -78 -62 -115t-146 -37q-95 0 -157 41l24 60q59 -37 128 -37q49 0 87.5 22.5
t38.5 65.5t-37.5 62.5t-89.5 19.5h-39z" />
    <glyph glyph-name="uni0438" unicode="&#x438;" horiz-adv-x="526" 
d="M113 484h82l-51 -270q-8 -43 -8 -71q0 -84 77 -84q48 0 95.5 50.5t61.5 126.5l47 248h83l-65 -343q-13 -73 -22 -141h-74l12 91h-2q-33 -48 -77.5 -75t-92.5 -27q-54 0 -91 32t-37 108q0 34 9 82z" />
    <glyph glyph-name="uni0439" unicode="&#x439;" horiz-adv-x="526" 
d="M113 484h82l-51 -270q-8 -43 -8 -71q0 -84 77 -84q48 0 95.5 50.5t61.5 126.5l47 248h83l-65 -343q-13 -73 -22 -141h-74l12 91h-2q-33 -48 -77.5 -75t-92.5 -27q-54 0 -91 32t-37 108q0 34 9 82zM219 683h61q-3 -32 11 -53t40 -20q51 0 72 73h63q-13 -57 -49.5 -89
t-90.5 -32q-61 0 -86.5 34.5t-20.5 86.5z" />
    <glyph glyph-name="uni043A" unicode="&#x43a;" horiz-adv-x="456" 
d="M121 484h81l-40 -214h18l210 214h100l-236 -222q38 -10 62.5 -43t43.5 -93q6 -18 14.5 -46t15 -47.5t12.5 -32.5h-81q-7 15 -19.5 56.5t-20.5 61.5q-21 57 -45.5 78t-69.5 21h-15l-41 -217h-81z" />
    <glyph glyph-name="uni043B" unicode="&#x43b;" horiz-adv-x="510" 
d="M160 484h326l-92 -484h-82l78 418h-165l-24 -124q-40 -210 -128 -266q-42 -32 -100 -33l-6 67q39 4 58 20q66 44 98 211z" />
    <glyph glyph-name="uni043C" unicode="&#x43c;" horiz-adv-x="667" 
d="M146 484h102l39 -245q1 -9 8.5 -59.5t9.5 -72.5h1q19 41 87 162l123 215h104l-62 -484h-78l32 231q6 46 25 169h-4q-11 -25 -79 -152l-139 -245h-64l-37 240q-18 138 -19 158h-4q-29 -130 -40 -172l-59 -229h-76z" />
    <glyph glyph-name="uni043D" unicode="&#x43d;" horiz-adv-x="529" 
d="M121 484h82l-36 -196h218l37 196h83l-92 -484h-82l42 222h-219l-42 -222h-83z" />
    <glyph glyph-name="uni043E" unicode="&#x43e;" horiz-adv-x="521" 
d="M223 -11q-88 0 -138.5 57t-50.5 142q0 124 76.5 215.5t191.5 91.5q92 0 141 -59t49 -142q0 -119 -76 -212t-193 -93zM234 55q71 0 121.5 75t50.5 164q0 52 -27 93.5t-86 41.5q-74 0 -123.5 -74.5t-49.5 -163.5q0 -60 31 -98t83 -38z" />
    <glyph glyph-name="uni043F" unicode="&#x43f;" horiz-adv-x="534" 
d="M111 0h-82l64 343q17 89 23 141h74l-12 -95h2q32 51 79 78.5t100 27.5q50 0 86.5 -32t36.5 -102q0 -31 -9 -78l-54 -283h-82l53 280q6 38 6 62q0 84 -76 84q-48 0 -98.5 -53t-66.5 -138z" />
    <glyph glyph-name="uni0440" unicode="&#x440;" horiz-adv-x="527" 
d="M68 -198h-83l97 510q17 91 27 173h76l-13 -92h2q32 48 78 75t96 27q73 0 110.5 -51t37.5 -124q0 -131 -82.5 -231t-200.5 -100q-66 0 -104 22h-2zM146 216l-25 -135q35 -27 93 -27q78 0 137 81t59 179q0 45 -22 78.5t-71 33.5q-53 0 -103.5 -57t-67.5 -153z" />
    <glyph glyph-name="uni0441" unicode="&#x441;" horiz-adv-x="423" 
d="M352 85l8 -65q-58 -30 -140 -30q-90 0 -138 52.5t-48 134.5q0 128 84.5 222.5t211.5 94.5q62 0 101 -21l-24 -66q-38 18 -82 18q-90 0 -147.5 -73.5t-57.5 -164.5q0 -60 31 -94.5t89 -34.5q56 0 112 27z" />
    <glyph glyph-name="uni0442" unicode="&#x442;" horiz-adv-x="808" 
d="M110 0h-81l64 343q13 73 22 141h73l-12 -91h2q68 102 170 102q53 0 81.5 -29.5t31.5 -78.5q65 106 177 108q48 0 83 -32t35 -95q0 -39 -8 -82l-54 -286h-81l52 279q7 33 7 63q0 84 -73 84q-47 0 -92.5 -50t-59.5 -128l-46 -248h-80l54 284q6 33 6 59q0 83 -72 83
q-46 0 -93.5 -54t-61.5 -129z" />
    <glyph glyph-name="uni0443" unicode="&#x443;" horiz-adv-x="438" 
d="M47 484h87l48 -260q21 -105 24 -130h2q3 6 21 47t32 73l118 270h88q-120 -259 -175 -370q-87 -170 -171 -252q-36 -37 -74.5 -57.5t-65.5 -26.5l-21 72q53 18 89 46q55 42 94 112q5 10 2 22z" />
    <glyph glyph-name="uni0444" unicode="&#x444;" horiz-adv-x="678" 
d="M216 -198l52 251h-2q-50 -64 -120 -64q-54 0 -85.5 45t-31.5 116q0 54 15.5 113t43 111.5t72.5 86.5t98 34q30 0 51 -18t29 -45h1l53 278h76l-57 -281h2q51 66 118 66q61 0 90.5 -48.5t29.5 -123.5q0 -73 -24 -147.5t-76 -130.5t-119 -56q-32 0 -56 18.5t-34 44.5h-2
l-45 -250h-79zM262 429q-47 0 -83 -50.5t-51.5 -110.5t-15.5 -110q0 -47 17.5 -74.5t49.5 -27.5q42 0 71.5 37t38.5 85l26 126q5 32 5 56q0 27 -17 48t-41 21zM507 426q-53 0 -91 -58q-20 -34 -29 -87q-11 -53 -21 -108q-5 -27 -2 -46q2 -25 20.5 -48.5t46.5 -22.5
q42 1 75 47.5t48 104.5t15 108q0 110 -62 110z" />
    <glyph glyph-name="uni0445" unicode="&#x445;" horiz-adv-x="441" 
d="M63 484h90l47 -106q7 -16 17.5 -41.5t15.5 -35.5h2q39 55 53 73l90 110h95l-204 -236l115 -248h-91l-48 109q-18 38 -35 86h-3q-19 -31 -50 -74l-98 -121h-96l212 249z" />
    <glyph glyph-name="uni0446" unicode="&#x446;" horiz-adv-x="538" 
d="M113 484h82l-51 -270q-8 -43 -8 -71q0 -84 77 -84q48 0 96 50.5t62 126.5l47 248h82l-59 -315q-8 -44 -8 -61q0 -60 66 -61l-59 -187h-62l37 140q-28 6 -46 32q-13 23 -11 61h-2q-32 -48 -78.5 -76t-95.5 -28q-55 0 -93 32.5t-38 107.5q0 34 9 82z" />
    <glyph glyph-name="uni0447" unicode="&#x447;" horiz-adv-x="498" 
d="M100 484h82l-21 -108q-11 -53 -11 -78q0 -72 83 -72q29 0 64 13.5t55 32.5l39 212h82l-92 -485h-82l40 204h-2q-61 -41 -133 -41q-71 0 -105 31.5t-34 86.5q0 28 12 88z" />
    <glyph glyph-name="uni0448" unicode="&#x448;" horiz-adv-x="789" 
d="M113 484h81l-52 -279q-7 -33 -7 -63q0 -84 68 -84q47 0 90.5 49.5t58.5 128.5l46 248h80l-54 -284q-6 -33 -6 -59q0 -83 68 -83q44 0 90.5 54t60.5 129l45 243h81l-63 -340q-8 -44 -13 -144h-75q0 16 0.5 33t2 34t1.5 24h-2q-65 -102 -164 -102q-51 0 -80 30t-32 78
q-66 -108 -177 -108q-44 0 -77 32t-33 95q0 39 8 82z" />
    <glyph glyph-name="uni0449" unicode="&#x449;" horiz-adv-x="801" 
d="M113 484h81l-52 -279q-7 -33 -7 -63q0 -84 68 -84q45 0 89.5 50t58.5 128l47 248h80l-54 -284q-6 -33 -6 -59q0 -83 68 -83q44 0 90.5 54t60.5 129l45 243h81l-58 -311q-9 -45 -9 -66q0 -59 66 -60l-60 -187h-61l37 140q-28 6 -44 33t-14 59h-3q-69 -103 -170 -103
q-50 0 -78 30t-31 78q-66 -108 -174 -108q-44 0 -78.5 32t-34.5 95q0 39 8 82z" />
    <glyph glyph-name="uni044A" unicode="&#x44a;" horiz-adv-x="514" 
d="M55 484h269q-96 -152 -124 -225h1q58 66 144 66q58 0 92.5 -33.5t34.5 -91.5q0 -84 -66 -145.5t-165 -61.5q-145 0 -145 129q0 63 35.5 146t82.5 149h-172zM249 55q56 0 98.5 37.5t42.5 91.5q0 35 -19.5 57t-57.5 22q-40 0 -76 -28t-50 -64q-10 -23 -10 -46
q0 -31 18.5 -50.5t53.5 -19.5z" />
    <glyph glyph-name="uni044B" unicode="&#x44b;" horiz-adv-x="649" 
d="M121 484h82l-54 -223h1q24 29 62 46.5t75 17.5q58 0 94 -34.5t36 -94.5q0 -84 -66.5 -143.5t-169.5 -59.5q-137 0 -137 106q0 30 12 88zM195 55q55 0 97.5 36.5t42.5 92.5q0 35 -20 57t-58 22q-40 0 -77 -31.5t-47 -70.5q-8 -34 -8 -51q0 -55 70 -55zM539 484h86
l-92 -484h-87z" />
    <glyph glyph-name="uni044C" unicode="&#x44c;" horiz-adv-x="463" 
d="M122 484h82l-55 -223h1q25 28 63.5 46t77.5 18q58 0 94 -34t36 -93q0 -87 -66.5 -146t-170.5 -59q-140 0 -140 109q0 35 13 87zM196 55q57 0 100 36t43 92q0 37 -19.5 58.5t-58.5 21.5q-41 0 -77 -30t-48 -66q-10 -27 -10 -53q0 -28 18.5 -43.5t51.5 -15.5z" />
    <glyph glyph-name="uni044D" unicode="&#x44d;" horiz-adv-x="440" 
d="M95 216l10 59h217q1 6 1 18q0 57 -36.5 96t-100.5 39q-60 0 -110 -23l-16 60q64 30 135 30q100 0 155 -60.5t55 -163.5q0 -122 -74.5 -202t-201.5 -80q-90 2 -140 35l23 61q54 -29 117 -29q74 0 123 42.5t63 117.5h-220z" />
    <glyph glyph-name="uni044E" unicode="&#x44e;" horiz-adv-x="698" 
d="M120 484h84l-38 -197h78q25 92 90 150t151 58q87 0 135 -59.5t48 -144.5q0 -117 -72.5 -209.5t-184.5 -92.5q-84 0 -132 56t-48 137q0 20 3 42h-80l-42 -224h-83zM421 55q66 0 114 75t48 163q0 52 -25.5 94t-80.5 42q-71 0 -118 -76t-47 -162q0 -58 29.5 -97t79.5 -39z
" />
    <glyph glyph-name="uni044F" unicode="&#x44f;" horiz-adv-x="474" 
d="M450 480l-91 -480h-81l39 204h-49q-52 0 -84 -23.5t-57 -74.5q-42 -86 -54 -106h-88q12 19 22.5 39.5t23 47t20.5 41.5q47 88 124 104v2q-42 10 -71.5 38t-29.5 70q0 44 21.5 74.5t58.5 46t74.5 21.5t80.5 6q67 0 141 -10zM328 263l31 162q-27 6 -65 6q-134 0 -134 -90
q0 -38 37 -58t80 -20h51z" />
    <glyph glyph-name="uni0451" unicode="&#x451;" horiz-adv-x="453" 
d="M365 89l12 -62q-68 -38 -160 -38q-91 0 -137.5 54.5t-46.5 140.5q0 74 32.5 145t94.5 118.5t137 47.5q67 0 104.5 -35t37.5 -90q0 -162 -322 -157q-3 -15 -0.5 -44t10.5 -48q28 -65 108 -65q68 0 130 33zM359 369q0 29 -20 45t-54 16q-56 0 -99 -45.5t-60 -107.5
q233 -4 233 92zM221 570q-20 0 -33.5 14t-13.5 35q0 22 15 37.5t37 15.5q21 0 34 -14t13 -35q0 -22 -14.5 -37.5t-37.5 -15.5zM403 570q-20 0 -33 14t-13 35q0 22 15 37.5t37 15.5q21 0 34 -14t13 -35q0 -22 -15 -37.5t-38 -15.5z" />
    <glyph glyph-name="uni0452" unicode="&#x452;" horiz-adv-x="532" 
d="M163 710h82l-16 -85h252l-14 -59h-249l-29 -152h2q65 78 154 78q75 0 112 -55.5t37 -147.5q0 -111 -39 -214.5t-115 -162.5q-57 -55 -138 -68l-16 69q53 11 99 52q56 43 89.5 130t33.5 181q0 147 -95 147q-52 0 -95.5 -47.5t-54.5 -106.5l-51 -269h-84l108 566h-62l13 59
h61z" />
    <glyph glyph-name="uni0453" unicode="&#x453;" horiz-adv-x="367" 
d="M113 403l-14 58q58 33 127 33q63 -1 97 -33t34 -85q0 -56 -38 -90t-111 -67q-54 -25 -81.5 -48t-27.5 -56q0 -27 17.5 -43.5t53.5 -17.5q57 -1 116 33l13 -60q-65 -39 -145 -37q-65 2 -102.5 34t-37.5 90q0 32 11.5 57t36 45t45.5 32t57 29q72 34 91 52q21 21 21 45
t-17 39t-49 16q-43 1 -97 -26zM303 686h100l-133 -143h-65z" />
    <glyph glyph-name="uni0454" unicode="&#x454;" horiz-adv-x="422" 
d="M435 466l-25 -61q-41 24 -96 24q-70 0 -119 -43.5t-66 -111.5h229l-11 -58h-227q-1 -9 -1 -24q3 -60 40 -98t102 -38q53 0 100 21l11 -59q-54 -28 -137 -28q-92 0 -146 57.5t-54 152.5q0 122 78 210q80 85 202 85q71 0 120 -29z" />
    <glyph glyph-name="uni0455" unicode="&#x455;" horiz-adv-x="373" 
d="M9 23l24 61q49 -30 104 -30q41 0 66.5 23t25.5 56q0 29 -15 48.5t-53 40.5q-87 48 -87 124q0 64 49.5 106.5t125.5 42.5q65 0 101 -24l-23 -63q-37 22 -84 22q-37 0 -61.5 -20.5t-24.5 -52.5q0 -25 16 -43.5t51 -37.5q90 -50 90 -127q0 -74 -52.5 -117t-131.5 -42
q-78 0 -121 33z" />
    <glyph glyph-name="uni0456" unicode="&#x456;" horiz-adv-x="229" 
d="M111 0h-83l92 484h83zM183 572q-22 0 -35.5 15.5t-13.5 38.5q1 25 17.5 42t39.5 17t37.5 -15.5t14.5 -38.5q-1 -26 -17.5 -42.5t-42.5 -16.5z" />
    <glyph glyph-name="uni0457" unicode="&#x457;" horiz-adv-x="229" 
d="M111 0h-83l92 484h83zM89 570q-20 0 -33.5 14t-13.5 35q0 22 15 37.5t37 15.5q21 0 34 -14t13 -35q0 -22 -14.5 -37.5t-37.5 -15.5zM271 570q-20 0 -33 14t-13 35q0 22 15 37.5t37 15.5q21 0 34 -14t13 -35q0 -22 -15 -37.5t-38 -15.5z" />
    <glyph glyph-name="uni0458" unicode="&#x458;" horiz-adv-x="227" 
d="M126 484h82l-91 -483q-22 -119 -62 -163q-41 -47 -111 -47q-36 0 -55 6l10 65q12 -4 38 -4q34 0 57.5 27.5t36.5 98.5zM184 572q-22 0 -35.5 15t-13.5 38q0 25 16.5 42.5t40.5 17.5q23 0 37 -14.5t15 -38.5q-1 -26 -17.5 -43t-42.5 -17z" />
    <glyph glyph-name="uni0459" unicode="&#x459;" horiz-adv-x="735" 
d="M152 484h315l-44 -220h2q58 61 141 61q57 0 92 -33.5t35 -92.5q0 -87 -66.5 -146.5t-169.5 -59.5q-140 0 -140 108q0 26 10 84l47 233h-156l-24 -125q-21 -110 -49.5 -173t-76.5 -93q-42 -32 -95 -32l-7 67q32 2 54 19q65 42 96 210zM471 55q55 0 97.5 35.5t42.5 91.5
q0 37 -19 59t-55 22q-39 0 -75.5 -29t-52.5 -66q-10 -23 -10 -52q0 -61 72 -61z" />
    <glyph glyph-name="uni045A" unicode="&#x45a;" horiz-adv-x="747" 
d="M120 484h83l-35 -184h194l35 184h82l-45 -219h2q24 27 61.5 43.5t74.5 16.5q58 0 95.5 -34.5t37.5 -93.5q0 -87 -66.5 -145.5t-171.5 -58.5q-140 0 -140 104q0 28 10 72l13 66h-195l-44 -235h-83zM482 55q58 0 99.5 35.5t41.5 91.5q0 36 -20.5 58.5t-58.5 22.5
q-41 0 -77 -30.5t-49 -71.5q-9 -29 -9 -48q0 -27 20 -42.5t53 -15.5z" />
    <glyph glyph-name="uni045B" unicode="&#x45b;" horiz-adv-x="534" 
d="M164 710h83l-17 -86h245l-13 -58h-243l-32 -167h2q68 96 172 96q48 0 84.5 -31.5t36.5 -98.5q0 -42 -8 -82l-54 -283h-83l53 280q7 28 7 65q0 36 -18 58.5t-57 22.5q-50 0 -100.5 -52.5t-64.5 -130.5l-45 -243h-83l108 566h-67l12 58h66z" />
    <glyph glyph-name="uni045C" unicode="&#x45c;" horiz-adv-x="456" 
d="M121 484h81l-40 -214h18l210 214h100l-236 -222q38 -10 62.5 -43t43.5 -93q6 -18 14.5 -46t15 -47.5t12.5 -32.5h-81q-7 15 -19.5 56.5t-20.5 61.5q-21 57 -45.5 78t-69.5 21h-15l-41 -217h-81zM346 686h99l-133 -143h-65z" />
    <glyph glyph-name="uni045E" unicode="&#x45e;" horiz-adv-x="438" 
d="M47 484h87l48 -260q21 -105 24 -130h2q3 6 21 47t32 73l118 270h88q-120 -259 -175 -370q-87 -170 -171 -252q-36 -37 -74.5 -57.5t-65.5 -26.5l-21 72q53 18 89 46q55 42 94 112q5 10 2 22zM167 683h61q-3 -32 11 -53t40 -20q51 0 72 73h63q-13 -57 -49.5 -89t-90.5 -32
q-61 0 -86.5 34.5t-20.5 86.5z" />
    <glyph glyph-name="uni045F" unicode="&#x45f;" horiz-adv-x="526" 
d="M113 484h82l-51 -270q-8 -43 -8 -71q0 -84 77 -84q48 0 95.5 50.5t61.5 126.5l47 248h83l-65 -343q-13 -73 -22 -141h-74l12 91h-2q-32 -47 -78 -74.5t-92 -27.5q-54 0 -91 32t-37 108q0 34 9 82zM212 -192l-68 -9l31 157l78 7z" />
    <glyph glyph-name="uni0490" unicode="&#x490;" horiz-adv-x="400" 
d="M158 674h253l40 126h67l-49 -199h-242l-112 -601h-84z" />
    <glyph glyph-name="uni0491" unicode="&#x491;" horiz-adv-x="372" 
d="M120 484h212l38 110h64l-46 -177h-199l-78 -417h-82z" />
    <glyph glyph-name="uni04D9" unicode="&#x4d9;" horiz-adv-x="444" 
d="M85 394l-14 62q70 39 161 39q92 0 138 -54.5t46 -140.5q0 -74 -32.5 -145t-94 -118.5t-136.5 -47.5q-68 0 -105.5 35t-37.5 90q0 162 322 157q9 49 -9 91q-29 66 -108 66q-68 0 -130 -34zM165 54q55 0 98.5 45.5t59.5 107.5q-233 4 -233 -91q0 -29 20.5 -45.5t54.5 -16.5
z" />
    <glyph glyph-name="Wgrave" unicode="&#x1e80;" horiz-adv-x="829" 
d="M219 0h-89l-33 674h84l14 -404q2 -71 0 -176h2q28 76 70 171l187 409h88l14 -388q4 -111 2 -190h2q33 95 66 173l181 405h87l-312 -674h-88l-17 383q-5 92 2 194h-3q-40 -115 -68 -177zM365 828h104l74 -117h-67z" />
    <glyph glyph-name="wgrave" unicode="&#x1e81;" horiz-adv-x="707" 
d="M61 484h82l17 -272q4 -58 2 -130h3q18 52 53 121l143 281h73l30 -276q8 -85 8 -126h2q23 69 46 123l131 279h84l-239 -484h-77l-32 263q-7 63 -7 129h-2q-43 -102 -56 -126l-139 -266h-77zM292 686h93l67 -143h-60z" />
    <glyph glyph-name="Wacute" unicode="&#x1e82;" horiz-adv-x="829" 
d="M219 0h-89l-33 674h84l14 -404q2 -71 0 -176h2q28 76 70 171l187 409h88l14 -388q4 -111 2 -190h2q33 95 66 173l181 405h87l-312 -674h-88l-17 383q-5 92 2 194h-3q-40 -115 -68 -177zM552 828h109l-137 -118h-74z" />
    <glyph glyph-name="wacute" unicode="&#x1e83;" horiz-adv-x="707" 
d="M61 484h82l17 -272q4 -58 2 -130h3q18 52 53 121l143 281h73l30 -276q8 -85 8 -126h2q23 69 46 123l131 279h84l-239 -484h-77l-32 263q-7 63 -7 129h-2q-43 -102 -56 -126l-139 -266h-77zM457 686h100l-133 -143h-65z" />
    <glyph glyph-name="Wdieresis" unicode="&#x1e84;" horiz-adv-x="829" 
d="M219 0h-89l-33 674h84l14 -404q2 -71 0 -176h2q28 76 70 171l187 409h88l14 -388q4 -111 2 -190h2q33 95 66 173l181 405h87l-312 -674h-88l-17 383q-5 92 2 194h-3q-40 -115 -68 -177zM421 720h-2q-19 0 -32.5 14t-13.5 34q0 22 15 37.5t37 15.5q21 0 34 -14.5t13 -33.5
q0 -22 -15 -37.5t-36 -15.5zM604 720q-19 0 -32.5 14t-13.5 34q0 22 15 37.5t37 15.5q21 0 34 -14.5t13 -33.5q0 -22 -15.5 -37.5t-37.5 -15.5z" />
    <glyph glyph-name="wdieresis" unicode="&#x1e85;" horiz-adv-x="707" 
d="M61 484h82l17 -272q4 -58 2 -130h2q26 66 53 121l144 281h73l31 -276q8 -87 7 -126h3q22 67 45 123l131 279h85l-239 -484h-78l-32 263q-7 63 -7 129h-2q-43 -102 -56 -126l-139 -266h-77zM328 570q-20 0 -33.5 14t-13.5 35q0 22 15 37.5t37 15.5q21 0 34.5 -14t13.5 -35
q0 -22 -15 -37.5t-38 -15.5zM511 570q-20 0 -33 14t-13 35q0 22 15 37.5t37 15.5q21 0 34 -14t13 -35q0 -22 -15 -37.5t-38 -15.5z" />
    <glyph glyph-name="uni1EA0" unicode="&#x1ea0;" horiz-adv-x="568" 
d="M400 213h-232l-107 -213h-88l349 674h97l94 -674h-85zM198 279h196l-26 195q-8 66 -12 124h-2q-3 -6 -23 -52.5t-32 -70.5zM220 -181q-21 0 -35 15t-14 36q0 20 14.5 35t35.5 15q20 0 34 -15t14 -35q0 -21 -14 -36t-35 -15z" />
    <glyph glyph-name="uni1EA1" unicode="&#x1ea1;" horiz-adv-x="522" 
d="M427 0h-78q0 33 11 125h-2q-70 -136 -188 -136q-63 0 -101 45t-38 115q0 87 38.5 164.5t117 129.5t179.5 52q70 0 131 -18l-50 -253q-24 -124 -20 -224zM375 276l28 146q-19 7 -57 7q-93 0 -161 -81t-68 -184q0 -107 83 -107q54 0 106 62.5t69 156.5zM201 -183
q-21 0 -35.5 15t-14.5 36q0 22 15 37t36 15t35 -15t14 -37q0 -21 -14 -36t-36 -15z" />
    <glyph glyph-name="uni1EA2" unicode="&#x1ea2;" horiz-adv-x="568" 
d="M400 213h-232l-107 -213h-88l349 674h97l94 -674h-85zM198 279h196l-26 195q-8 66 -12 124h-2q-3 -6 -23 -52.5t-32 -70.5zM392 708l-43 15q9 17 35 42t26 44q0 12 -8 20.5t-21 8.5q-25 0 -53 -34l-30 21q41 64 102 64q33 0 54.5 -19.5t21.5 -47.5q0 -19 -9 -34.5
t-20.5 -25t-28 -25t-26.5 -29.5z" />
    <glyph glyph-name="uni1EA3" unicode="&#x1ea3;" horiz-adv-x="522" 
d="M427 0h-78q0 33 11 125h-2q-70 -136 -188 -136q-63 0 -101 45t-38 115q0 87 38.5 164.5t117 129.5t179.5 52q70 0 131 -18l-50 -253q-24 -124 -20 -224zM375 276l28 146q-19 7 -57 7q-93 0 -161 -81t-68 -184q0 -107 83 -107q54 0 106 62.5t69 156.5zM341 531l-47 14
q7 18 37.5 46.5t30.5 50.5q0 13 -8 21.5t-21 8.5q-28 0 -55 -37l-32 21q41 67 106 67q34 0 54.5 -19.5t20.5 -48.5q0 -27 -15 -47.5t-38 -40.5t-33 -36z" />
    <glyph glyph-name="uni1EA4" unicode="&#x1ea4;" horiz-adv-x="568" 
d="M400 213h-232l-107 -213h-88l349 674h97l94 -674h-85zM198 279h196l-26 195q-8 66 -12 124h-2q-3 -6 -23 -52.5t-32 -70.5zM368 824h62l66 -114h-67l-37 69h-2l-69 -69h-75zM562 897h83l-122 -103h-50z" />
    <glyph glyph-name="uni1EA5" unicode="&#x1ea5;" horiz-adv-x="522" 
d="M427 0h-78q0 33 11 125h-2q-70 -136 -188 -136q-63 0 -101 45t-38 115q0 87 38.5 164.5t117 129.5t179.5 52q70 0 131 -18l-50 -253q-24 -124 -20 -224zM375 276l28 146q-19 7 -57 7q-93 0 -161 -81t-68 -184q0 -107 83 -107q54 0 106 62.5t69 156.5zM324 693h64l63 -143
h-64l-36 94h-2l-65 -94h-67zM527 771h83l-121 -130h-51z" />
    <glyph glyph-name="uni1EA6" unicode="&#x1ea6;" horiz-adv-x="568" 
d="M400 213h-232l-107 -213h-88l349 674h97l94 -674h-85zM198 279h196l-26 195q-8 66 -12 124h-2q-3 -6 -23 -52.5t-32 -70.5zM431 881h83l59 -105h-49zM368 824h62l66 -114h-67l-37 69h-2l-69 -69h-75z" />
    <glyph glyph-name="uni1EA7" unicode="&#x1ea7;" horiz-adv-x="522" 
d="M427 0h-78q0 33 11 125h-2q-70 -136 -187 -136q-63 0 -101 45t-39 115q0 87 38.5 164.5t117 129.5t179.5 52q70 0 131 -18l-50 -253q-24 -124 -20 -224zM375 276l28 146q-19 7 -57 7q-93 0 -161 -81t-68 -184q0 -107 83 -107q54 0 105.5 62.5t69.5 156.5zM383 773h76
l66 -130h-46zM314 693h65l63 -143h-64l-37 94h-2l-64 -94h-68z" />
    <glyph glyph-name="uni1EA8" unicode="&#x1ea8;" horiz-adv-x="568" 
d="M400 213h-232l-107 -213h-88l349 674h97l94 -674h-85zM198 279h196l-26 195q-8 69 -12 124h-2q-3 -6 -23 -52.5t-32 -70.5zM536 754l-41 17q9 16 36 38.5t27 40.5q0 12 -9.5 20.5t-22.5 8.5q-26 0 -52 -30l-27 27q38 50 96 50q33 0 54 -18.5t21 -46.5q0 -23 -13.5 -40.5
t-36 -35t-32.5 -31.5zM370 824h62l66 -114h-67l-37 69h-2l-69 -69h-75z" />
    <glyph glyph-name="uni1EA9" unicode="&#x1ea9;" horiz-adv-x="522" 
d="M427 0h-78q0 33 11 125h-2q-70 -136 -188 -136q-63 0 -101 45t-38 115q0 87 38.5 164.5t117 129.5t179.5 52q70 0 131 -18l-50 -253q-24 -124 -20 -224zM375 276l28 146q-19 7 -57 7q-93 0 -161 -81t-68 -184q0 -107 83 -107q54 0 106 62.5t69 156.5zM314 693h65l63 -143
h-64l-37 94h-2l-64 -94h-68zM482 634l-41 17q9 16 35.5 39t26.5 40q0 12 -9 20t-22 8q-25 0 -53 -30l-26 28q38 50 95 50q33 0 54.5 -18.5t21.5 -46.5q0 -23 -14 -40.5t-36.5 -35.5t-31.5 -31z" />
    <glyph glyph-name="uni1EAA" unicode="&#x1eaa;" horiz-adv-x="568" 
d="M400 213h-232l-107 -213h-88l349 674h97l94 -674h-85zM198 279h196l-26 195q-8 69 -12 124h-2q-3 -6 -23 -52.5t-32 -70.5zM329 837h-48q5 42 26 67.5t52 25.5q22 0 59 -22q30 -16 40 -16q24 0 32 41h46q-10 -92 -78 -92q-21 0 -57 20q-31 17 -42 17q-23 0 -30 -41z
M369 824h61l67 -114h-68l-36 69h-2l-69 -69h-75z" />
    <glyph glyph-name="uni1EAB" unicode="&#x1eab;" horiz-adv-x="522" 
d="M427 0h-78q0 33 11 125h-2q-71 -136 -188 -136q-63 0 -101 45t-38 115q0 87 38.5 164.5t117 129.5t179.5 52q70 0 131 -18l-50 -253q-24 -124 -20 -224zM375 276l28 146q-19 7 -57 7q-93 0 -161 -81t-68 -184q0 -107 83 -107q54 0 106 62.5t69 156.5zM279 687h-48
q5 42 26 67.5t53 25.5q20 0 59 -21q27 -16 40 -16q23 0 31 40h47q-10 -92 -78 -92q-21 0 -58 21q-30 16 -41 16q-24 0 -31 -41zM319 670h59l63 -120h-61l-35 73h-2l-57 -73h-68z" />
    <glyph glyph-name="uni1EAC" unicode="&#x1eac;" horiz-adv-x="568" 
d="M400 213h-232l-107 -213h-88l349 674h97l94 -674h-85zM198 279h196l-26 195q-8 66 -12 124h-2q-3 -6 -23 -52.5t-32 -70.5zM362 828h65l80 -118h-68l-49 72h-2l-72 -72h-74zM220 -181q-21 0 -35 15t-14 36q0 20 14.5 35t35.5 15q20 0 34 -15t14 -35q0 -21 -14 -36
t-35 -15z" />
    <glyph glyph-name="uni1EAD" unicode="&#x1ead;" horiz-adv-x="522" 
d="M427 0h-78q0 33 11 125h-2q-70 -136 -188 -136q-63 0 -101 45t-38 115q0 87 38.5 164.5t117 129.5t179.5 52q70 0 131 -18l-50 -253q-24 -124 -20 -224zM375 276l28 146q-19 7 -57 7q-93 0 -161 -81t-68 -184q0 -107 83 -107q54 0 106 62.5t69 156.5zM327 686h59l69 -143
h-62l-43 91h-2l-70 -91h-67zM209 -183q-21 0 -35.5 15t-14.5 36q0 22 15 37t36 15t35 -15t14 -37q0 -21 -14 -36t-36 -15z" />
    <glyph glyph-name="uni1EAE" unicode="&#x1eae;" horiz-adv-x="568" 
d="M400 213h-232l-107 -213h-88l349 674h97l94 -674h-85zM198 279h196l-26 195q-8 66 -12 124h-2q-3 -6 -23 -52.5t-32 -70.5zM429 895h88l-120 -105h-49zM266 802h50q0 -23 15 -37.5t47 -14.5q63 0 76 52h52q-7 -45 -41 -74t-91 -29q-60 0 -87 29t-21 74z" />
    <glyph glyph-name="uni1EAF" unicode="&#x1eaf;" horiz-adv-x="522" 
d="M427 0h-78q0 33 11 125h-2q-70 -136 -188 -136q-63 0 -101 45t-38 115q0 87 38.5 164.5t117 129.5t179.5 52q70 0 131 -18l-50 -253q-24 -124 -20 -224zM375 276l27 146q-19 7 -57 7q-92 0 -160 -81t-68 -184q0 -107 83 -107q54 0 105.5 62.5t69.5 156.5zM387 773h84
l-111 -132h-53zM226 654h49q-2 -29 14.5 -48.5t45.5 -19.5q33 0 54 20t28 48h53q-10 -55 -47.5 -88t-89.5 -33q-62 0 -88 35.5t-19 85.5z" />
    <glyph glyph-name="uni1EB0" unicode="&#x1eb0;" horiz-adv-x="568" 
d="M400 213h-232l-107 -213h-88l349 674h97l94 -674h-85zM198 279h196l-26 195q-8 66 -12 124h-2q-3 -6 -23 -52.5t-32 -70.5zM270 897h89l61 -105h-49zM266 802h50q0 -23 15 -37.5t47 -14.5q63 0 77 52h52q-8 -45 -42 -74t-91 -29q-60 0 -87 29.5t-21 73.5z" />
    <glyph glyph-name="uni1EB1" unicode="&#x1eb1;" horiz-adv-x="522" 
d="M427 0h-78q0 33 11 125h-2q-71 -136 -188 -136q-63 0 -101 45t-38 115q0 87 38.5 164.5t117 129.5t179.5 52q70 0 131 -18l-50 -253q-24 -124 -20 -224zM375 276l28 146q-21 7 -58 7q-92 0 -160 -81t-68 -184q0 -107 83 -107q54 0 106 62.5t69 156.5zM230 774h83l66 -133
h-51zM224 653h49q-2 -29 14.5 -48.5t45.5 -19.5q34 0 54.5 20t28.5 48h52q-9 -54 -47 -87t-90 -33q-62 0 -88 35t-19 85z" />
    <glyph glyph-name="uni1EB2" unicode="&#x1eb2;" horiz-adv-x="568" 
d="M400 213h-232l-107 -213h-87l348 674h97l94 -674h-85zM198 279h196l-26 195q-8 66 -12 124h-2q-3 -6 -23 -52.5t-32 -70.5zM393 781l-41 17q9 16 35.5 39t26.5 40q0 12 -9 20.5t-22 8.5q-25 0 -53 -30l-26 27q38 50 95 50q33 0 54.5 -18.5t21.5 -46.5q0 -23 -14 -40.5
t-36 -35t-32 -31.5zM268 802h50q0 -23 15 -37.5t47 -14.5q63 0 77 52h52q-8 -45 -41.5 -74t-90.5 -29q-61 0 -88 29t-21 74z" />
    <glyph glyph-name="uni1EB3" unicode="&#x1eb3;" horiz-adv-x="522" 
d="M427 0h-78q0 33 11 125h-2q-70 -136 -188 -136q-63 0 -101 45t-38 115q0 87 38.5 164.5t117 129.5t179.5 52q70 0 131 -18l-50 -253q-24 -124 -20 -224zM375 276l28 146q-19 7 -57 7q-93 0 -161 -81t-68 -184q0 -107 83 -107q54 0 105.5 62.5t69.5 156.5zM224 655h49
q-2 -29 14.5 -48.5t45.5 -19.5q34 0 55 20t28 48h53q-10 -55 -47.5 -87.5t-89.5 -32.5q-63 0 -89 35t-19 85zM348 634l-41 18q9 16 35.5 39t26.5 40q0 12 -9 20t-22 8q-25 0 -53 -30l-26 27q37 51 96 51q33 0 54 -18.5t21 -46.5q0 -23 -14 -41t-36 -35.5t-32 -31.5z" />
    <glyph glyph-name="uni1EB4" unicode="&#x1eb4;" horiz-adv-x="568" 
d="M400 213h-232l-107 -213h-88l349 674h97l94 -674h-85zM198 279h196l-26 195q-8 66 -12 124h-2q-3 -6 -23 -52.5t-32 -70.5zM265 802h52q-1 -23 13.5 -37.5t46.5 -14.5q61 0 75 52h54q-8 -45 -41.5 -74t-90.5 -29q-61 0 -88 29t-21 74zM313 833h-47q7 40 28.5 66.5
t51.5 26.5q29 0 60 -21q27 -18 44 -18q22 0 34 41h46q-15 -97 -83 -97q-26 0 -59 19q-32 19 -43 18q-22 0 -32 -35z" />
    <glyph glyph-name="uni1EB5" unicode="&#x1eb5;" horiz-adv-x="522" 
d="M427 0h-78q0 33 11 125h-2q-70 -136 -188 -136q-63 0 -101 45t-38 115q0 87 38.5 164.5t117 129.5t179.5 52q70 0 131 -18l-50 -253q-24 -124 -20 -224zM375 276l28 146q-19 7 -57 7q-93 0 -161 -81t-68 -184q0 -107 83 -107q54 0 106 62.5t69 156.5zM228 654h50
q-2 -29 13 -48.5t43 -19.5q60 0 79 68h52q-9 -55 -45 -87.5t-88 -32.5q-62 0 -86.5 34.5t-17.5 85.5zM275 689h-46q7 40 28.5 66.5t51.5 26.5q29 0 60 -21q27 -18 44 -18q24 0 34 40h47q-17 -96 -83 -96q-28 0 -60 19t-43 18q-21 0 -33 -35z" />
    <glyph glyph-name="uni1EB6" unicode="&#x1eb6;" horiz-adv-x="568" 
d="M400 213h-232l-107 -213h-88l349 674h97l94 -674h-85zM198 279h196l-26 195q-8 66 -12 124h-2q-3 -6 -23 -52.5t-32 -70.5zM275 835h52q0 -54 61 -54q62 0 76 54h54q-8 -46 -42 -76t-91 -30q-62 0 -89 30t-21 76zM217 -181q-21 0 -35 15t-14 36q0 20 14.5 35t35.5 15
q20 0 34 -15t14 -35q0 -21 -14 -36t-35 -15z" />
    <glyph glyph-name="uni1EB7" unicode="&#x1eb7;" horiz-adv-x="522" 
d="M427 0h-78q0 33 11 125h-2q-70 -136 -188 -136q-63 0 -101 45t-38 115q0 87 38.5 164.5t117 129.5t179.5 52q70 0 131 -18l-50 -253q-24 -124 -20 -224zM375 276l28 146q-21 7 -58 7q-92 0 -160 -81t-68 -184q0 -107 83 -107q53 0 105 62.5t70 156.5zM234 683h50
q-2 -29 13 -48.5t42 -19.5q61 0 80 68h52q-9 -55 -45 -88t-88 -33q-62 0 -86.5 35t-17.5 86zM206 -183q-21 0 -35.5 15t-14.5 36q0 22 15 37t36 15t35 -15t14 -37q0 -21 -14 -36t-36 -15z" />
    <glyph glyph-name="uni1EB8" unicode="&#x1eb8;" horiz-adv-x="470" 
d="M433 387l-14 -70h-245l-46 -246h276l-14 -71h-359l128 674h344l-14 -71h-260l-41 -216h245zM191 -181q-21 0 -35 15t-14 36q0 20 14.5 35t35.5 15q20 0 34 -15t14 -35q0 -21 -14 -36t-35 -15z" />
    <glyph glyph-name="uni1EB9" unicode="&#x1eb9;" horiz-adv-x="453" 
d="M365 89l12 -62q-68 -38 -160 -38q-91 0 -137.5 54.5t-46.5 140.5q0 74 32.5 145t94.5 118.5t137 47.5q67 0 104.5 -35t37.5 -90q0 -162 -322 -157q-3 -15 -0.5 -44t10.5 -48q28 -65 108 -65q68 0 130 33zM359 369q0 29 -20 45t-54 16q-56 0 -99 -45.5t-60 -107.5
q233 -4 233 92zM186 -183q-21 0 -35.5 15t-14.5 36q0 22 15 37t36 15t35 -15t14 -37q0 -21 -14 -36t-36 -15z" />
    <glyph glyph-name="uni1EBA" unicode="&#x1eba;" horiz-adv-x="470" 
d="M433 387l-14 -70h-245l-46 -246h276l-14 -71h-359l128 674h344l-14 -71h-260l-41 -216h245zM348 708l-44 15q9 17 35 42t26 44q0 12 -8 20.5t-21 8.5q-25 0 -53 -34l-30 21q41 64 103 64q33 0 54 -19.5t21 -47.5q0 -24 -13 -41.5t-35.5 -36.5t-34.5 -36z" />
    <glyph glyph-name="uni1EBB" unicode="&#x1ebb;" horiz-adv-x="453" 
d="M365 89l12 -62q-68 -38 -160 -38q-91 0 -137.5 54.5t-46.5 140.5q0 74 32.5 145t94.5 118.5t137 47.5q67 0 104.5 -35t37.5 -90q0 -162 -322 -157q-3 -15 -0.5 -44t10.5 -48q28 -65 108 -65q68 0 130 33zM359 369q0 29 -20 45t-54 16q-56 0 -99 -45.5t-60 -107.5
q233 -4 233 92zM306 531l-46 13q7 19 37 47.5t30 50.5q0 13 -8 21.5t-21 8.5q-28 0 -55 -37l-32 21q41 67 106 67q34 0 54.5 -19.5t20.5 -48.5q0 -21 -10 -39t-22.5 -29t-28.5 -26.5t-25 -29.5z" />
    <glyph glyph-name="uni1EBC" unicode="&#x1ebc;" horiz-adv-x="470" 
d="M433 387l-14 -70h-245l-46 -246h276l-14 -71h-359l128 674h344l-14 -71h-260l-41 -216h245zM261 716h-47q8 45 30 72.5t52 27.5q28 0 60 -21q27 -18 44 -18q23 0 35 40h46q-17 -96 -83 -96q-27 0 -60 20q-32 19 -43 18q-23 0 -34 -43z" />
    <glyph glyph-name="uni1EBD" unicode="&#x1ebd;" horiz-adv-x="453" 
d="M365 89l12 -62q-68 -38 -160 -38q-91 0 -137.5 54.5t-46.5 140.5q0 74 32.5 145t94.5 118.5t137 47.5q67 0 104.5 -35t37.5 -90q0 -162 -322 -157q-3 -15 -0.5 -44t10.5 -48q28 -65 108 -65q68 0 130 33zM359 369q0 29 -20 45t-54 16q-56 0 -99 -45.5t-60 -107.5
q233 -4 233 92zM227 568h-48q5 45 25.5 72.5t51.5 27.5q22 0 61 -22q26 -17 40 -17q13 0 19.5 8.5t10.5 33.5h47q-12 -96 -77 -96q-27 0 -59 20q-28 18 -42 18q-20 0 -29 -45z" />
    <glyph glyph-name="uni1EBE" unicode="&#x1ebe;" horiz-adv-x="470" 
d="M433 387l-14 -70h-245l-46 -246h276l-14 -71h-359l128 674h344l-14 -71h-260l-41 -216h245zM335 824h61l67 -114h-68l-36 69h-2l-69 -69h-76zM529 897h83l-122 -103h-50z" />
    <glyph glyph-name="uni1EBF" unicode="&#x1ebf;" horiz-adv-x="453" 
d="M365 89l12 -62q-68 -38 -160 -38q-91 0 -137.5 54.5t-46.5 140.5q0 74 32.5 145t94.5 118.5t137 47.5q67 0 104.5 -35t37.5 -90q0 -162 -322 -157q-3 -15 -0.5 -44t10.5 -48q28 -65 108 -65q68 0 130 33zM359 369q0 29 -20 45t-54 16q-56 0 -99 -45.5t-60 -107.5
q233 -4 233 92zM277 693h64l63 -143h-64l-36 94h-3l-64 -94h-67zM480 771h83l-121 -130h-51z" />
    <glyph glyph-name="uni1EC0" unicode="&#x1ec0;" horiz-adv-x="470" 
d="M433 387l-14 -70h-245l-46 -246h276l-14 -71h-359l128 674h344l-14 -71h-260l-41 -216h245zM394 881h83l60 -105h-50zM332 824h61l66 -114h-67l-36 69h-2l-70 -69h-75z" />
    <glyph glyph-name="uni1EC1" unicode="&#x1ec1;" horiz-adv-x="453" 
d="M365 89l12 -62q-68 -38 -160 -38q-91 0 -137.5 54.5t-46.5 140.5q0 74 32.5 145t94.5 118.5t137 47.5q67 0 104.5 -35t37.5 -90q0 -162 -322 -157q-3 -15 -0.5 -44t10.5 -48q28 -65 108 -65q68 0 130 33zM359 369q0 29 -20 45t-54 16q-56 0 -99 -45.5t-60 -107.5
q233 -4 233 92zM346 773h75l67 -130h-46zM277 693h64l63 -143h-63l-37 94h-3l-63 -94h-68z" />
    <glyph glyph-name="uni1EC2" unicode="&#x1ec2;" horiz-adv-x="470" 
d="M433 387l-14 -70h-244l-47 -246h276l-14 -71h-358l128 674h343l-14 -71h-260l-41 -216h245zM500 754l-41 17q9 16 35.5 39t26.5 40q0 12 -9 20.5t-22 8.5q-26 0 -52 -30l-27 27q38 50 96 50q33 0 54 -18.5t21 -46.5q0 -23 -14 -40.5t-36 -35t-32 -31.5zM334 824h61
l67 -114h-68l-36 69h-2l-69 -69h-76z" />
    <glyph glyph-name="uni1EC3" unicode="&#x1ec3;" horiz-adv-x="453" 
d="M365 89l12 -62q-68 -38 -160 -38q-91 0 -137.5 54.5t-46.5 140.5q0 74 32.5 145t94.5 118.5t137 47.5q67 0 104.5 -35t37.5 -90q0 -162 -322 -157q-3 -15 -0.5 -44t10.5 -48q28 -65 108 -65q68 0 130 33zM359 369q0 29 -20 45t-54 16q-56 0 -99 -45.5t-60 -107.5
q233 -4 233 92zM277 693h64l63 -143h-63l-37 94h-3l-63 -94h-68zM445 634l-41 17q9 16 35.5 39t26.5 40q0 12 -9 20t-23 8q-24 0 -52 -30l-26 28q38 50 95 50q33 0 54 -18.5t21 -46.5q0 -23 -13.5 -40.5t-36 -35.5t-31.5 -31z" />
    <glyph glyph-name="uni1EC4" unicode="&#x1ec4;" horiz-adv-x="470" 
d="M433 387l-14 -70h-244l-47 -246h276l-14 -71h-358l128 674h343l-14 -71h-260l-41 -216h245zM290 837h-47q5 43 25.5 68t52.5 25q21 0 59 -21q27 -16 40 -16q24 0 32 40h46q-10 -92 -78 -92q-20 0 -58 20q-29 17 -41 17q-22 0 -31 -41zM331 824h61l67 -114h-68l-36 69h-2
l-69 -69h-76z" />
    <glyph glyph-name="uni1EC5" unicode="&#x1ec5;" horiz-adv-x="453" 
d="M365 89l12 -62q-68 -38 -160 -38q-91 0 -137.5 54.5t-46.5 140.5q0 74 32.5 145t94.5 118.5t137 47.5q67 0 104.5 -35t37.5 -90q0 -162 -322 -157q-3 -15 -0.5 -44t10.5 -48q28 -65 107 -65q69 0 131 33zM359 369q0 29 -20 45t-54 16q-56 0 -99 -45.5t-60 -107.5
q233 -4 233 92zM242 687h-48q5 43 26 68t53 25q21 0 59 -21q27 -16 40 -16q23 0 31 40h47q-10 -92 -78 -92q-21 0 -58 21q-30 16 -41 16q-22 0 -31 -41zM282 670h59l63 -120h-61l-35 73h-2l-56 -73h-69z" />
    <glyph glyph-name="uni1EC6" unicode="&#x1ec6;" horiz-adv-x="470" 
d="M433 387l-14 -70h-245l-46 -246h276l-14 -71h-359l128 674h344l-14 -71h-260l-41 -216h245zM322 828h65l80 -118h-68l-49 72h-2l-72 -72h-74zM193 -181q-21 0 -35 15t-14 36q0 20 14.5 35t35.5 15q20 0 34 -15t14 -35q0 -21 -14 -36t-35 -15z" />
    <glyph glyph-name="uni1EC7" unicode="&#x1ec7;" horiz-adv-x="453" 
d="M365 89l12 -62q-68 -38 -160 -38q-91 0 -137.5 54.5t-46.5 140.5q0 74 32.5 145t94.5 118.5t137 47.5q67 0 104.5 -35t37.5 -90q0 -162 -322 -157q-3 -15 -0.5 -44t10.5 -48q28 -65 108 -65q68 0 130 33zM359 369q0 29 -20 45t-54 16q-56 0 -99 -45.5t-60 -107.5
q233 -4 233 92zM285 686h59l69 -143h-62l-43 91h-2l-70 -91h-67zM186 -183q-21 0 -35.5 15t-14.5 36q0 22 15 37t36 15t35 -15t14 -37q0 -21 -14 -36t-36 -15z" />
    <glyph glyph-name="uni1EC8" unicode="&#x1ec8;" horiz-adv-x="233" 
d="M158 674h83l-128 -674h-83zM223 708l-44 15q9 17 35.5 42t26.5 44q0 12 -8 20.5t-21 8.5q-27 0 -53 -34l-31 21q43 64 103 64q33 0 54 -19.5t21 -47.5q0 -19 -8.5 -34.5t-20 -25t-28 -25t-26.5 -29.5z" />
    <glyph glyph-name="uni1EC9" unicode="&#x1ec9;" horiz-adv-x="229" 
d="M111 0h-83l92 484h83zM191 531l-46 14q7 18 37 46.5t30 50.5q0 13 -8 21.5t-21 8.5q-27 0 -54 -37l-32 21q41 67 106 67q33 0 53.5 -19.5t20.5 -48.5q0 -21 -10 -39t-22.5 -29t-28.5 -26.5t-25 -29.5z" />
    <glyph glyph-name="uni1ECA" unicode="&#x1eca;" horiz-adv-x="233" 
d="M158 674h83l-128 -674h-83zM48 -181q-21 0 -35 15t-14 36q0 20 14.5 35t35.5 15q20 0 34 -15t14 -35q0 -21 -14 -36t-35 -15z" />
    <glyph glyph-name="uni1ECB" unicode="&#x1ecb;" horiz-adv-x="229" 
d="M111 0h-83l93 484h82zM183 566q-21 0 -34 14.5t-13 37.5q1 24 16.5 40t37.5 16t36 -14.5t14 -37.5q-1 -25 -16.5 -40.5t-40.5 -15.5zM59 -183q-21 0 -35.5 15t-14.5 36q0 22 15 37t36 15t35 -15t14 -37q0 -21 -14 -36t-36 -15z" />
    <glyph glyph-name="uni1ECC" unicode="&#x1ecc;" horiz-adv-x="668" 
d="M402 685q128 0 191.5 -79t63.5 -197q0 -91 -32.5 -179.5t-90.5 -146.5q-94 -94 -231 -94q-83 0 -142.5 39.5t-86 100t-26.5 134.5q0 91 34 181.5t94 149.5q44 42 103.5 66.5t122.5 24.5zM391 615q-85 0 -154 -67q-47 -47 -74.5 -125.5t-27.5 -152.5q0 -91 44 -151
t137 -60q87 0 154 67q46 46 73 125.5t27 153.5q0 40 -7.5 74t-26 66.5t-55.5 51t-90 18.5zM253 -181q-21 0 -35 15t-14 36q0 20 14.5 35t35.5 15q20 0 34 -15t14 -35q0 -21 -14 -36t-35 -15z" />
    <glyph glyph-name="uni1ECD" unicode="&#x1ecd;" horiz-adv-x="522" 
d="M303 495q92 0 141 -59t49 -142q0 -119 -76 -212t-193 -93q-88 0 -138.5 57t-50.5 142q0 124 76.5 215.5t191.5 91.5zM294 429q-74 0 -123.5 -74.5t-49.5 -163.5q0 -60 31 -98t83 -38q71 0 121.5 75t50.5 164q0 52 -27 93.5t-86 41.5zM205 -183q-21 0 -35.5 15t-14.5 36
q0 22 15 37t36 15t35 -15t14 -37q0 -21 -14 -36t-36 -15z" />
    <glyph glyph-name="uni1ECE" unicode="&#x1ece;" horiz-adv-x="668" 
d="M402 685q128 0 191.5 -79t63.5 -197q0 -91 -32.5 -179.5t-90.5 -146.5q-94 -94 -231 -94q-83 0 -142.5 39.5t-86 100t-26.5 134.5q0 91 34 181.5t94 149.5q44 42 103.5 66.5t122.5 24.5zM391 615q-85 0 -154 -67q-47 -47 -74.5 -125.5t-27.5 -152.5q0 -91 44 -151
t137 -60q87 0 154 67q46 46 73 125.5t27 153.5q0 40 -7.5 74t-26 66.5t-55.5 51t-90 18.5zM437 708l-44 15q9 17 35 42t26 44q0 12 -8 20.5t-21 8.5q-26 0 -52 -34l-31 21q43 63 103 63q33 0 54 -19t21 -47q0 -24 -13 -41.5t-36 -36.5t-34 -36z" />
    <glyph glyph-name="uni1ECF" unicode="&#x1ecf;" horiz-adv-x="522" 
d="M303 495q92 0 141 -59t49 -142q0 -119 -76 -212t-193 -93q-88 0 -138.5 57t-50.5 142q0 124 76.5 215.5t191.5 91.5zM294 429q-74 0 -123.5 -74.5t-49.5 -163.5q0 -60 31 -98t83 -38q71 0 121.5 75t50.5 164q0 52 -27 93.5t-86 41.5zM339 531l-46 13q7 19 37 47.5
t30 50.5q0 13 -8 21.5t-21 8.5q-29 0 -54 -37l-33 21q43 67 106 67q34 0 54.5 -19.5t20.5 -48.5q0 -21 -10 -39t-22.5 -29t-28.5 -26.5t-25 -29.5z" />
    <glyph glyph-name="uni1ED0" unicode="&#x1ed0;" horiz-adv-x="668" 
d="M402 685q128 0 191.5 -79t63.5 -198q0 -90 -32.5 -178.5t-90.5 -146.5q-94 -94 -231 -94q-83 0 -142.5 39.5t-86 100t-26.5 134.5q0 91 34 181.5t94 149.5q44 42 103.5 66.5t122.5 24.5zM391 615q-86 0 -154 -68q-47 -47 -74.5 -125t-27.5 -152q0 -91 44 -151t137 -60
q87 0 154 67q46 46 73 125.5t27 153.5q0 40 -7.5 73.5t-26 66t-55.5 51.5t-90 19zM413 824h62l66 -114h-67l-36 69h-2l-70 -69h-75zM607 897h84l-123 -103h-50z" />
    <glyph glyph-name="uni1ED1" unicode="&#x1ed1;" horiz-adv-x="522" 
d="M303 495q92 0 141 -59t49 -142q0 -119 -76 -212t-193 -93q-88 0 -138.5 57t-50.5 142q0 124 76.5 215.5t191.5 91.5zM294 429q-74 0 -123.5 -74.5t-49.5 -163.5q0 -60 31 -98t83 -38q71 0 121.5 75t50.5 164q0 52 -27 93.5t-86 41.5zM301 693h64l63 -143h-64l-36 94h-2
l-65 -94h-67zM504 771h83l-121 -130h-51z" />
    <glyph glyph-name="uni1ED2" unicode="&#x1ed2;" horiz-adv-x="668" 
d="M402 685q128 0 191.5 -79t63.5 -198q0 -90 -32.5 -178.5t-90.5 -146.5q-94 -94 -231 -94q-83 0 -142.5 39.5t-86 100t-26.5 134.5q0 91 34 181.5t94 149.5q44 42 103.5 66.5t122.5 24.5zM391 615q-86 0 -154 -68q-47 -47 -74.5 -125t-27.5 -152q0 -91 44 -151t137 -60
q87 0 154 67q46 46 73 125.5t27 153.5q0 40 -7.5 73.5t-26 66t-55.5 51.5t-90 19zM475 881h83l60 -105h-50zM413 824h61l66 -114h-67l-36 69h-2l-70 -69h-75z" />
    <glyph glyph-name="uni1ED3" unicode="&#x1ed3;" horiz-adv-x="522" 
d="M303 495q92 0 141 -59t49 -142q0 -119 -76 -212t-193 -93q-88 0 -138.5 57t-50.5 142q0 124 76.5 215.5t191.5 91.5zM294 429q-74 0 -123.5 -74.5t-49.5 -163.5q0 -60 31 -98t83 -38q71 0 121.5 75t50.5 164q0 52 -27 93.5t-86 41.5zM370 773h76l66 -130h-46zM301 693h65
l63 -143h-64l-37 94h-2l-64 -94h-67z" />
    <glyph glyph-name="uni1ED4" unicode="&#x1ed4;" horiz-adv-x="668" 
d="M402 685q128 0 191.5 -79t63.5 -197q0 -91 -32.5 -179.5t-90.5 -146.5q-94 -94 -231 -94q-83 0 -142.5 39.5t-86 100t-26.5 134.5q0 91 34 181.5t94 149.5q44 42 103.5 66.5t122.5 24.5zM391 615q-85 0 -154 -67q-47 -47 -74.5 -125.5t-27.5 -152.5q0 -91 44 -151
t137 -60q87 0 154 67q46 46 73 125.5t27 153.5q0 40 -7.5 74t-26 66.5t-55.5 51t-90 18.5zM576 754l-41 17q9 16 35.5 39t26.5 40q0 12 -9 20.5t-22 8.5q-25 0 -53 -30l-26 27q38 50 95 50q33 0 54 -18.5t21 -46.5q0 -18 -9 -33.5t-21 -25t-27.5 -23t-23.5 -25.5zM410 824
h61l67 -114h-68l-36 69h-2l-70 -69h-75z" />
    <glyph glyph-name="uni1ED5" unicode="&#x1ed5;" horiz-adv-x="522" 
d="M303 495q92 0 141 -59t49 -142q0 -119 -76 -212t-193 -93q-88 0 -138.5 57t-50.5 142q0 124 76.5 215.5t191.5 91.5zM294 429q-74 0 -123.5 -74.5t-49.5 -163.5q0 -60 31 -98t83 -38q71 0 121.5 75t50.5 164q0 52 -27 93.5t-86 41.5zM296 693h65l62 -143h-63l-37 94h-2
l-64 -94h-67zM464 634l-41 17q9 16 35.5 39t26.5 40q0 12 -9 20t-22 8q-25 0 -53 -30l-26 28q38 50 95 50q33 0 54.5 -18.5t21.5 -46.5q0 -23 -14 -40.5t-36.5 -35.5t-31.5 -31z" />
    <glyph glyph-name="uni1ED6" unicode="&#x1ed6;" horiz-adv-x="668" 
d="M402 685q128 0 191.5 -79t63.5 -197q0 -91 -32.5 -179.5t-90.5 -146.5q-94 -94 -231 -94q-83 0 -142.5 39.5t-86 100t-26.5 134.5q0 92 34 182t95 149q93 91 225 91zM391 615q-85 0 -154 -67q-47 -47 -74.5 -125.5t-27.5 -152.5q0 -91 44 -151t137 -60q87 0 154 67
q46 46 73 125.5t27 153.5q0 40 -7.5 74t-26 66.5t-55.5 51t-90 18.5zM370 837h-48q5 42 26 67.5t52 25.5q22 0 59 -22q30 -16 40 -16q24 0 32 41h47q-10 -92 -78 -92q-22 0 -58 20q-29 17 -42 17q-23 0 -30 -41zM410 824h62l66 -114h-67l-36 69h-2l-70 -69h-75z" />
    <glyph glyph-name="uni1ED7" unicode="&#x1ed7;" horiz-adv-x="522" 
d="M303 495q92 0 141 -59t49 -142q0 -119 -76 -212t-193 -93q-88 0 -138.5 57t-50.5 142q0 124 76.5 215.5t191.5 91.5zM294 429q-74 0 -123.5 -74.5t-49.5 -163.5q0 -60 31 -98t83 -38q71 0 121.5 75t50.5 164q0 52 -27 93.5t-86 41.5zM267 687h-48q5 43 25.5 68t52.5 25
q21 0 59 -21q27 -16 40 -16q24 0 32 40h46q-9 -92 -78 -92q-21 0 -58 21q-30 16 -41 16q-23 0 -30 -41zM306 670h59l63 -120h-60l-36 73h-2l-56 -73h-68z" />
    <glyph glyph-name="uni1ED8" unicode="&#x1ed8;" horiz-adv-x="668" 
d="M402 685q128 0 191.5 -79t63.5 -197q0 -91 -32.5 -179.5t-90.5 -146.5q-94 -94 -231 -94q-83 0 -142.5 39.5t-86 100t-26.5 134.5q0 91 34 181.5t94 149.5q44 42 103.5 66.5t122.5 24.5zM391 615q-85 0 -154 -67q-47 -47 -74.5 -125.5t-27.5 -152.5q0 -91 44 -151
t137 -60q87 0 154 67q46 46 73 125.5t27 153.5q0 40 -7.5 74t-26 66.5t-55.5 51t-90 18.5zM402 828h65l80 -118h-68l-49 72h-2l-72 -72h-74zM255 -181q-21 0 -35 15t-14 36q0 20 14.5 35t35.5 15q20 0 34 -15t14 -35q0 -21 -14 -36t-35 -15z" />
    <glyph glyph-name="uni1ED9" unicode="&#x1ed9;" horiz-adv-x="522" 
d="M303 495q92 0 141 -59t49 -142q0 -119 -76 -212t-193 -93q-88 0 -138.5 57t-50.5 142q0 124 76.5 215.5t191.5 91.5zM294 429q-74 0 -123.5 -74.5t-49.5 -163.5q0 -60 31 -98t83 -38q71 0 121.5 75t50.5 164q0 52 -27 93.5t-86 41.5zM315 686h59l69 -143h-62l-43 91h-2
l-70 -91h-67zM200 -183q-21 0 -35.5 15t-14.5 36q0 22 15 37t36 15t35 -15t14 -37q0 -21 -14 -36t-36 -15z" />
    <glyph glyph-name="uni1EDA" unicode="&#x1eda;" horiz-adv-x="668" 
d="M648 740l69 12q11 -24 11 -64q0 -53 -32.5 -82t-84.5 -25q46 -66 46 -172q0 -91 -32 -179.5t-90 -146.5q-96 -94 -231 -94q-124 0 -190 79.5t-66 194.5q0 91 34 181t94 150q44 42 103.5 66.5t122.5 24.5q61 0 117 -23q8 -3 22 -10t22.5 -10.5t20 -6.5t22.5 -3q53 0 53 57
q0 23 -11 51zM392 615q-88 0 -154 -68q-48 -47 -75.5 -125t-27.5 -152q0 -91 44 -151t137 -60q87 0 154 67q46 46 73 125.5t27 153.5q0 40 -7.5 74t-26 66.5t-55.5 51t-89 18.5zM453 830h109l-137 -118h-74z" />
    <glyph glyph-name="uni1EDB" unicode="&#x1edb;" horiz-adv-x="522" 
d="M294 428q-74 0 -123.5 -74.5t-49.5 -162.5q0 -60 31 -98t83 -38q70 0 121 75t51 163q0 52 -27 93.5t-86 41.5zM494 553l66 12q8 -29 8 -56q0 -49 -28 -76.5t-77 -25.5q29 -47 29 -113q0 -119 -76 -212t-192 -93q-88 0 -138.5 57t-50.5 142q0 124 76.5 215.5t191.5 91.5
q48 0 83 -17q5 -2 15.5 -7t17 -8t17 -5.5t20.5 -2.5q47 0 47 49q0 25 -9 49zM348 686h100l-133 -143h-65z" />
    <glyph glyph-name="uni1EDC" unicode="&#x1edc;" horiz-adv-x="668" 
d="M648 741l69 11q11 -24 11 -64q0 -53 -32.5 -82t-84.5 -24q46 -67 46 -173q0 -91 -32 -179.5t-90 -146.5q-96 -94 -231 -94q-124 0 -190 79.5t-66 194.5q0 91 34 181t94 150q44 42 103.5 66.5t122.5 24.5q61 0 117 -23q7 -3 22 -9.5t22.5 -10t19.5 -6.5t23 -3q53 0 53 56
q0 23 -11 52zM392 615q-87 0 -154 -67q-48 -48 -75.5 -126t-27.5 -152q0 -91 44 -151t137 -60q87 0 154 67q46 46 73 125.5t27 153.5q0 40 -7.5 74t-26 66.5t-55.5 51t-89 18.5zM293 830h103l75 -117h-68z" />
    <glyph glyph-name="uni1EDD" unicode="&#x1edd;" horiz-adv-x="522" 
d="M294 428q-74 0 -123.5 -74.5t-49.5 -162.5q0 -60 31 -98t83 -38q70 0 121 75t51 163q0 52 -27 93.5t-86 41.5zM494 553l66 12q8 -29 8 -56q0 -49 -28 -76.5t-77 -25.5q29 -47 29 -113q0 -119 -76 -212t-192 -93q-88 0 -138.5 57t-50.5 142q0 124 76.5 215.5t191.5 91.5
q48 0 83 -17q5 -2 15.5 -7t17 -8t17 -5.5t20.5 -2.5q47 0 47 49q0 25 -9 49zM206 686h94l66 -143h-60z" />
    <glyph glyph-name="uni1EDE" unicode="&#x1ede;" horiz-adv-x="668" 
d="M648 741l69 11q11 -24 11 -64q0 -53 -32.5 -82t-84.5 -24q46 -67 46 -173q0 -91 -32 -179.5t-90 -146.5q-96 -94 -231 -94q-124 0 -190 79.5t-66 194.5q0 91 34 181t94 150q44 42 103.5 66.5t122.5 24.5q61 0 117 -23q8 -3 22 -10t22.5 -10.5t20 -6.5t22.5 -3q53 0 53 57
q0 23 -11 52zM392 615q-88 0 -154 -68q-48 -47 -75.5 -125t-27.5 -152q0 -91 44 -151t137 -60q87 0 154 67q46 46 73 125.5t27 153.5q0 40 -7.5 74t-26 66.5t-55.5 51t-89 18.5zM437 711l-44 15q9 16 35 41t26 44q0 13 -8 21t-21 8q-25 0 -52 -33l-31 21q44 63 103 63
q33 0 54 -19t21 -48q0 -24 -13 -41.5t-36 -36.5t-34 -35z" />
    <glyph glyph-name="uni1EDF" unicode="&#x1edf;" horiz-adv-x="522" 
d="M294 428q-74 0 -123.5 -74.5t-49.5 -162.5q0 -60 31 -98t83 -38q70 0 121 75t51 163q0 52 -27 93.5t-86 41.5zM494 553l66 13q8 -29 8 -57q0 -49 -28 -76.5t-77 -25.5q29 -47 29 -113q0 -119 -76 -212t-192 -93q-88 0 -138.5 57t-50.5 142q0 124 76.5 215.5t191.5 91.5
q48 0 83 -17q5 -2 15.5 -7t17 -8t17 -5.5t20.5 -2.5q47 0 47 49q0 25 -9 49zM326 531l-46 14q7 18 37 46.5t30 50.5q0 13 -8 21.5t-21 8.5q-28 0 -55 -37l-32 21q41 67 106 67q33 0 54 -20t21 -48q0 -27 -15 -47.5t-38 -40.5t-33 -36z" />
    <glyph glyph-name="uni1EE0" unicode="&#x1ee0;" horiz-adv-x="668" 
d="M648 741l69 11q11 -22 11 -63q0 -53 -32.5 -82.5t-84.5 -24.5q46 -67 46 -173q0 -91 -32 -179.5t-90 -146.5q-96 -94 -231 -94q-124 0 -190 79.5t-66 195.5q0 90 34 180.5t94 149.5q96 91 227 91q58 0 116 -22q8 -3 22 -10t22.5 -10.5t20 -6.5t22.5 -3q53 0 53 56
q0 23 -11 52zM392 615q-87 0 -154 -67q-48 -47 -75.5 -125.5t-27.5 -152.5q0 -91 44 -151t137 -60q87 0 154 67q46 46 73 125.5t27 153.5q0 40 -7.5 74t-26 66.5t-55.5 51t-89 18.5zM343 718h-47q8 45 30 72.5t52 27.5q27 0 60 -20q27 -18 44 -18q22 0 34 40h46
q-17 -96 -83 -96q-26 0 -59 19q-32 19 -43 18q-23 0 -34 -43z" />
    <glyph glyph-name="uni1EE1" unicode="&#x1ee1;" horiz-adv-x="522" 
d="M294 429q-74 0 -123.5 -74.5t-49.5 -163.5q0 -59 31 -97.5t83 -38.5q71 0 121.5 75t50.5 163q0 52 -27 93.5t-86 42.5zM494 554l66 12q8 -24 8 -57q0 -49 -28 -76.5t-76 -25.5q29 -47 29 -113q0 -119 -76 -212t-193 -93q-88 0 -138.5 57t-51.5 142q0 124 77 215.5
t192 91.5q48 0 83 -17q5 -2 15.5 -7t17 -8t17 -5.5t20.5 -2.5q47 0 47 50q0 23 -9 49zM239 568l-48 1q5 44 25.5 71.5t51.5 27.5q22 0 61 -22q28 -17 40 -17q13 0 19.5 8.5t10.5 33.5h47q-12 -96 -76 -96q-28 0 -60 20q-28 18 -42 18q-20 0 -29 -45z" />
    <glyph glyph-name="uni1EE2" unicode="&#x1ee2;" horiz-adv-x="668" 
d="M648 741l69 11q11 -24 11 -64q0 -53 -32.5 -82t-84.5 -24q46 -67 46 -173q0 -91 -32 -179.5t-90 -146.5q-96 -94 -231 -94q-124 0 -190 79.5t-66 194.5q0 91 34 181t94 150q44 42 103.5 66.5t122.5 24.5q61 0 117 -23q8 -3 22 -10t22.5 -10.5t20 -6.5t22.5 -3q53 0 53 57
q0 23 -11 52zM392 615q-88 0 -154 -68q-48 -47 -75.5 -125t-27.5 -152q0 -91 44 -151t137 -60q87 0 154 67q46 46 73 125.5t27 153.5q0 40 -7.5 74t-26 66.5t-55.5 51t-89 18.5zM252 -181q-21 0 -35 15t-14 36q0 20 14.5 35t35.5 15q20 0 34 -15t14 -35q0 -21 -14 -36
t-35 -15z" />
    <glyph glyph-name="uni1EE3" unicode="&#x1ee3;" horiz-adv-x="522" 
d="M294 428q-74 0 -123.5 -74.5t-49.5 -162.5q0 -60 31 -98t83 -38q70 0 121 75t51 163q0 52 -27 93.5t-86 41.5zM494 553l66 13q8 -29 8 -57q0 -49 -28 -76.5t-77 -25.5q29 -47 29 -113q0 -119 -76 -212t-192 -93q-88 0 -138.5 57t-50.5 142q0 124 76.5 215.5t191.5 91.5
q48 0 83 -17q5 -2 15.5 -7t17 -8t17 -5.5t20.5 -2.5q47 0 47 49q0 25 -9 49zM200 -183q-21 0 -35.5 15t-14.5 36q0 22 15 37t36 15t35 -15t14 -37q0 -21 -14 -36t-36 -15z" />
    <glyph glyph-name="uni1EE4" unicode="&#x1ee4;" horiz-adv-x="621" 
d="M158 674h83l-76 -399q-8 -45 -8 -85q0 -63 33.5 -96.5t91.5 -33.5q147 0 188 214l77 400h83l-77 -403q-55 -282 -282 -282q-88 0 -142.5 49.5t-54.5 149.5q0 46 9 93zM236 -181q-21 0 -35 15t-14 36q0 20 14.5 35t35.5 15q20 0 34 -15t14 -35q0 -21 -14 -36t-35 -15z" />
    <glyph glyph-name="uni1EE5" unicode="&#x1ee5;" horiz-adv-x="526" 
d="M417 484h83l-65 -343q-11 -56 -22 -141h-75l13 91h-2q-33 -48 -77.5 -75t-92.5 -27q-54 0 -91 32t-37 108q0 34 9 82l53 273h82l-51 -270q-8 -43 -8 -71q0 -84 77 -84q48 0 95.5 50.5t61.5 126.5zM202 -183q-21 0 -35.5 15t-14.5 36q0 22 15 37t36 15t35 -15t14 -37
q0 -21 -14 -36t-36 -15z" />
    <glyph glyph-name="uni1EE6" unicode="&#x1ee6;" horiz-adv-x="621" 
d="M158 674h83l-76 -399q-8 -45 -8 -85q0 -63 33.5 -96.5t91.5 -33.5q147 0 188 214l77 400h83l-77 -403q-55 -282 -282 -282q-88 0 -142.5 49.5t-54.5 149.5q0 46 9 93zM410 708l-44 15q9 17 35 42t26 44q0 12 -8 20.5t-21 8.5q-25 0 -53 -34l-30 21q41 64 103 64
q33 0 54 -19.5t21 -47.5q0 -24 -13 -41.5t-35.5 -36.5t-34.5 -36z" />
    <glyph glyph-name="uni1EE7" unicode="&#x1ee7;" horiz-adv-x="526" 
d="M417 484h83l-65 -343q-11 -56 -22 -141h-74l12 91h-2q-33 -48 -77.5 -75t-92.5 -27q-54 0 -91 32t-37 108q0 34 9 82l53 273h82l-51 -270q-8 -43 -8 -71q0 -84 77 -84q48 0 95.5 50.5t61.5 126.5zM340 531l-46 14q7 18 37 46.5t30 50.5q0 13 -8 21.5t-21 8.5
q-29 0 -54 -37l-33 21q41 67 106 67q33 0 54 -20t21 -48q0 -27 -15 -47.5t-38 -40.5t-33 -36z" />
    <glyph glyph-name="uni1EE8" unicode="&#x1ee8;" horiz-adv-x="627" 
d="M620 623l-67 -352q-54 -282 -282 -282q-88 0 -142.5 49.5t-54.5 149.5q0 46 9 92l75 394h83l-76 -400q-8 -45 -8 -84q0 -64 33.5 -97.5t91.5 -33.5q147 0 188 214l77 401h69q60 0 60 55q0 19 -7 43l64 12q7 -24 7 -49q0 -109 -120 -112zM444 828h109l-137 -118h-74z" />
    <glyph glyph-name="uni1EE9" unicode="&#x1ee9;" horiz-adv-x="535" 
d="M537 581l64 11q7 -23 7 -48q0 -50 -30 -80t-88 -31l-55 -292q-13 -73 -22 -141h-74l12 91h-2q-32 -47 -77.5 -74.5t-92.5 -27.5q-55 0 -91.5 32t-36.5 108q0 33 9 81l53 274h82l-51 -270q-8 -43 -8 -71q0 -84 77 -84q47 0 95 50t62 126l48 249h67q60 0 60 53q0 18 -8 44z
M364 686h100l-133 -143h-65z" />
    <glyph glyph-name="uni1EEA" unicode="&#x1eea;" horiz-adv-x="627" 
d="M620 623l-67 -352q-54 -282 -282 -282q-88 0 -142.5 49.5t-54.5 149.5q0 46 9 92l75 394h83l-76 -400q-8 -45 -8 -84q0 -64 33.5 -97.5t91.5 -33.5q147 0 188 214l77 401h69q60 0 60 55q0 19 -7 43l64 12q7 -24 7 -49q0 -109 -120 -112zM282 828h103l75 -117h-68z" />
    <glyph glyph-name="uni1EEB" unicode="&#x1eeb;" horiz-adv-x="535" 
d="M537 581l64 11q7 -23 7 -48q0 -50 -30 -80t-88 -31l-55 -292q-13 -73 -22 -141h-74l12 91h-2q-32 -47 -77.5 -74.5t-92.5 -27.5q-55 0 -91.5 32t-36.5 108q0 33 9 81l53 274h82l-51 -270q-8 -43 -8 -71q0 -84 77 -84q47 0 95 50t62 126l48 249h67q60 0 60 53q0 18 -8 44z
M217 686h94l66 -143h-60z" />
    <glyph glyph-name="uni1EEC" unicode="&#x1eec;" horiz-adv-x="627" 
d="M620 623l-67 -352q-54 -282 -282 -282q-88 0 -142.5 49.5t-54.5 149.5q0 46 9 92l75 394h83l-76 -400q-8 -45 -8 -84q0 -64 33.5 -97.5t91.5 -33.5q147 0 188 214l77 401h69q60 0 60 55q0 19 -7 43l64 11q7 -22 7 -48q0 -109 -120 -112zM415 708l-44 15q9 17 35 42t26 44
q0 12 -8 20.5t-21 8.5q-26 0 -52 -34l-31 21q43 64 103 64q33 0 54 -19.5t21 -47.5q0 -24 -13 -41.5t-35.5 -36.5t-34.5 -36z" />
    <glyph glyph-name="uni1EED" unicode="&#x1eed;" horiz-adv-x="535" 
d="M537 582l64 11q7 -24 7 -48q0 -51 -30 -81t-88 -31l-55 -292q-13 -73 -22 -141h-74l12 91h-2q-32 -47 -77.5 -74.5t-92.5 -27.5q-55 0 -91.5 32t-36.5 108q0 33 9 81l53 274h82l-51 -270q-8 -43 -8 -71q0 -84 77 -84q47 0 95 50t62 126l48 249h67q60 0 60 54q0 18 -8 44z
M335 531l-46 14q7 18 37 46.5t30 50.5q0 13 -8 21.5t-21 8.5q-29 0 -54 -37l-33 21q41 67 106 67q33 0 54 -20t21 -48q0 -27 -15 -47.5t-38 -40.5t-33 -36z" />
    <glyph glyph-name="uni1EEE" unicode="&#x1eee;" horiz-adv-x="627" 
d="M620 623l-67 -352q-54 -282 -282 -282q-88 0 -142.5 49.5t-54.5 149.5q0 46 9 92l75 394h83l-76 -400q-8 -45 -8 -84q0 -64 33.5 -97.5t91.5 -33.5q147 0 188 214l77 401h69q60 0 60 54q0 18 -7 43l64 12q7 -24 7 -49q0 -108 -120 -111zM327 716h-47q8 45 30 72.5
t52 27.5q28 0 60 -21q27 -18 44 -18q22 0 34 40h46q-17 -96 -83 -96q-27 0 -59 20q-32 19 -43 18q-23 0 -34 -43z" />
    <glyph glyph-name="uni1EEF" unicode="&#x1eef;" horiz-adv-x="535" 
d="M537 582l64 11q7 -24 7 -48q0 -51 -30 -81t-88 -31l-55 -292q-13 -73 -22 -141h-74l12 91h-2q-32 -47 -77.5 -74.5t-92.5 -27.5q-55 0 -91.5 32t-36.5 108q0 33 9 81l53 274h82l-51 -270q-8 -43 -8 -71q0 -84 77 -84q47 0 95 50t62 126l48 249h67q60 0 60 54q0 18 -8 44z
M248 568l-48 1q5 44 25.5 71.5t51.5 27.5q23 0 61 -22q28 -17 40 -17q13 0 19.5 8.5t10.5 33.5h47q-12 -96 -77 -96q-27 0 -59 20q-28 18 -42 18q-20 0 -29 -45z" />
    <glyph glyph-name="uni1EF0" unicode="&#x1ef0;" horiz-adv-x="627" 
d="M620 623l-67 -352q-54 -282 -282 -282q-88 0 -142.5 49.5t-54.5 149.5q0 46 9 92l75 394h83l-76 -400q-8 -45 -8 -84q0 -64 33.5 -97.5t91.5 -33.5q147 0 188 214l77 401h69q60 0 60 55q0 19 -7 43l64 11q7 -22 7 -48q0 -109 -120 -112zM238 -181q-21 0 -35 15t-14 36
q0 20 14.5 35t35.5 15q20 0 34 -15t14 -35q0 -21 -14 -36t-35 -15z" />
    <glyph glyph-name="uni1EF1" unicode="&#x1ef1;" horiz-adv-x="535" 
d="M537 582l64 11q7 -24 7 -48q0 -51 -30 -81t-88 -31l-55 -292q-13 -73 -22 -141h-74l12 91h-2q-32 -47 -77.5 -74.5t-92.5 -27.5q-55 0 -91.5 32t-36.5 108q0 33 9 81l53 274h82l-51 -270q-8 -43 -8 -71q0 -84 77 -84q47 0 95 50t62 126l48 249h67q60 0 60 54q0 18 -8 44z
M204 -183q-21 0 -35.5 15t-14.5 36q0 22 15 37t36 15t35 -15t14 -37q0 -21 -14 -36t-36 -15z" />
    <glyph glyph-name="Ygrave" unicode="&#x1ef2;" horiz-adv-x="517" 
d="M243 0h-82l53 280l-130 394h89l65 -218q20 -69 28 -113h2q41 68 72 116l146 215h97l-287 -393zM207 828h103l75 -117h-68z" />
    <glyph glyph-name="ygrave" unicode="&#x1ef3;" horiz-adv-x="441" 
d="M48 484h86l48 -260q14 -73 22 -128h2q30 71 52 119l124 269h88l-182 -368q-88 -176 -167 -254q-36 -37 -74.5 -57.5t-65.5 -26.5l-21 72q53 18 89 46q57 43 94 112q5 10 2 22zM143 686h94l66 -143h-59z" />
    <glyph glyph-name="uni1EF4" unicode="&#x1ef4;" horiz-adv-x="517" 
d="M243 0h-82l53 280l-130 394h89l65 -218q20 -69 28 -113h2q41 68 72 116l146 215h97l-287 -393zM184 -181q-21 0 -35 15t-14 36q0 20 14.5 35t35.5 15q20 0 34 -15t14 -35q0 -21 -14 -36t-35 -15z" />
    <glyph glyph-name="uni1EF5" unicode="&#x1ef5;" horiz-adv-x="441" 
d="M48 484h86l48 -260q14 -73 22 -128h2q30 71 52 119l124 269h88l-182 -368q-88 -176 -167 -254q-36 -37 -74.5 -57.5t-65.5 -26.5l-21 72q53 18 89 46q57 43 94 112q5 10 2 22zM290 -183q-21 0 -35.5 15t-14.5 36q0 22 15 37t36 15t35 -15t14 -37q0 -21 -14 -36t-36 -15z
" />
    <glyph glyph-name="uni1EF6" unicode="&#x1ef6;" horiz-adv-x="517" 
d="M243 0h-82l53 280l-130 394h89l65 -218q20 -69 28 -113h2q41 68 72 116l146 215h97l-287 -393zM358 708l-44 15q9 17 35 42t26 44q0 12 -8 20.5t-21 8.5q-25 0 -53 -34l-30 21q41 64 103 64q33 0 54 -19.5t21 -47.5q0 -24 -13 -41.5t-35.5 -36.5t-34.5 -36z" />
    <glyph glyph-name="uni1EF7" unicode="&#x1ef7;" horiz-adv-x="441" 
d="M48 484h86l48 -260q14 -73 22 -128h2q30 71 52 119l124 269h88l-182 -368q-88 -176 -167 -254q-36 -37 -74.5 -57.5t-65.5 -26.5l-21 72q53 18 89 46q57 43 94 112q5 10 2 22zM296 531l-47 14q7 18 37 46.5t30 50.5q0 13 -8 21.5t-21 8.5q-27 0 -54 -37l-32 21
q41 67 106 67q33 0 54 -20t21 -48q0 -27 -15 -47.5t-38 -40.5t-33 -36z" />
    <glyph glyph-name="uni1EF8" unicode="&#x1ef8;" horiz-adv-x="517" 
d="M243 0h-82l53 280l-130 394h89l65 -218q20 -69 28 -113h2q41 68 72 116l146 215h97l-287 -393zM269 716h-47q8 45 30 72.5t52 27.5q28 0 60 -21q27 -18 44 -18q23 0 35 40h46q-17 -96 -83 -96q-27 0 -60 20q-32 19 -43 18q-23 0 -34 -43z" />
    <glyph glyph-name="uni1EF9" unicode="&#x1ef9;" horiz-adv-x="441" 
d="M48 484h86l48 -260q14 -73 22 -128h2q30 71 52 119l123 269h88l-181 -368q-88 -176 -167 -254q-36 -37 -74.5 -57.5t-65.5 -26.5l-21 72q53 18 89 46q57 43 94 112q5 10 2 22zM204 568h-48q5 45 25.5 72.5t51.5 27.5q22 0 61 -22q28 -17 40 -17q13 0 19.5 8.5t10.5 33.5
h47q-12 -96 -77 -96q-27 0 -59 20q-28 18 -42 18q-20 0 -29 -45z" />
    <glyph glyph-name="uni2010" unicode="&#x2010;" horiz-adv-x="307" 
d="M48 302h239l-12 -64h-239z" />
    <glyph glyph-name="endash" unicode="&#x2013;" horiz-adv-x="500" 
d="M41 284h440l-12 -60h-440z" />
    <glyph glyph-name="emdash" unicode="&#x2014;" horiz-adv-x="1000" 
d="M41 284h940l-12 -60h-940z" />
    <glyph glyph-name="quoteleft" unicode="&#x2018;" horiz-adv-x="194" 
d="M164 458l-91 -10q27 62 66 132.5t65 105.5l58 6q-63 -121 -98 -234z" />
    <glyph glyph-name="quoteright" unicode="&#x2019;" horiz-adv-x="194" 
d="M161 682l91 10q-27 -62 -66 -132.5t-65 -105.5l-58 -6q59 113 98 234z" />
    <glyph glyph-name="quotesinglbase" unicode="&#x201a;" horiz-adv-x="194" 
d="M7 -115l-60 -7q65 127 99 238l94 10q-27 -63 -66.5 -134t-66.5 -107z" />
    <glyph glyph-name="quotedblleft" unicode="&#x201c;" horiz-adv-x="342" 
d="M163 458l-91 -10q28 63 67 133t65 105l57 6q-59 -113 -98 -234zM312 458l-91 -10q28 63 67 133t65 105l57 6q-63 -121 -98 -234z" />
    <glyph glyph-name="quotedblright" unicode="&#x201d;" horiz-adv-x="342" 
d="M161 682l91 10q-27 -62 -66 -132.5t-65 -105.5l-58 -6q63 121 98 234zM310 682l91 10q-27 -62 -66 -132.5t-65 -105.5l-58 -6q63 121 98 234z" />
    <glyph glyph-name="quotedblbase" unicode="&#x201e;" horiz-adv-x="342" 
d="M5 -115l-60 -7q63 118 99 238l94 10q-27 -63 -66.5 -134t-66.5 -107zM160 -115l-60 -7q65 127 99 238l94 10q-27 -63 -66.5 -134t-66.5 -107z" />
    <glyph glyph-name="dagger" unicode="&#x2020;" horiz-adv-x="483" 
d="M286 674h80l-49 -211l168 7l-14 -71l-165 7l-79 -456h-80l95 456l-167 -7l14 71l164 -7z" />
    <glyph glyph-name="daggerdbl" unicode="&#x2021;" horiz-adv-x="483" 
d="M286 674h79l-46 -201l167 7l-14 -71l-163 7l-39 -205l166 8l-14 -71l-163 7l-33 -205h-79l46 205l-166 -7l14 71l163 -8l39 205l-166 -7l14 71l163 -7z" />
    <glyph glyph-name="bullet" unicode="&#x2022;" horiz-adv-x="277" 
d="M144 161q-43 0 -73.5 30.5t-30.5 74.5q-1 43 30 74t75 31t74.5 -30.5t30.5 -74.5t-31 -74.5t-75 -30.5z" />
    <glyph glyph-name="ellipsis" unicode="&#x2026;" horiz-adv-x="1000" 
d="M127 -11q-24 0 -39.5 17t-15.5 42q0 28 18 47.5t45 19.5q25 0 40.5 -17t15.5 -43q0 -28 -18 -47t-46 -19zM460 -11q-24 0 -39.5 17t-15.5 42q0 28 18 47.5t45 19.5q25 0 40.5 -17t15.5 -43q0 -28 -18 -47t-46 -19zM793 -11q-24 0 -39.5 17t-15.5 42q0 28 18 47.5t45 19.5
q25 0 40.5 -17t15.5 -43q0 -28 -18 -47t-46 -19z" />
    <glyph glyph-name="perthousand" unicode="&#x2030;" horiz-adv-x="1124" 
d="M258 661q58 0 88.5 -39.5t30.5 -95.5q0 -109 -52 -186t-132 -77q-57 0 -90 39.5t-33 104.5q0 98 52.5 176t135.5 78zM247 608q-47 0 -78 -65t-31 -138q0 -89 63 -89q47 0 77.5 66.5t30.5 138.5q0 87 -62 87zM186 -13h-60l491 675h60zM618 392q58 0 88.5 -39.5t30.5 -96.5
q0 -109 -52 -186t-132 -77q-57 0 -89.5 39.5t-32.5 105.5q0 98 52.5 176t134.5 78zM607 339q-46 0 -77 -65.5t-31 -137.5q0 -90 63 -90q47 0 77 66.5t30 139.5q0 87 -62 87zM971 392q58 0 88.5 -39.5t30.5 -96.5q0 -109 -52 -186t-132 -77q-56 0 -89 39.5t-33 105.5
q0 98 52.5 176t134.5 78zM960 339q-46 0 -77 -65.5t-31 -137.5q0 -90 63 -90q47 0 77 66.5t30 139.5q0 87 -62 87z" />
    <glyph glyph-name="guilsinglleft" unicode="&#x2039;" horiz-adv-x="245" 
d="M253 436l-152 -186l102 -182h-66l-104 184l147 184h73z" />
    <glyph glyph-name="guilsinglright" unicode="&#x203a;" horiz-adv-x="245" 
d="M160 255l-102 181h66l104 -184l-148 -184h-72z" />
    <glyph glyph-name="fraction" unicode="&#x2044;" horiz-adv-x="142" 
d="M-123 -11h-61l487 672h61z" />
    <glyph glyph-name="zero.superior" unicode="&#x2070;" horiz-adv-x="323" 
d="M200 400q-56 0 -84 38t-28 101q0 106 52.5 184.5t131.5 78.5q56 0 83.5 -36.5t27.5 -90.5q0 -110 -51 -192.5t-132 -82.5zM209 452q46 0 76 73.5t30 142.5q0 82 -51 82q-44 0 -76 -70.5t-32 -141.5q0 -86 53 -86z" />
    <glyph glyph-name="four.superior" unicode="&#x2074;" horiz-adv-x="318" 
d="M290 406h-65l20 104h-180l8 40l216 248h76l-46 -239h55l-10 -49h-54zM255 559l22 116q4 23 15 64h-2q-39 -56 -44 -62l-101 -116l-1 -2h111z" />
    <glyph glyph-name="five.superior" unicode="&#x2075;" horiz-adv-x="295" 
d="M364 796l-12 -55h-142l-27 -85q9 1 23 1q38 0 68 -15q56 -26 56 -89q0 -71 -51 -112t-126 -41q-61 0 -94 22l18 50q32 -19 80 -19q42 0 71.5 25.5t29.5 62.5q0 68 -97 68q-8 0 -16 -0.5t-17.5 -1.5t-15.5 -1l56 190h196z" />
    <glyph glyph-name="six.superior" unicode="&#x2076;" horiz-adv-x="320" 
d="M370 801l-9 -53q-19 2 -42 -3q-110 -19 -148 -124l1 -1q16 20 42.5 33t51.5 13q50 0 76.5 -31t26.5 -78q0 -62 -45.5 -109.5t-110.5 -47.5q-59 0 -92.5 37t-33.5 96q0 65 31 122t75 91q56 40 124 50q28 5 53 5zM218 450q34 0 58.5 31t24.5 72q0 31 -16 48t-45 17
q-46 0 -75 -47q-7 -8 -8 -17q-3 -9 -3 -31q0 -33 16.5 -53t47.5 -20z" />
    <glyph glyph-name="seven.superior" unicode="&#x2077;" horiz-adv-x="282" 
d="M123 796h254l-8 -43q-58 -91 -229 -347h-73q166 245 227 334l-1 2h-181z" />
    <glyph glyph-name="eight.superior" unicode="&#x2078;" horiz-adv-x="323" 
d="M270 802q47 0 78.5 -24t31.5 -67q0 -63 -78 -98v-1q62 -32 62 -90t-46 -90t-106 -32q-59 0 -94 27.5t-35 70.5q0 40 26.5 69.5t67.5 44.5v2q-46 30 -46 75q0 49 40.5 81t98.5 32zM218 447q32 0 54 19.5t22 49.5q0 51 -66 72q-32 -8 -54 -28t-22 -53q0 -24 17.5 -42
t48.5 -18zM259 755q-27 0 -45 -18.5t-18 -42.5q0 -43 57 -61q63 19 63 69q0 21 -13.5 37t-43.5 16z" />
    <glyph glyph-name="nine.superior" unicode="&#x2079;" horiz-adv-x="315" 
d="M90 400l8 54q21 -2 45 1q41 5 81 34q46 32 70 92l-1 1q-36 -40 -90 -40q-48 0 -76 30t-28 75q0 62 46.5 109t109.5 47q58 0 89 -37t31 -94q0 -67 -31.5 -126.5t-72.5 -92.5q-55 -44 -132 -52q-24 -3 -49 -1zM248 752q-32 0 -56.5 -30t-24.5 -70q0 -27 15.5 -44.5
t42.5 -17.5q43 0 72 39q7 8 8 18q4 18 4 34q0 32 -15.5 51.5t-45.5 19.5z" />
    <glyph glyph-name="parenleft.superior" unicode="&#x207d;" horiz-adv-x="181" 
d="M231 832h51q-123 -145 -123 -321q0 -87 32 -164h-47q-38 76 -38 164q0 99 36 181t89 140z" />
    <glyph glyph-name="parenright.superior" unicode="&#x207e;" horiz-adv-x="181" 
d="M92 347h-50q123 149 123 322q0 82 -32 163h47q39 -76 39 -163q0 -183 -127 -322z" />
    <glyph glyph-name="zero.inferior" unicode="&#x2080;" horiz-adv-x="323" 
d="M94 -150q-56 0 -84 38t-28 101q0 106 52.5 184.5t131.5 78.5q56 0 83.5 -36.5t27.5 -90.5q0 -110 -51 -192.5t-132 -82.5zM103 -98q46 0 76 73.5t30 142.5q0 82 -51 82q-44 0 -76 -70.5t-32 -141.5q0 -86 53 -86z" />
    <glyph glyph-name="one.inferior" unicode="&#x2081;" horiz-adv-x="228" 
d="M97 -144h-69l63 329h-2l-72 -33l-6 50l100 44h60z" />
    <glyph glyph-name="two.inferior" unicode="&#x2082;" horiz-adv-x="298" 
d="M204 -144h-263l7 40l73 58q82 66 119 106.5t37 80.5q0 54 -60 54q-41 0 -85 -30l-16 44q56 42 122 42q52 0 82 -28.5t30 -72.5q0 -37 -26.5 -76.5t-55 -65t-83.5 -67.5l-36 -28v-2h166z" />
    <glyph glyph-name="three.inferior" unicode="&#x2083;" horiz-adv-x="291" 
d="M31 172l-11 45q47 34 111 34q52 0 81 -25t29 -61q0 -34 -25 -59t-65 -38v-2q31 -8 51 -32t20 -57q-1 -57 -46.5 -91.5t-117.5 -34.5q-73 0 -109 29l22 48q37 -26 87 -26q43 0 68 22t25 53q0 32 -26 48.5t-65 16.5h-20l8 45h21q37 0 68.5 19t31.5 49q0 45 -57 45
q-43 0 -81 -28z" />
    <glyph glyph-name="four.inferior" unicode="&#x2084;" horiz-adv-x="318" 
d="M184 -144h-65l20 104h-180l8 40l216 248h76l-46 -239h55l-10 -49h-54zM149 9l22 116q5 26 15 63l-2 1q-39 -56 -44 -62l-101 -116l-1 -2h111z" />
    <glyph glyph-name="five.inferior" unicode="&#x2085;" horiz-adv-x="295" 
d="M258 246l-12 -55h-142l-27 -85q9 1 23 1q38 0 68 -15q56 -26 56 -89q0 -71 -51 -112t-126 -41q-61 0 -94 22l18 50q32 -19 80 -19q42 0 71.5 25.5t29.5 62.5q0 68 -97 68q-8 0 -16 -0.5t-17.5 -1.5t-15.5 -1l56 190h196z" />
    <glyph glyph-name="six.inferior" unicode="&#x2086;" horiz-adv-x="320" 
d="M264 251l-9 -53q-19 2 -42 -3q-110 -19 -148 -124l1 -1q16 20 42.5 33t51.5 13q50 0 76.5 -31t26.5 -78q0 -62 -45.5 -109.5t-110.5 -47.5q-59 0 -92.5 37t-33.5 96q0 65 31 122t75 91q56 40 124 50q28 5 53 5zM112 -100q34 0 58.5 31t24.5 72q0 31 -16 48t-45 17
q-46 0 -75 -47q-7 -8 -8 -17q-3 -9 -3 -31q0 -33 16.5 -53t47.5 -20z" />
    <glyph glyph-name="seven.inferior" unicode="&#x2087;" horiz-adv-x="282" 
d="M17 246h254l-8 -44q-42 -65 -229 -346h-73q166 245 227 334l-1 2h-181z" />
    <glyph glyph-name="eight.inferior" unicode="&#x2088;" horiz-adv-x="323" 
d="M164 252q47 0 78.5 -24t31.5 -67q0 -63 -78 -98v-1q62 -32 62 -90t-46 -90t-106 -32q-59 0 -94 27.5t-35 70.5q0 40 26.5 69.5t67.5 44.5v2q-46 30 -46 75q0 49 40.5 81t98.5 32zM112 -103q32 0 54 19.5t22 49.5q0 51 -66 72q-32 -8 -54 -28t-22 -53q0 -24 17.5 -42
t48.5 -18zM153 205q-27 0 -45 -18.5t-18 -42.5q0 -43 57 -61q63 19 63 69q0 21 -13.5 37t-43.5 16z" />
    </font>
</defs>
</svg>
